<svg width="612" height="792" viewBox="0 0 612 792" fill="none" xmlns="http://www.w3.org/2000/svg">
<g id="comtreesymbolfinal 1">
<g id="Layer 1">
<g id="Group">
<path id="Vector" d="M136.858 394.606C135.632 393.373 135.235 391.716 134.549 390.232C128.559 377.256 124.166 363.788 121.333 349.88C120.034 343.53 119.15 337.119 118.483 330.674C117.553 321.589 117.454 312.487 117.833 303.393C118.167 295.49 119.186 287.63 120.612 279.813C122.515 269.399 125.284 259.219 128.911 249.245C133.683 236.105 139.926 223.629 147.548 211.774C152.88 203.474 158.825 195.588 165.419 188.177C172.013 180.766 179.149 173.864 186.844 167.462C201.196 155.512 216.992 145.728 234.213 138.049C249.035 131.44 264.488 126.652 280.554 123.658C286.986 122.459 293.472 121.613 299.976 120.906C302.62 120.621 305.29 120.483 307.951 120.414C311.334 120.328 314.708 120 318.1 120C324.739 120 331.36 120.293 337.955 120.906C351.892 122.191 365.577 124.754 378.964 128.749C389.862 132.001 400.416 136.074 410.583 141.026C423.546 147.333 435.634 154.925 446.911 163.717C454.416 169.575 461.371 175.986 467.957 182.759C473.649 188.617 478.836 194.898 483.68 201.429C490.004 209.936 495.561 218.883 500.333 228.262C506.079 239.573 510.671 251.298 514.036 263.472C516.228 271.41 517.906 279.434 519.043 287.561C519.818 293.083 520.306 298.648 520.549 304.23C520.712 308.018 520.955 311.814 520.811 315.593C520.549 322.538 520.143 329.475 519.259 336.394C517.482 350.406 514.063 364.029 509.192 377.342C506.756 383.986 503.878 390.456 500.721 396.815C498.457 394.408 496.156 392.035 493.919 389.602C486.062 381.052 478.223 372.485 470.365 363.934C463.654 356.627 456.915 349.336 450.203 342.028C442.4 333.53 434.615 325.006 426.803 316.507C419.902 308.993 412.965 301.504 406.054 293.997C397.954 285.188 389.88 276.371 381.779 267.562C376.159 261.445 370.521 255.353 364.901 249.236C355.807 239.34 346.723 229.435 337.639 219.531C332.93 214.397 328.266 209.229 323.503 204.13C321.555 202.042 319.787 199.773 317.441 197.806C314.455 201.033 311.532 204.164 308.637 207.331C299.895 216.882 291.172 226.441 282.421 235.992C275.863 243.154 269.278 250.297 262.72 257.459C254.736 266.173 246.761 274.904 238.778 283.618C233.455 289.433 228.124 295.24 222.802 301.055C215.107 309.467 207.421 317.888 199.726 326.291C194.169 332.365 188.576 338.413 183.019 344.487C175.18 353.046 167.34 361.622 159.51 370.19C153.863 376.367 148.252 382.579 142.542 388.714C140.701 390.707 139.087 392.933 136.858 394.606Z" fill="#A4BDA2"/>
<path id="Vector_2" d="M136.858 394.606C139.087 392.933 140.701 390.698 142.56 388.705C148.27 382.571 153.872 376.359 159.528 370.181C167.358 361.614 175.198 353.038 183.037 344.479C188.594 338.405 194.187 332.357 199.744 326.283C207.439 317.879 215.125 309.458 222.82 301.046C228.142 295.231 233.473 289.425 238.796 283.609C246.779 274.887 254.754 266.164 262.738 257.45C269.296 250.289 275.881 243.145 282.439 235.984C291.181 226.433 299.913 216.873 308.655 207.322C311.55 204.164 314.473 201.024 317.459 197.797C319.805 199.764 321.573 202.033 323.521 204.121C328.275 209.212 332.948 214.388 337.657 219.522C346.741 229.427 355.825 239.331 364.919 249.228C370.539 255.345 376.177 261.436 381.797 267.553C389.889 276.362 397.972 285.188 406.072 293.989C412.983 301.504 419.92 308.984 426.821 316.499C434.633 324.997 442.409 333.521 450.221 342.02C456.933 349.328 463.672 356.618 470.383 363.926C478.241 372.476 486.071 381.043 493.937 389.594C496.174 392.027 498.466 394.408 500.739 396.806C506.368 402.993 511.997 409.187 517.644 415.365C521.009 419.049 524.41 422.716 527.784 426.391C528.244 426.892 528.668 427.409 529.399 428.255C528.199 428.255 527.441 428.255 526.674 428.255C513.404 428.255 500.144 428.264 486.874 428.246C484.79 428.246 482.697 428.566 480.622 428.134C480.333 427.237 479.576 426.667 478.953 426.012C473.468 420.153 467.975 414.304 462.49 408.445C454.272 399.654 446.072 390.845 437.853 382.044C432.766 376.592 427.651 371.147 422.563 365.695C413.632 356.118 404.719 346.532 395.789 336.964C390.268 331.045 384.711 325.152 379.19 319.242C371.017 310.502 362.862 301.745 354.707 292.997C350.53 288.519 346.398 284.006 342.177 279.563C340.508 277.812 339.001 275.896 336.818 274.076C336.818 275.111 336.818 275.784 336.818 276.448C336.818 287.561 336.872 298.674 336.773 309.778C336.755 311.728 337.341 313.151 338.686 314.575C343.322 319.493 347.869 324.488 352.425 329.475C360.119 337.878 367.796 346.308 375.491 354.711C382.095 361.924 388.725 369.111 395.328 376.333C403.88 385.677 412.396 395.038 420.948 404.382C427.651 411.698 434.371 418.989 441.074 426.305C441.552 426.831 442.202 427.323 442.256 428.151C441.94 428.195 441.724 428.246 441.516 428.246C425.423 428.246 409.338 428.246 393.245 428.272C392.189 428.272 391.531 427.91 390.872 427.168C387.39 423.208 383.863 419.291 380.345 415.356C374.021 408.281 367.688 401.207 361.373 394.115C353.561 385.349 345.767 376.566 337.964 367.8C337.711 367.515 337.522 367.04 336.836 367.265C336.836 367.843 336.836 368.455 336.836 369.059C336.836 413.639 336.836 458.228 336.845 502.808C336.845 503.498 336.926 504.18 336.962 504.87C336.917 506.941 336.818 509.003 336.818 511.073C336.809 592.442 336.818 673.811 336.8 755.18C336.8 758.381 337.323 757.993 333.805 758.002C323.702 758.019 313.598 758.01 303.504 758.01C303.287 758.01 303.071 758.01 302.854 758.01C300.202 758.019 300.518 758.079 300.518 755.784C300.518 698.849 300.518 641.906 300.518 584.971C300.518 560.33 300.518 535.697 300.509 511.056C300.509 508.985 300.436 506.915 300.391 504.853C300.427 504.024 300.491 503.205 300.491 502.377C300.5 486.985 300.491 471.592 300.491 456.2C300.491 427.211 300.491 398.221 300.482 369.232C300.482 368.533 300.671 367.774 300.256 367.066C299.48 367.481 299.074 368.059 298.605 368.576C290.865 377.04 283.125 385.504 275.394 393.968C270.838 398.955 266.292 403.95 261.736 408.937C256.224 414.959 250.695 420.964 245.201 426.995C244.452 427.824 243.676 428.281 242.449 428.281C227.005 428.238 211.561 428.255 196.117 428.246C195.739 428.246 195.224 428.445 194.999 427.755C196.749 425.831 198.535 423.846 200.339 421.879C205.905 415.814 211.48 409.757 217.037 403.683C224.588 395.426 232.12 387.161 239.671 378.904C246.373 371.587 253.103 364.297 259.806 356.98C267.645 348.422 275.475 339.846 283.306 331.278C288.628 325.463 293.95 319.656 299.291 313.859C300.139 312.935 300.536 311.969 300.536 310.692C300.482 299.096 300.509 287.501 300.5 275.905C300.5 275.404 300.653 274.844 300.112 274.119C299.697 274.611 299.399 274.99 299.074 275.344C294.32 280.529 289.566 285.723 284.794 290.891C278.633 297.561 272.435 304.195 266.274 310.865C257.866 319.958 249.477 329.069 241.087 338.18C232.833 347.127 224.597 356.092 216.334 365.039C209.027 372.951 201.683 380.828 194.376 388.731C184.58 399.326 174.783 409.912 165.022 420.542C162.649 423.13 160.115 425.58 157.986 428.367C140.999 428.367 124.012 428.367 107.08 428.367C106.773 427.444 107.423 427.176 107.766 426.805C116.805 416.883 125.862 406.979 134.901 397.057C135.577 396.263 136.2 395.417 136.858 394.606Z" fill="#5C4138"/>
<path id="Vector_3" d="M336.944 504.853C336.899 504.162 336.827 503.481 336.827 502.791C336.818 458.211 336.818 413.622 336.818 369.042C336.818 368.43 336.818 367.826 336.818 367.248C337.504 367.032 337.702 367.506 337.946 367.782C345.758 376.548 353.552 385.331 361.355 394.097C367.67 401.181 374.003 408.256 380.327 415.339C383.836 419.273 387.372 423.19 390.854 427.151C391.513 427.893 392.171 428.255 393.227 428.255C409.32 428.229 425.405 428.238 441.498 428.229C441.714 428.229 441.922 428.177 442.238 428.134C442.184 427.297 441.543 426.814 441.056 426.288C434.362 418.971 427.633 411.681 420.93 404.364C412.378 395.021 403.853 385.659 395.31 376.315C388.707 369.103 382.077 361.907 375.473 354.694C367.778 346.291 360.101 337.861 352.406 329.458C347.842 324.479 343.304 319.475 338.667 314.557C337.332 313.142 336.737 311.71 336.755 309.76C336.854 298.648 336.8 287.535 336.8 276.431C336.8 275.767 336.8 275.094 336.8 274.058C338.983 275.888 340.499 277.794 342.159 279.546C346.38 283.989 350.512 288.501 354.689 292.979C362.844 301.728 371.008 310.485 379.172 319.225C384.702 325.144 390.25 331.028 395.77 336.947C404.701 346.515 413.614 356.109 422.545 365.677C427.633 371.13 432.739 376.574 437.835 382.027C446.045 390.827 454.254 399.636 462.472 408.428C467.948 414.295 473.45 420.136 478.935 425.994C479.558 426.659 480.315 427.22 480.604 428.117C478.998 430.835 476.797 433.121 474.74 435.511C469.788 441.266 464.547 446.77 458.909 451.912C448.065 461.791 436.275 470.462 423.456 477.882C409.446 485.992 394.625 492.342 379.009 497.01C369.997 499.702 360.832 501.773 351.495 503.17C346.669 503.912 341.852 504.689 336.944 504.853Z" fill="#A4BDA2"/>
<path id="Vector_4" d="M157.959 428.341C160.088 425.554 162.622 423.095 164.995 420.516C174.747 409.886 184.552 399.3 194.349 388.705C201.656 380.802 208.999 372.916 216.306 365.013C224.57 356.075 232.806 347.11 241.06 338.155C249.459 329.052 257.848 319.941 266.247 310.839C272.408 304.17 278.606 297.535 284.767 290.865C289.539 285.697 294.293 280.503 299.047 275.318C299.372 274.964 299.67 274.585 300.085 274.093C300.626 274.809 300.473 275.37 300.473 275.879C300.482 287.475 300.463 299.071 300.509 310.666C300.518 311.943 300.112 312.91 299.264 313.833C293.923 319.631 288.601 325.437 283.278 331.252C275.439 339.82 267.618 348.396 259.779 356.955C253.076 364.271 246.346 371.561 239.644 378.878C232.093 387.126 224.561 395.4 217.01 403.657C211.453 409.731 205.878 415.788 200.312 421.853C198.508 423.82 196.722 425.796 194.972 427.729C195.197 428.419 195.711 428.22 196.09 428.22C211.534 428.229 226.978 428.212 242.422 428.255C243.658 428.255 244.425 427.798 245.174 426.969C250.668 420.939 256.197 414.934 261.709 408.911C266.265 403.924 270.811 398.929 275.367 393.942C283.098 385.478 290.838 377.006 298.578 368.55C299.047 368.041 299.453 367.455 300.229 367.04C300.644 367.748 300.454 368.499 300.454 369.206C300.463 398.196 300.463 427.185 300.463 456.175C300.463 471.567 300.463 486.959 300.463 502.351C300.463 503.179 300.4 503.999 300.364 504.827C292.318 504.214 284.37 502.98 276.495 501.35C264.785 498.917 253.392 495.535 242.314 491.152C226.446 484.871 211.661 476.795 197.913 466.959C188.071 459.91 179.095 451.956 170.723 443.371C166.348 438.884 162.244 434.174 158.428 429.238C158.229 428.962 157.959 428.729 157.959 428.341Z" fill="#A4BDA2"/>
</g>
</g>
</g>
</svg>
