<svg xmlns="http://www.w3.org/2000/svg" version="1.1" xmlns:xlink="http://www.w3.org/1999/xlink" xmlns:svgjs="http://svgjs.com/svgjs" width="612" height="792"><svg version="1.1" xmlns="http://www.w3.org/2000/svg" xmlns:xlink="http://www.w3.org/1999/xlink" x="0px" y="0px" viewBox="0 0 612 792" style="enable-background:new 0 0 612 792;" xml:space="preserve">
<style type="text/css">
	.st0{display:none;}
	.st1{fill:#A4BDA2;}
	.st2{fill:#5C4138;}
</style>
<g id="SvgjsG1001" class="st0">
</g>
<g id="SvgjsG1000">
	<g>
		<path class="st1" d="M104.7,351.81c-1.36-1.43-1.8-3.35-2.56-5.07c-6.64-15.04-11.51-30.65-14.65-46.77
			c-1.44-7.36-2.42-14.79-3.16-22.26c-1.03-10.53-1.14-21.08-0.72-31.62c0.37-9.16,1.5-18.27,3.08-27.33
			c2.11-12.07,5.18-23.87,9.2-35.43c5.29-15.23,12.21-29.69,20.66-43.43c5.91-9.62,12.5-18.76,19.81-27.35
			c7.31-8.59,15.22-16.59,23.75-24.01c15.91-13.85,33.42-25.19,52.51-34.09c16.43-7.66,33.56-13.21,51.37-16.68
			c7.13-1.39,14.32-2.37,21.53-3.19c2.93-0.33,5.89-0.49,8.84-0.57c3.75-0.1,7.49-0.48,11.25-0.48c7.36,0,14.7,0.34,22.01,1.05
			c15.45,1.49,30.62,4.46,45.46,9.09c12.08,3.77,23.78,8.49,35.05,14.23c14.37,7.31,27.77,16.11,40.27,26.3
			c8.32,6.79,16.03,14.22,23.33,22.07c6.31,6.79,12.06,14.07,17.43,21.64c7.01,9.86,13.17,20.23,18.46,31.1
			c6.37,13.11,11.46,26.7,15.19,40.81c2.43,9.2,4.29,18.5,5.55,27.92c0.86,6.4,1.4,12.85,1.67,19.32c0.18,4.39,0.45,8.79,0.29,13.17
			c-0.29,8.05-0.74,16.09-1.72,24.11c-1.97,16.24-5.76,32.03-11.16,47.46c-2.7,7.7-5.89,15.2-9.39,22.57
			c-2.51-2.79-5.06-5.54-7.54-8.36c-8.71-9.91-17.4-19.84-26.11-29.75c-7.44-8.47-14.91-16.92-22.35-25.39
			c-8.65-9.85-17.28-19.73-25.94-29.58c-7.65-8.71-15.34-17.39-23-26.09c-8.98-10.21-17.93-20.43-26.91-30.64
			c-6.23-7.09-12.48-14.15-18.71-21.24c-10.08-11.47-20.15-22.95-30.22-34.43c-5.22-5.95-10.39-11.94-15.67-17.85
			c-2.16-2.42-4.12-5.05-6.72-7.33c-3.31,3.74-6.55,7.37-9.76,11.04c-9.69,11.07-19.36,22.15-29.06,33.22
			c-7.27,8.3-14.57,16.58-21.84,24.88c-8.85,10.1-17.69,20.22-26.54,30.32c-5.9,6.74-11.81,13.47-17.71,20.21
			c-8.53,9.75-17.05,19.51-25.58,29.25c-6.16,7.04-12.36,14.05-18.52,21.09c-8.69,9.92-17.38,19.86-26.06,29.79
			c-6.26,7.16-12.48,14.36-18.81,21.47C108.96,347.29,107.17,349.87,104.7,351.81z"></path>
		<path class="st2" d="M104.7,351.81c2.47-1.94,4.26-4.53,6.32-6.84c6.33-7.11,12.54-14.31,18.81-21.47
			c8.68-9.93,17.37-19.87,26.06-29.79c6.16-7.04,12.36-14.05,18.52-21.09c8.53-9.74,17.05-19.5,25.58-29.25
			c5.9-6.74,11.81-13.47,17.71-20.21c8.85-10.11,17.69-20.22,26.54-30.32c7.27-8.3,14.57-16.58,21.84-24.88
			c9.69-11.07,19.37-22.15,29.06-33.22c3.21-3.66,6.45-7.3,9.76-11.04c2.6,2.28,4.56,4.91,6.72,7.33
			c5.27,5.9,10.45,11.9,15.67,17.85c10.07,11.48,20.14,22.96,30.22,34.43c6.23,7.09,12.48,14.15,18.71,21.24
			c8.97,10.21,17.93,20.44,26.91,30.64c7.66,8.71,15.35,17.38,23,26.09c8.66,9.85,17.28,19.73,25.94,29.58
			c7.44,8.47,14.91,16.92,22.35,25.39c8.71,9.91,17.39,19.84,26.11,29.75c2.48,2.82,5.02,5.58,7.54,8.36
			c6.24,7.17,12.48,14.35,18.74,21.51c3.73,4.27,7.5,8.52,11.24,12.78c0.51,0.58,0.98,1.18,1.79,2.16c-1.33,0-2.17,0-3.02,0
			c-14.71,0-29.41,0.01-44.12-0.01c-2.31,0-4.63,0.37-6.93-0.13c-0.32-1.04-1.16-1.7-1.85-2.46c-6.08-6.79-12.17-13.57-18.25-20.36
			c-9.11-10.19-18.2-20.4-27.31-30.6c-5.64-6.32-11.31-12.63-16.95-18.95c-9.9-11.1-19.78-22.21-29.68-33.3
			c-6.12-6.86-12.28-13.69-18.4-20.54c-9.06-10.13-18.1-20.28-27.14-30.42c-4.63-5.19-9.21-10.42-13.89-15.57
			c-1.85-2.03-3.52-4.25-5.94-6.36c0,1.2,0,1.98,0,2.75c0,12.88,0.06,25.76-0.05,38.63c-0.02,2.26,0.63,3.91,2.12,5.56
			c5.14,5.7,10.18,11.49,15.23,17.27c8.53,9.74,17.04,19.51,25.57,29.25c7.32,8.36,14.67,16.69,21.99,25.06
			c9.48,10.83,18.92,21.68,28.4,32.51c7.43,8.48,14.88,16.93,22.31,25.41c0.53,0.61,1.25,1.18,1.31,2.14
			c-0.35,0.05-0.59,0.11-0.82,0.11c-17.84,0-35.67,0-53.51,0.03c-1.17,0-1.9-0.42-2.63-1.28c-3.86-4.59-7.77-9.13-11.67-13.69
			c-7.01-8.2-14.03-16.4-21.03-24.62c-8.66-10.16-17.3-20.34-25.95-30.5c-0.28-0.33-0.49-0.88-1.25-0.62c0,0.67,0,1.38,0,2.08
			c0,51.67,0,103.35,0.01,155.02c0,0.8,0.09,1.59,0.13,2.39c-0.05,2.4-0.16,4.79-0.16,7.19c-0.01,94.31,0,188.62-0.02,282.93
			c0,3.71,0.58,3.26-3.32,3.27c-11.2,0.02-22.4,0.01-33.59,0.01c-0.24,0-0.48,0-0.72,0c-2.94,0.01-2.59,0.08-2.59-2.58
			c0-65.99,0-131.99,0-197.98c0-28.56,0-57.11-0.01-85.67c0-2.4-0.08-4.8-0.13-7.19c0.04-0.96,0.11-1.91,0.11-2.87
			c0.01-17.84,0-35.68,0-53.52c0-33.6,0-67.2-0.01-100.8c0-0.81,0.21-1.69-0.25-2.51c-0.86,0.48-1.31,1.15-1.83,1.75
			c-8.58,9.81-17.16,19.62-25.73,29.43c-5.05,5.78-10.09,11.57-15.14,17.35c-6.11,6.98-12.24,13.94-18.33,20.93
			c-0.83,0.96-1.69,1.49-3.05,1.49c-17.12-0.05-34.24-0.03-51.36-0.04c-0.42,0-0.99,0.23-1.24-0.57c1.94-2.23,3.92-4.53,5.92-6.81
			c6.17-7.03,12.35-14.05,18.51-21.09c8.37-9.57,16.72-19.15,25.09-28.72c7.43-8.48,14.89-16.93,22.32-25.41
			c8.69-9.92,17.37-19.86,26.05-29.79c5.9-6.74,11.8-13.47,17.72-20.19c0.94-1.07,1.38-2.19,1.38-3.67
			c-0.06-13.44-0.03-26.88-0.04-40.32c0-0.58,0.17-1.23-0.43-2.07c-0.46,0.57-0.79,1.01-1.15,1.42
			c-5.27,6.01-10.54,12.03-15.83,18.02c-6.83,7.73-13.7,15.42-20.53,23.15c-9.32,10.54-18.62,21.1-27.92,31.66
			c-9.15,10.37-18.28,20.76-27.44,31.13c-8.1,9.17-16.24,18.3-24.34,27.46c-10.86,12.28-21.72,24.55-32.54,36.87
			c-2.63,3-5.44,5.84-7.8,9.07c-18.83,0-37.66,0-56.43,0c-0.34-1.07,0.38-1.38,0.76-1.81c10.02-11.5,20.06-22.98,30.08-34.48
			C103.28,353.73,103.97,352.75,104.7,351.81z"></path>
		<path class="st1" d="M326.5,479.59c-0.05-0.8-0.13-1.59-0.13-2.39c-0.01-51.67-0.01-103.35-0.01-155.02c0-0.71,0-1.41,0-2.08
			c0.76-0.25,0.98,0.3,1.25,0.62c8.66,10.16,17.3,20.34,25.95,30.5c7,8.21,14.02,16.41,21.03,24.62c3.89,4.56,7.81,9.1,11.67,13.69
			c0.73,0.86,1.46,1.28,2.63,1.28c17.84-0.03,35.67-0.02,53.51-0.03c0.24,0,0.47-0.06,0.82-0.11c-0.06-0.97-0.77-1.53-1.31-2.14
			c-7.42-8.48-14.88-16.93-22.31-25.41c-9.48-10.83-18.93-21.68-28.4-32.51c-7.32-8.36-14.67-16.7-21.99-25.06
			c-8.53-9.74-17.04-19.51-25.57-29.25c-5.06-5.77-10.09-11.57-15.23-17.27c-1.48-1.64-2.14-3.3-2.12-5.56
			c0.11-12.88,0.05-25.76,0.05-38.63c0-0.77,0-1.55,0-2.75c2.42,2.12,4.1,4.33,5.94,6.36c4.68,5.15,9.26,10.38,13.89,15.57
			c9.04,10.14,18.09,20.29,27.14,30.42c6.13,6.86,12.28,13.68,18.4,20.54c9.9,11.09,19.78,22.21,29.68,33.3
			c5.64,6.32,11.3,12.63,16.95,18.95c9.1,10.2,18.2,20.41,27.31,30.6c6.07,6.8,12.17,13.57,18.25,20.36
			c0.69,0.77,1.53,1.42,1.85,2.46c-1.78,3.15-4.22,5.8-6.5,8.57c-5.49,6.67-11.3,13.05-17.55,19.01
			c-12.02,11.45-25.09,21.5-39.3,30.1c-15.53,9.4-31.96,16.76-49.27,22.17c-9.99,3.12-20.15,5.52-30.5,7.14
			C337.28,478.5,331.94,479.4,326.5,479.59z"></path>
		<path class="st1" d="M128.09,390.91c2.36-3.23,5.17-6.08,7.8-9.07c10.81-12.32,21.68-24.59,32.54-36.87
			c8.1-9.16,16.24-18.3,24.34-27.46c9.16-10.36,18.29-20.75,27.44-31.13c9.31-10.55,18.61-21.11,27.92-31.66
			c6.83-7.73,13.7-15.42,20.53-23.15c5.29-5.99,10.56-12.01,15.83-18.02c0.36-0.41,0.69-0.85,1.15-1.42
			c0.6,0.83,0.43,1.48,0.43,2.07c0.01,13.44-0.01,26.88,0.04,40.32c0.01,1.48-0.44,2.6-1.38,3.67
			c-5.92,6.72-11.82,13.45-17.72,20.19c-8.69,9.93-17.36,19.87-26.05,29.79c-7.43,8.48-14.89,16.93-22.32,25.41
			c-8.37,9.56-16.72,19.15-25.09,28.72c-6.16,7.04-12.34,14.06-18.51,21.09c-2,2.28-3.98,4.57-5.92,6.81
			c0.25,0.8,0.82,0.57,1.24,0.57c17.12,0.01,34.24-0.01,51.36,0.04c1.37,0,2.22-0.53,3.05-1.49c6.09-6.99,12.22-13.95,18.33-20.93
			c5.05-5.78,10.09-11.57,15.14-17.35c8.57-9.81,17.15-19.63,25.73-29.43c0.52-0.59,0.97-1.27,1.83-1.75
			c0.46,0.82,0.25,1.69,0.25,2.51c0.01,33.6,0.01,67.2,0.01,100.8c0,17.84,0,35.68,0,53.52c0,0.96-0.07,1.91-0.11,2.87
			c-8.92-0.71-17.73-2.14-26.46-4.03c-12.98-2.82-25.61-6.74-37.89-11.82c-17.59-7.28-33.98-16.64-49.22-28.04
			c-10.91-8.17-20.86-17.39-30.14-27.34c-4.85-5.2-9.4-10.66-13.63-16.38C128.39,391.63,128.09,391.36,128.09,390.91z"></path>
	</g>
</g>
</svg></svg>