<svg width="582" height="512" viewBox="0 0 582 512" fill="none" xmlns="http://www.w3.org/2000/svg">
<g id="Frame 1">
<g id="Vector">
<mask id="path-1-inside-1" fill="white">
<path d="M468.378 195.731V196.666C468.378 196.923 468.378 197.194 468.378 197.465C468.378 197.737 468.378 198.114 468.378 198.43C468.378 199.2 468.378 199.938 468.278 200.753V201.235C468.278 201.884 468.206 202.532 468.148 203.165V203.723C468.155 203.824 468.155 203.924 468.148 204.025C468.148 204.613 468.062 205.201 468.005 205.789C467.947 206.377 467.904 206.724 467.861 207.207C467.732 208.368 467.588 209.529 467.416 210.69C467.316 211.459 467.201 212.198 467.086 212.982C467.079 213.037 467.079 213.093 467.086 213.148C467.014 213.525 466.957 213.902 466.885 214.294C466.813 214.686 466.813 214.731 466.77 214.957C466.727 215.183 466.77 215.349 466.655 215.56C466.54 215.772 466.512 216.375 466.425 216.767C466.339 217.159 466.267 217.566 466.181 217.973C466.095 218.38 466.066 218.561 465.995 218.863C465.923 219.164 465.779 219.873 465.664 220.371C465.658 220.4 465.658 220.431 465.664 220.461L465.406 221.502L465.104 222.768C464.975 223.281 464.832 223.794 464.702 224.276C464.702 224.427 464.702 224.548 464.588 224.683L464.157 226.191C463.697 227.79 463.195 229.388 462.721 230.971L462.204 232.479L461.903 233.309C458.45 242.766 453.736 251.661 447.903 259.727C447.559 260.24 447.185 260.738 446.826 261.235C444.095 264.943 441.146 268.469 437.996 271.791L291.184 425.991L144.386 271.791C140.172 267.36 136.329 262.558 132.899 257.435C130.732 254.218 128.738 250.875 126.926 247.423C116.995 228.519 112.627 206.945 114.377 185.432C114.535 183.457 114.75 181.481 115.009 179.521C115.468 176.053 116.1 172.6 116.875 169.177C117.033 168.483 117.206 167.79 117.378 167.111C117.464 166.764 117.55 166.402 117.636 166.071C117.723 165.739 117.737 165.648 117.794 165.437L118.225 163.929C118.57 162.738 118.914 161.547 119.288 160.356L119.819 158.727C120.594 156.42 121.427 154.203 122.346 151.881L122.906 150.539C123.193 149.86 123.48 149.182 123.782 148.503C124.27 147.418 124.772 146.332 125.218 145.261L125.347 145.02C125.576 144.522 125.821 144.055 126.065 143.512L126.912 141.868C127.271 141.19 127.644 140.511 128.017 139.833C128.19 139.516 128.376 139.199 128.549 138.868C128.721 138.536 128.764 138.521 128.864 138.325C128.867 138.29 128.867 138.254 128.864 138.219C129.094 137.827 129.324 137.435 129.568 137.043C129.812 136.651 130.099 136.153 130.372 135.716C130.975 134.736 131.593 133.756 132.224 132.791L132.899 131.78L133.746 130.559C134.033 130.122 134.335 129.7 134.651 129.277L135.742 127.769C136.087 127.332 136.417 126.88 136.747 126.442L137.106 125.99L137.838 125.055C138.212 124.573 138.599 124.105 138.987 123.638L139.49 123.019L139.576 122.914L140.452 121.888L141.428 120.758C142.347 119.717 143.294 118.677 144.3 117.742L145.434 116.566L147.2 114.816C147.588 114.439 147.975 114.062 148.377 113.7C148.779 113.339 149.296 112.826 149.813 112.404L150.732 111.589C151.034 111.303 151.349 111.031 151.651 110.775C152.268 110.232 152.9 109.704 153.517 109.267L154.465 108.483C156.044 107.216 157.638 105.995 159.275 104.819L160.251 104.125L161.242 103.447L162.175 102.813L163.611 101.909L164.3 101.471L165.306 100.853C166.655 100.024 168.005 99.2245 169.369 98.4705L170.187 98.0181L171.451 97.3396L172.499 96.7967L173.547 96.284L174.595 95.7562L175.658 95.2586L176.72 94.7761C178.156 94.1277 179.592 93.5245 181.028 92.9515L181.961 92.3483L183.11 91.911L184.129 91.5341L184.991 91.2325L186.972 90.569L187.992 90.2373L188.81 89.996L189.614 89.7547C190.093 89.6039 190.571 89.4682 191.05 89.3476L192.945 88.8349C194.898 88.3373 196.865 87.8849 198.832 87.5079L199.636 87.3571L200.756 87.1611L201.905 86.9651L203.34 86.7389L204.187 86.6182C206.083 86.3619 207.978 86.1508 209.931 86H210.95H211.582H212.4H213.118H213.391H214.353H215.487H220.039H221.173H222.121H222.422H223.14H223.27C223.729 86 224.203 86 224.705 86.0905H224.863H225.682C227.204 86.2111 228.726 86.377 230.233 86.5579L232.272 86.8444L233.708 87.0555L234.842 87.2516L235.977 87.4476L236.723 87.5833C238.685 87.9653 240.638 88.4026 242.581 88.8952L244.965 89.5436L245.625 89.7396L246.645 90.0412C247.305 90.2373 247.966 90.4333 248.612 90.6595L249.473 90.946C250.909 91.4084 252.345 91.911 253.781 92.4539L254.757 92.8309L256.035 93.3436L257.959 94.1578C258.706 94.4896 259.395 94.8213 260.156 95.1682L261.017 95.5602L262.195 96.1483L263.243 96.661L264.277 97.2038L265.583 97.8975L266.617 98.4705C267.421 98.9229 268.225 99.3752 269.015 99.8578L270.02 100.461C271.197 101.17 272.346 101.969 273.494 102.678L274.428 103.311L275.419 103.989L276.395 104.683L277.041 105.151C278.477 106.161 279.783 107.216 281.133 108.302L282.081 109.086C282.698 109.599 283.33 110.127 283.947 110.594C284.249 110.851 284.565 111.122 284.866 111.408L285.785 112.223L287.221 113.52C287.623 113.881 288.011 114.258 288.398 114.635L290.05 116.475L291.184 117.651L292.332 116.475L294.084 114.726C294.472 114.349 294.859 113.972 295.261 113.61C295.663 113.248 296.18 112.735 296.697 112.313L297.616 111.499C297.918 111.212 298.234 110.941 298.535 110.685C299.153 110.142 299.784 109.614 300.402 109.177L301.349 108.393C302.929 107.126 304.523 105.905 306.159 104.728L307.136 104.035L308.126 103.356L309.06 102.723L310.424 101.818L311.113 101.381L312.118 100.763C313.468 99.9332 314.817 99.134 316.181 98.38L317 97.9276L318.263 97.2491L319.311 96.7062L320.36 96.1935L321.408 95.6658L322.47 95.1682L323.533 94.6856C324.969 94.0372 326.404 93.434 327.84 92.861C328.185 92.7253 328.544 92.5745 328.903 92.4539L330.037 92.0166L331.071 91.6396L331.918 91.338L333.899 90.6745L334.919 90.3428L335.737 90.1015L336.541 89.8603C337.015 89.7095 337.489 89.5738 337.977 89.4531L339.858 88.9404C341.811 88.4428 343.778 87.9905 345.745 87.6135L346.549 87.4627L347.669 87.2666L348.818 87.0706L350.253 86.8444L351.1 86.7238C352.996 86.4675 354.891 86.2563 356.844 86.1056H357.863H358.495H359.313H360.017H360.304H361.252H362.386H366.938H368.072H369.02H369.321H370.039H370.053C370.513 86.1056 370.987 86.1056 371.489 86.196H371.647H372.465C373.987 86.3167 375.509 86.4825 377.017 86.6635L379.056 86.95L380.492 87.1611L381.626 87.3571L382.76 87.5532L383.507 87.6889C385.469 88.0709 387.422 88.5082 389.365 89.0008L391.748 89.6492L392.409 89.8452L393.428 90.1468C394.089 90.3428 394.749 90.5388 395.41 90.765L396.257 91.0515C397.693 91.519 399.129 92.0317 400.564 92.5594L401.526 92.9364L402.804 93.4491L404.728 94.2634C405.475 94.5951 406.164 94.9269 406.925 95.2737L407.787 95.6658L408.964 96.2539L410.012 96.7665L411.046 97.3094L412.353 98.003L413.401 98.5761C414.19 99.0284 414.994 99.4808 415.784 99.9633L416.789 100.567C417.967 101.275 419.13 102.074 420.264 102.783L421.197 103.416L422.188 104.095L423.164 104.789H423.236L423.882 105.256C425.318 106.266 426.625 107.322 427.974 108.408L428.922 109.192C429.539 109.704 430.171 110.232 430.788 110.7C431.09 110.956 431.406 111.227 431.707 111.514L432.626 112.328L433.818 113.444C434.22 113.821 434.622 114.198 435.01 114.59L435.685 115.239C435.722 115.27 435.755 115.305 435.785 115.344C436.173 115.706 436.546 116.098 436.934 116.475L437.451 117.003C437.652 117.229 437.853 117.44 438.068 117.651L439.202 118.873C439.777 119.491 440.351 120.124 440.911 120.773C441.241 121.135 441.571 121.512 441.887 121.888C442.433 122.522 442.964 123.155 443.495 123.804L445.19 125.93C447.128 128.433 448.937 130.996 450.646 133.62L451.335 134.721C451.593 135.113 451.823 135.505 452.067 135.897L452.685 136.907C453.029 137.495 453.374 138.068 453.704 138.657L454.609 140.285C454.795 140.617 454.982 140.949 455.154 141.28L455.571 142.064L455.987 142.849L456.59 144.04L457.179 145.231C458.528 148.006 459.754 150.836 460.854 153.721L461.328 154.942C461.773 156.133 462.19 157.31 462.592 158.516L462.951 159.602C463.109 160.114 463.281 160.627 463.425 161.109C463.568 161.592 463.712 162.029 463.841 162.497L464.099 163.371C464.229 163.794 464.343 164.216 464.458 164.638C464.573 165.06 464.731 165.678 464.875 166.146C465.09 166.99 465.291 167.835 465.492 168.694L465.794 170.021C465.937 170.655 466.066 171.288 466.196 171.921C466.196 172.193 466.296 172.464 466.354 172.736C466.411 173.007 466.497 173.459 466.555 173.821C466.612 174.183 466.67 174.394 466.713 174.681L466.842 175.405C466.842 175.631 466.842 175.857 466.957 176.083C467.072 176.309 466.957 176.52 467.057 176.747L467.273 178.104C467.273 178.556 467.387 179.008 467.459 179.461C467.531 179.913 467.588 180.471 467.646 180.969C467.703 181.466 467.761 181.934 467.804 182.477L467.89 183.306C467.89 183.804 467.99 184.301 468.034 184.814C468.034 185.055 468.034 185.312 468.034 185.553C468.034 186.066 468.12 186.578 468.148 187.061C468.156 187.095 468.156 187.132 468.148 187.166C468.148 187.483 468.148 187.8 468.148 188.116V189.112C468.148 189.654 468.148 190.197 468.22 190.74C468.22 191.298 468.22 191.841 468.22 192.414C468.392 193.59 468.392 194.661 468.378 195.731Z"/>
</mask>
<path d="M468.378 195.731V196.666C468.378 196.923 468.378 197.194 468.378 197.465C468.378 197.737 468.378 198.114 468.378 198.43C468.378 199.2 468.378 199.938 468.278 200.753V201.235C468.278 201.884 468.206 202.532 468.148 203.165V203.723C468.155 203.824 468.155 203.924 468.148 204.025C468.148 204.613 468.062 205.201 468.005 205.789C467.947 206.377 467.904 206.724 467.861 207.207C467.732 208.368 467.588 209.529 467.416 210.69C467.316 211.459 467.201 212.198 467.086 212.982C467.079 213.037 467.079 213.093 467.086 213.148C467.014 213.525 466.957 213.902 466.885 214.294C466.813 214.686 466.813 214.731 466.77 214.957C466.727 215.183 466.77 215.349 466.655 215.56C466.54 215.772 466.512 216.375 466.425 216.767C466.339 217.159 466.267 217.566 466.181 217.973C466.095 218.38 466.066 218.561 465.995 218.863C465.923 219.164 465.779 219.873 465.664 220.371C465.658 220.4 465.658 220.431 465.664 220.461L465.406 221.502L465.104 222.768C464.975 223.281 464.832 223.794 464.702 224.276C464.702 224.427 464.702 224.548 464.588 224.683L464.157 226.191C463.697 227.79 463.195 229.388 462.721 230.971L462.204 232.479L461.903 233.309C458.45 242.766 453.736 251.661 447.903 259.727C447.559 260.24 447.185 260.738 446.826 261.235C444.095 264.943 441.146 268.469 437.996 271.791L291.184 425.991L144.386 271.791C140.172 267.36 136.329 262.558 132.899 257.435C130.732 254.218 128.738 250.875 126.926 247.423C116.995 228.519 112.627 206.945 114.377 185.432C114.535 183.457 114.75 181.481 115.009 179.521C115.468 176.053 116.1 172.6 116.875 169.177C117.033 168.483 117.206 167.79 117.378 167.111C117.464 166.764 117.55 166.402 117.636 166.071C117.723 165.739 117.737 165.648 117.794 165.437L118.225 163.929C118.57 162.738 118.914 161.547 119.288 160.356L119.819 158.727C120.594 156.42 121.427 154.203 122.346 151.881L122.906 150.539C123.193 149.86 123.48 149.182 123.782 148.503C124.27 147.418 124.772 146.332 125.218 145.261L125.347 145.02C125.576 144.522 125.821 144.055 126.065 143.512L126.912 141.868C127.271 141.19 127.644 140.511 128.017 139.833C128.19 139.516 128.376 139.199 128.549 138.868C128.721 138.536 128.764 138.521 128.864 138.325C128.867 138.29 128.867 138.254 128.864 138.219C129.094 137.827 129.324 137.435 129.568 137.043C129.812 136.651 130.099 136.153 130.372 135.716C130.975 134.736 131.593 133.756 132.224 132.791L132.899 131.78L133.746 130.559C134.033 130.122 134.335 129.7 134.651 129.277L135.742 127.769C136.087 127.332 136.417 126.88 136.747 126.442L137.106 125.99L137.838 125.055C138.212 124.573 138.599 124.105 138.987 123.638L139.49 123.019L139.576 122.914L140.452 121.888L141.428 120.758C142.347 119.717 143.294 118.677 144.3 117.742L145.434 116.566L147.2 114.816C147.588 114.439 147.975 114.062 148.377 113.7C148.779 113.339 149.296 112.826 149.813 112.404L150.732 111.589C151.034 111.303 151.349 111.031 151.651 110.775C152.268 110.232 152.9 109.704 153.517 109.267L154.465 108.483C156.044 107.216 157.638 105.995 159.275 104.819L160.251 104.125L161.242 103.447L162.175 102.813L163.611 101.909L164.3 101.471L165.306 100.853C166.655 100.024 168.005 99.2245 169.369 98.4705L170.187 98.0181L171.451 97.3396L172.499 96.7967L173.547 96.284L174.595 95.7562L175.658 95.2586L176.72 94.7761C178.156 94.1277 179.592 93.5245 181.028 92.9515L181.961 92.3483L183.11 91.911L184.129 91.5341L184.991 91.2325L186.972 90.569L187.992 90.2373L188.81 89.996L189.614 89.7547C190.093 89.6039 190.571 89.4682 191.05 89.3476L192.945 88.8349C194.898 88.3373 196.865 87.8849 198.832 87.5079L199.636 87.3571L200.756 87.1611L201.905 86.9651L203.34 86.7389L204.187 86.6182C206.083 86.3619 207.978 86.1508 209.931 86H210.95H211.582H212.4H213.118H213.391H214.353H215.487H220.039H221.173H222.121H222.422H223.14H223.27C223.729 86 224.203 86 224.705 86.0905H224.863H225.682C227.204 86.2111 228.726 86.377 230.233 86.5579L232.272 86.8444L233.708 87.0555L234.842 87.2516L235.977 87.4476L236.723 87.5833C238.685 87.9653 240.638 88.4026 242.581 88.8952L244.965 89.5436L245.625 89.7396L246.645 90.0412C247.305 90.2373 247.966 90.4333 248.612 90.6595L249.473 90.946C250.909 91.4084 252.345 91.911 253.781 92.4539L254.757 92.8309L256.035 93.3436L257.959 94.1578C258.706 94.4896 259.395 94.8213 260.156 95.1682L261.017 95.5602L262.195 96.1483L263.243 96.661L264.277 97.2038L265.583 97.8975L266.617 98.4705C267.421 98.9229 268.225 99.3752 269.015 99.8578L270.02 100.461C271.197 101.17 272.346 101.969 273.494 102.678L274.428 103.311L275.419 103.989L276.395 104.683L277.041 105.151C278.477 106.161 279.783 107.216 281.133 108.302L282.081 109.086C282.698 109.599 283.33 110.127 283.947 110.594C284.249 110.851 284.565 111.122 284.866 111.408L285.785 112.223L287.221 113.52C287.623 113.881 288.011 114.258 288.398 114.635L290.05 116.475L291.184 117.651L292.332 116.475L294.084 114.726C294.472 114.349 294.859 113.972 295.261 113.61C295.663 113.248 296.18 112.735 296.697 112.313L297.616 111.499C297.918 111.212 298.234 110.941 298.535 110.685C299.153 110.142 299.784 109.614 300.402 109.177L301.349 108.393C302.929 107.126 304.523 105.905 306.159 104.728L307.136 104.035L308.126 103.356L309.06 102.723L310.424 101.818L311.113 101.381L312.118 100.763C313.468 99.9332 314.817 99.134 316.181 98.38L317 97.9276L318.263 97.2491L319.311 96.7062L320.36 96.1935L321.408 95.6658L322.47 95.1682L323.533 94.6856C324.969 94.0372 326.404 93.434 327.84 92.861C328.185 92.7253 328.544 92.5745 328.903 92.4539L330.037 92.0166L331.071 91.6396L331.918 91.338L333.899 90.6745L334.919 90.3428L335.737 90.1015L336.541 89.8603C337.015 89.7095 337.489 89.5738 337.977 89.4531L339.858 88.9404C341.811 88.4428 343.778 87.9905 345.745 87.6135L346.549 87.4627L347.669 87.2666L348.818 87.0706L350.253 86.8444L351.1 86.7238C352.996 86.4675 354.891 86.2563 356.844 86.1056H357.863H358.495H359.313H360.017H360.304H361.252H362.386H366.938H368.072H369.02H369.321H370.039H370.053C370.513 86.1056 370.987 86.1056 371.489 86.196H371.647H372.465C373.987 86.3167 375.509 86.4825 377.017 86.6635L379.056 86.95L380.492 87.1611L381.626 87.3571L382.76 87.5532L383.507 87.6889C385.469 88.0709 387.422 88.5082 389.365 89.0008L391.748 89.6492L392.409 89.8452L393.428 90.1468C394.089 90.3428 394.749 90.5388 395.41 90.765L396.257 91.0515C397.693 91.519 399.129 92.0317 400.564 92.5594L401.526 92.9364L402.804 93.4491L404.728 94.2634C405.475 94.5951 406.164 94.9269 406.925 95.2737L407.787 95.6658L408.964 96.2539L410.012 96.7665L411.046 97.3094L412.353 98.003L413.401 98.5761C414.19 99.0284 414.994 99.4808 415.784 99.9633L416.789 100.567C417.967 101.275 419.13 102.074 420.264 102.783L421.197 103.416L422.188 104.095L423.164 104.789H423.236L423.882 105.256C425.318 106.266 426.625 107.322 427.974 108.408L428.922 109.192C429.539 109.704 430.171 110.232 430.788 110.7C431.09 110.956 431.406 111.227 431.707 111.514L432.626 112.328L433.818 113.444C434.22 113.821 434.622 114.198 435.01 114.59L435.685 115.239C435.722 115.27 435.755 115.305 435.785 115.344C436.173 115.706 436.546 116.098 436.934 116.475L437.451 117.003C437.652 117.229 437.853 117.44 438.068 117.651L439.202 118.873C439.777 119.491 440.351 120.124 440.911 120.773C441.241 121.135 441.571 121.512 441.887 121.888C442.433 122.522 442.964 123.155 443.495 123.804L445.19 125.93C447.128 128.433 448.937 130.996 450.646 133.62L451.335 134.721C451.593 135.113 451.823 135.505 452.067 135.897L452.685 136.907C453.029 137.495 453.374 138.068 453.704 138.657L454.609 140.285C454.795 140.617 454.982 140.949 455.154 141.28L455.571 142.064L455.987 142.849L456.59 144.04L457.179 145.231C458.528 148.006 459.754 150.836 460.854 153.721L461.328 154.942C461.773 156.133 462.19 157.31 462.592 158.516L462.951 159.602C463.109 160.114 463.281 160.627 463.425 161.109C463.568 161.592 463.712 162.029 463.841 162.497L464.099 163.371C464.229 163.794 464.343 164.216 464.458 164.638C464.573 165.06 464.731 165.678 464.875 166.146C465.09 166.99 465.291 167.835 465.492 168.694L465.794 170.021C465.937 170.655 466.066 171.288 466.196 171.921C466.196 172.193 466.296 172.464 466.354 172.736C466.411 173.007 466.497 173.459 466.555 173.821C466.612 174.183 466.67 174.394 466.713 174.681L466.842 175.405C466.842 175.631 466.842 175.857 466.957 176.083C467.072 176.309 466.957 176.52 467.057 176.747L467.273 178.104C467.273 178.556 467.387 179.008 467.459 179.461C467.531 179.913 467.588 180.471 467.646 180.969C467.703 181.466 467.761 181.934 467.804 182.477L467.89 183.306C467.89 183.804 467.99 184.301 468.034 184.814C468.034 185.055 468.034 185.312 468.034 185.553C468.034 186.066 468.12 186.578 468.148 187.061C468.156 187.095 468.156 187.132 468.148 187.166C468.148 187.483 468.148 187.8 468.148 188.116V189.112C468.148 189.654 468.148 190.197 468.22 190.74C468.22 191.298 468.22 191.841 468.22 192.414C468.392 193.59 468.392 194.661 468.378 195.731Z" fill="#FF6584" stroke="black" stroke-width="20" mask="url(#path-1-inside-1)"/>
</g>
<g id="algorand 2">
<path id="Vector_2" d="M242.11 300L262.283 262.935L282.457 226L302.507 188.935L305.828 183.062L307.304 188.935L313.455 213.34L306.566 226L286.393 262.935L266.342 300H290.452L310.626 262.935L321.081 243.75L326.002 262.935L335.35 300H357L347.651 262.935L338.303 226L335.842 216.473L350.85 188.935H328.954L328.216 186.194L320.589 155.915L319.605 152H298.571L298.079 152.783L278.397 188.935L258.224 226L238.173 262.935L218 300H242.11Z" fill="black"/>
</g>
</g>
</svg>
