<svg width="1406" height="1052" viewBox="0 0 1406 1052" fill="none" xmlns="http://www.w3.org/2000/svg">
<g id="Mission 1">
<g id="comTree">
<path id="Desc" d="M802.166 669.36L796.565 669.664L789.518 667.236L789.229 657.868L792.3 651.382L797.396 649.562L801.299 651.913L799.348 657.261L798.227 656.654L799.348 653.127L797.938 651.913L793.71 653.999L791.758 658.702L792.3 665.492L796.565 667.236L801.299 666.402L802.166 669.36ZM809.636 652.103L806.456 656.427L807.142 663.899L811.154 667.881L813.864 667.843L817.261 660.864L815.743 654.303L813.322 652.406L809.636 652.103ZM814.551 649.562L818.382 653.279L819.827 661.964L814.732 670.346L809.672 670.574L804.36 663.861L803.962 655.213L808.48 649.562H814.551ZM853.835 665.112L849.317 669.512L846.354 668.943L846.029 653.81L843.824 652.368L838.62 656.199L838.909 657.754L839.271 667.426L841.078 668.336L840.897 669.247L834.284 669.436L834.428 668.45L836.235 667.54L836.018 654.72L834.537 652.293L831.284 653.923L827.779 657.565L828.104 667.464L830.381 668.26L830.2 669.626L823.334 669.55L823.225 668.488L824.851 667.805L825.104 652.899L822.358 650.965L823.948 648.158L827.02 650.737L827.237 654.606L831.971 650.662L837.536 650.851L838.187 654.416L843.933 650.662L847.727 651.344L849.064 654.416L848.522 666.857L849.498 666.933L852.245 663.102L853.835 665.112ZM872.839 643L872.296 647.172L870.309 646.603V645.124H864.31L865.141 667.805L866.912 668.374V669.853L859.503 669.588V668.64L862.033 667.805L861.744 645.124H859.756L856.106 645.693V647.172L853.793 647.476L853.504 643H858.889H872.839ZM886.713 653.886L884.508 655.858L882.593 652.937L879.666 653.961L878.798 655.972L878.943 667.35L881.075 668.071L880.858 669.398H874.462L874.353 668.374L876.052 667.654L876.016 652.482L874.245 651.42L875.799 649.334L878.437 651.117L878.654 652.406L880.497 651.648L884.147 650.699L886.713 653.886ZM892.351 659.347L900.808 657.944L899.796 652.975L897.375 652.027L892.641 653.696L892.315 659.499L892.351 659.347ZM899.688 650.434L902.579 653.089L903.627 659.613L892.315 661.509L894.267 667.54L898.531 667.426L903.591 665.833L903.88 668.829L893.689 670.346L889.243 663.443L889.749 653.696L894.592 650.017L899.688 650.434ZM910.597 659.347L919.054 657.944L918.042 652.975L915.621 652.027L910.887 653.696L910.561 659.499L910.597 659.347ZM917.934 650.434L920.825 653.089L921.873 659.613L910.561 661.509L912.513 667.54L916.777 667.426L921.837 665.833L922.126 668.829L911.935 670.346L907.49 663.443L907.995 653.696L912.838 650.017L917.934 650.434ZM944.828 670.005L937.6 670.081L937.419 668.981L939.335 668.185L939.479 652.141L936.841 651.193L936.588 650.244L944.105 649.789L944.466 650.548L942.262 651.837L942.117 668.147L944.683 668.943L944.828 670.005ZM939.877 647.362L938.648 644.783L940.13 643.303L942.443 643.607L942.623 646.148L939.877 647.362ZM954.521 649.713L958.577 651.458L960.022 649.979L961.568 651.117L958.828 654.985L957.523 653.696L951.6 652.217L949.682 654.568L952.172 658.247L959.44 660.144L960.454 666.592L955.685 669.702L949.321 668.185L948.458 669.74L946.646 669.398L947.875 665.416L955.244 667.236L957.523 665.454L956.659 662.268L948.92 659.499L946.826 654.985L948.558 650.775L954.521 649.713ZM983.141 659.689L979.095 662.533L978.985 666.781L980.43 667.578C980.912 667.552 981.364 667.527 981.776 667.502C982.107 667.477 982.408 667.451 982.679 667.426C982.96 667.375 983.111 667.325 983.111 667.274C983.111 667.274 983.161 667.198 983.251 667.047C983.352 666.895 983.472 666.705 983.613 666.478C983.783 666.225 983.964 665.959 984.155 665.681C984.345 665.378 984.556 665.074 984.767 664.771C985.249 664.063 985.821 663.254 986.474 662.344L986.213 659.575L983.141 659.689ZM980.832 649.448L989.003 651.458L989.144 667.047L992.216 667.274L992.256 669.019L987.769 669.474L986.253 666.136L984.376 669.247L978.262 670.46L976.023 667.616L976.174 661.851L982.348 657.64L986.182 657.109L986.474 652.975L980.43 652.141L978.664 655.365L976.676 653.165L977.037 652.217L980.832 649.448ZM1008.8 656.692L1011.51 660.599L1016.71 661.509L1018.96 657.034L1017.61 653.544L1012.48 652.71L1009.99 653.923L1008.8 656.692ZM1009.74 662.419L1009.02 666.667L1016.53 667.085L1019.03 667.35L1020.68 672.66L1007.9 676.036L1005.98 671.295L1008.51 671.902L1008.69 673.988L1017.83 670.726L1017.29 669.55L1007.17 668.298L1006.2 665.643L1007.72 660.675L1006.38 658.968L1006.49 654.72L1010.1 650.813L1016.07 650.699L1016.75 651.268L1021.45 648.045L1021.85 649.827L1018.49 652.558L1019.32 653.203L1021.74 656.351L1019.03 663.595L1011.08 663.481L1009.74 662.419ZM1037.2 653.886L1034.99 655.858L1033.07 652.937L1030.15 653.961L1029.28 655.972L1029.43 667.35L1031.56 668.071L1031.35 669.398H1024.94L1024.84 668.374L1026.54 667.654L1026.5 652.482L1024.73 651.42L1026.29 649.334L1028.92 651.117L1029.14 652.406L1030.98 651.648L1034.63 650.699L1037.2 653.886ZM1045.75 659.689L1041.71 662.533L1041.6 666.781L1043.04 667.578C1043.52 667.552 1043.97 667.527 1044.38 667.502C1044.72 667.477 1045.02 667.451 1045.28 667.426C1045.57 667.375 1045.72 667.325 1045.72 667.274C1045.72 667.274 1045.76 667.198 1045.86 667.047C1045.96 666.895 1046.08 666.705 1046.22 666.478C1046.39 666.225 1046.57 665.959 1046.77 665.681C1046.96 665.378 1047.17 665.074 1047.38 664.771C1047.86 664.063 1048.43 663.254 1049.07 662.344L1048.82 659.575L1045.75 659.689ZM1043.44 649.448L1051.6 651.458L1051.75 667.047L1054.83 667.274L1054.86 669.019L1050.38 669.474L1048.86 666.136L1046.99 669.247L1040.87 670.46L1038.63 667.616L1038.77 661.851L1044.96 657.64L1048.79 657.109L1049.07 652.975L1043.04 652.141L1041.27 655.365L1039.29 653.165L1039.65 652.217L1043.44 649.448ZM1064.53 649.713L1068.58 651.458L1070.02 649.979L1071.58 651.117L1068.83 654.985L1067.52 653.696L1061.6 652.217L1059.68 654.568L1062.18 658.247L1069.44 660.144L1070.46 666.592L1065.69 669.702L1059.32 668.185L1058.46 669.74L1056.65 669.398L1057.88 665.416L1065.26 667.236L1067.52 665.454L1066.66 662.268L1058.93 659.499L1056.83 654.985L1058.57 650.775L1064.53 649.713ZM1081.61 649.713L1085.65 651.458L1087.1 649.979L1088.66 651.117L1085.92 654.985L1084.61 653.696L1078.69 652.217L1076.77 654.568L1079.26 658.247L1086.53 660.144L1087.54 666.592L1082.76 669.702L1076.41 668.185L1075.54 669.74L1073.73 669.398L1074.96 665.416L1082.33 667.236L1084.61 665.454L1083.75 662.268L1076.01 659.499L1073.91 654.985L1075.65 650.775L1081.61 649.713ZM1104 653.886L1101.8 655.858L1099.88 652.937L1096.96 653.961L1096.08 655.972L1096.23 667.35L1098.36 668.071L1098.15 669.398H1091.75L1091.65 668.374L1093.34 667.654L1093.3 652.482L1091.54 651.42L1093.09 649.334L1095.72 651.117L1095.94 652.406L1097.79 651.648L1101.43 650.699L1104 653.886ZM1111.48 652.103L1108.3 656.427L1108.99 663.899L1113 667.881L1115.71 667.843L1119.11 660.864L1117.6 654.303L1115.17 652.406L1111.48 652.103ZM1116.4 649.562L1120.23 653.279L1121.67 661.964L1116.58 670.346L1111.52 670.574L1106.21 663.861L1105.81 655.213L1110.33 649.562H1116.4ZM1129.52 652.103L1126.34 656.427L1127.02 663.899L1131.04 667.881L1133.75 667.843L1137.14 660.864L1135.63 654.303L1133.21 652.406L1129.52 652.103ZM1134.43 649.562L1138.27 653.279L1139.71 661.964L1134.61 670.346L1129.55 670.574L1124.24 663.861L1123.85 655.213L1128.37 649.562H1134.43ZM1153.58 668.336L1147.66 669.512L1144.84 666.592V662.685V652.899L1143.1 653.203L1141.7 653.544L1141.45 651.724L1144.01 650.851H1144.52V647.286L1144.01 646.072H1147.08L1147.37 649.372V650.586L1152.43 649.941V652.899L1147.37 652.634V665.112L1149.07 667.123L1153.58 666.25V668.336ZM1163.31 649.713L1167.36 651.458L1168.8 649.979L1170.36 651.117L1167.61 654.985L1166.31 653.696L1160.38 652.217L1158.46 654.568L1160.96 658.247L1168.22 660.144L1169.23 666.592L1164.47 669.702L1158.1 668.185L1157.24 669.74L1155.43 669.398L1156.66 665.416L1164.03 667.236L1166.31 665.454L1165.44 662.268L1157.71 659.499L1155.61 654.985L1157.35 650.775L1163.31 649.713ZM1215.92 665.112L1211.41 669.512L1208.45 668.943L1208.12 653.81L1205.92 652.368L1200.72 656.199L1201 657.754L1201.36 667.426L1203.17 668.336L1202.98 669.247L1196.38 669.436L1196.52 668.45L1198.33 667.54L1198.11 654.72L1196.63 652.293L1193.38 653.923L1189.87 657.565L1190.2 667.464L1192.47 668.26L1192.29 669.626L1185.43 669.55L1185.32 668.488L1186.94 667.805L1187.19 652.899L1184.45 650.965L1186.04 648.158L1189.11 650.737L1189.33 654.606L1194.06 650.662L1199.63 650.851L1200.27 654.416L1206.03 650.662L1209.82 651.344L1211.16 654.416L1210.61 666.857L1211.59 666.933L1214.34 663.102L1215.92 665.112ZM1224.17 670.005L1216.94 670.081L1216.76 668.981L1218.66 668.185L1218.82 652.141L1216.18 651.193L1215.92 650.244L1223.44 649.789L1223.8 650.548L1221.6 651.837L1221.46 668.147L1224.02 668.943L1224.17 670.005ZM1219.21 647.362L1217.98 644.783L1219.47 643.303L1221.78 643.607L1221.96 646.148L1219.21 647.362ZM1233.86 649.713L1237.91 651.458L1239.35 649.979L1240.91 651.117L1238.16 654.985L1236.85 653.696L1230.93 652.217L1229.01 654.568L1231.51 658.247L1238.77 660.144L1239.79 666.592L1235.02 669.702L1228.65 668.185L1227.79 669.74L1225.98 669.398L1227.21 665.416L1234.59 667.236L1236.85 665.454L1235.99 662.268L1228.26 659.499L1226.16 654.985L1227.9 650.775L1233.86 649.713ZM1250.94 649.713L1254.98 651.458L1256.43 649.979L1257.99 651.117L1255.23 654.985L1253.94 653.696L1248.01 652.217L1246.1 654.568L1248.59 658.247L1255.86 660.144L1256.86 666.592L1252.09 669.702L1245.74 668.185L1244.87 669.74L1243.06 669.398L1244.29 665.416L1251.66 667.236L1253.94 665.454L1253.07 662.268L1245.34 659.499L1243.24 654.985L1244.98 650.775L1250.94 649.713ZM1268.39 670.005L1261.16 670.081L1260.98 668.981L1262.88 668.185L1263.03 652.141L1260.39 651.193L1260.14 650.244L1267.66 649.789L1268.02 650.548L1265.82 651.837L1265.67 668.147L1268.23 668.943L1268.39 670.005ZM1263.43 647.362L1262.2 644.783L1263.69 643.303L1266 643.607L1266.18 646.148L1263.43 647.362ZM1275.87 652.103L1272.69 656.427L1273.38 663.899L1277.39 667.881L1280.1 667.843L1283.5 660.864L1281.98 654.303L1279.56 652.406L1275.87 652.103ZM1280.79 649.562L1284.62 653.279L1286.06 661.964L1280.97 670.346L1275.91 670.574L1270.59 663.861L1270.2 655.213L1274.72 649.562H1280.79ZM1310.68 666.819L1304.64 670.005L1302.48 668.829V657.299L1301.35 653.848L1298.6 653.544L1294.45 659.878V667.654L1296.4 668.26L1296.11 669.702L1289.54 669.398L1289.25 668.564L1291.16 667.654V653.848L1288.74 652.406L1290.62 649.789L1293.94 653.544L1294.45 657.034L1298.06 650.965L1302.73 651.231L1305.47 656.427L1304.9 666.554L1305.47 667.085L1308.76 664.505L1310.68 666.819ZM800.287 698.629L796.059 696.96L792.192 698.287L791.252 705.721L794.469 711.297L796.529 710.804L800.106 706.859L800.287 698.629ZM801.444 713.572L799.962 710.121L797.577 713.497L792.084 713.155L788.434 705.494L790.602 696.618L795.842 694.419L800.685 696.505L800.865 687.022L803.142 684.178L805.166 685.922L803.648 687.25L803.034 711.41L806.503 710.728L807.226 713.079L801.444 713.572ZM812.134 703.597L820.59 702.194L819.578 697.225L817.157 696.277L812.423 697.946L812.097 703.749L812.134 703.597ZM819.47 694.684L822.361 697.339L823.409 703.863L812.097 705.759L814.049 711.79L818.313 711.676L823.373 710.083L823.662 713.079L813.471 714.596L809.026 707.693L809.532 697.946L814.374 694.267L819.47 694.684ZM834.427 693.963L838.475 695.708L839.92 694.229L841.474 695.367L838.728 699.235L837.427 697.946L831.5 696.467L829.585 698.818L832.078 702.497L839.342 704.394L840.354 710.842L835.584 713.952L829.223 712.435L828.356 713.99L826.549 713.648L827.778 709.666L835.15 711.486L837.427 709.704L836.559 706.518L828.826 703.749L826.73 699.235L828.464 695.025L834.427 693.963ZM851.869 714.255L844.641 714.331L844.461 713.231L846.376 712.435L846.521 696.391L843.882 695.443L843.629 694.494L851.146 694.039L851.508 694.798L849.303 696.087L849.159 712.397L851.725 713.193L851.869 714.255ZM846.918 691.612L845.689 689.033L847.171 687.553L849.484 687.857L849.665 690.398L846.918 691.612ZM856.868 700.942L859.579 704.849L864.783 705.759L867.023 701.284L865.686 697.794L860.554 696.96L858.061 698.173L856.868 700.942ZM857.808 706.669L857.085 710.917L864.602 711.335L867.096 711.6L868.758 716.91L855.965 720.286L854.049 715.545L856.579 716.152L856.76 718.238L865.903 714.976L865.361 713.8L855.242 712.548L854.266 709.893L855.784 704.925L854.447 703.218L854.555 698.97L858.169 695.063L864.132 694.949L864.819 695.518L869.517 692.295L869.914 694.077L866.553 696.808L867.385 697.453L869.806 700.601L867.096 707.845L859.145 707.731L857.808 706.669ZM894.517 711.069L888.482 714.255L886.313 713.079V701.549L885.193 698.098L882.446 697.794L878.29 704.128V711.904L880.242 712.51L879.953 713.952L873.376 713.648L873.087 712.814L875.002 711.904V698.098L872.581 696.656L874.46 694.039L877.785 697.794L878.29 701.284L881.904 695.215L886.566 695.481L889.313 700.677L888.735 710.804L889.313 711.335L892.601 708.755L894.517 711.069ZM898.951 703.597L907.407 702.194L906.395 697.225L903.974 696.277L899.24 697.946L898.915 703.749L898.951 703.597ZM906.287 694.684L909.178 697.339L910.226 703.863L898.915 705.759L900.866 711.79L905.13 711.676L910.19 710.083L910.479 713.079L900.288 714.596L895.843 707.693L896.349 697.946L901.191 694.267L906.287 694.684ZM925.22 698.629L920.991 696.96L917.124 698.287L916.185 705.721L919.401 711.297L921.461 710.804L925.039 706.859L925.22 698.629ZM926.376 713.572L924.894 710.121L922.509 713.497L917.016 713.155L913.366 705.494L915.534 696.618L920.775 694.419L925.617 696.505L925.798 687.022L928.075 684.178L930.098 685.922L928.58 687.25L927.966 711.41L931.435 710.728L932.158 713.079L926.376 713.572ZM956.519 712.586L950.596 713.762L947.775 710.842V706.935V697.149L946.039 697.453L944.63 697.794L944.377 695.974L946.943 695.101H947.454V691.536L946.943 690.322H950.014L950.305 693.622V694.836L955.364 694.191V697.149L950.305 696.884V709.362L952.001 711.373L956.519 710.5V712.586ZM964.038 696.353L960.855 700.677L961.548 708.149L965.553 712.131L968.264 712.093L971.667 705.114L970.141 698.553L967.722 696.656L964.038 696.353ZM968.956 693.812L972.781 697.529L974.227 706.214L969.137 714.596L964.078 714.824L958.757 708.111L958.366 699.463L962.883 693.812H968.956ZM1002.9 704.28L1000.91 698.173L996.863 697.604L993.109 699.008L993.32 708.831L997.084 710.349L1001.88 708.111L1002.9 704.28ZM1006.19 704.963L1002.42 711.828L996.612 713.004L992.958 711.259L993.139 719.793L995.559 720.665L995.418 722.144L988.12 722.106L987.969 720.969L990.218 720.02L989.997 696.315L988.772 695.86L989.997 693.357L993.139 695.063L992.888 696.58L996.683 695.101L1002.87 695.177L1006.19 704.963ZM1021.56 698.136L1019.36 700.108L1017.44 697.187L1014.51 698.211L1013.65 700.222L1013.79 711.6L1015.93 712.321L1015.71 713.648H1009.31L1009.2 712.624L1010.9 711.904L1010.87 696.732L1009.09 695.67L1010.65 693.584L1013.29 695.367L1013.51 696.656L1015.34 695.898L1019 694.949L1021.56 698.136ZM1029.05 696.353L1025.86 700.677L1026.55 708.149L1030.56 712.131L1033.27 712.093L1036.67 705.114L1035.15 698.553L1032.73 696.656L1029.05 696.353ZM1033.96 693.812L1037.79 697.529L1039.24 706.214L1034.14 714.596L1029.08 714.824L1023.77 708.111L1023.38 699.463L1027.89 693.812H1033.96ZM1073.25 709.362L1068.73 713.762L1065.76 713.193L1065.44 698.06L1063.23 696.618L1058.03 700.449L1058.32 702.004L1058.68 711.676L1060.49 712.586L1060.31 713.497L1053.69 713.686L1053.83 712.7L1055.64 711.79L1055.43 698.97L1053.94 696.543L1050.69 698.173L1047.19 701.815L1047.51 711.714L1049.79 712.51L1049.61 713.876L1042.74 713.8L1042.63 712.738L1044.26 712.055L1044.52 697.149L1041.77 695.215L1043.35 692.408L1046.42 694.987L1046.64 698.856L1051.38 694.912L1056.94 695.101L1057.6 698.666L1063.34 694.912L1067.13 695.594L1068.47 698.666L1067.93 711.107L1068.91 711.183L1071.65 707.352L1073.25 709.362ZM1078.91 696.353L1075.73 700.677L1076.42 708.149L1080.42 712.131L1083.13 712.093L1086.54 705.114L1085.02 698.553L1082.59 696.656L1078.91 696.353ZM1083.83 693.812L1087.65 697.529L1089.1 706.214L1084.01 714.596L1078.95 714.824L1073.64 708.111L1073.24 699.463L1077.75 693.812H1083.83ZM1102.98 712.586L1097.06 713.762L1094.24 710.842V706.935V697.149L1092.5 697.453L1091.1 697.794L1090.83 695.974L1093.4 695.101H1093.91V691.536L1093.4 690.322H1096.48L1096.77 693.622V694.836L1101.83 694.191V697.149L1096.77 696.884V709.362L1098.46 711.373L1102.98 710.5V712.586ZM1108.65 703.597L1117.11 702.194L1116.1 697.225L1113.68 696.277L1108.94 697.946L1108.62 703.749L1108.65 703.597ZM1115.99 694.684L1118.88 697.339L1119.93 703.863L1108.62 705.759L1110.57 711.79L1114.84 711.676L1119.9 710.083L1120.19 713.079L1109.99 714.596L1105.55 707.693L1106.05 697.946L1110.89 694.267L1115.99 694.684ZM1148.37 713.61L1142.77 713.914L1135.73 711.486L1135.44 702.118L1138.51 695.632L1143.61 693.812L1147.51 696.163L1145.55 701.511L1144.44 700.904L1145.55 697.377L1144.15 696.163L1139.92 698.249L1137.96 702.952L1138.51 709.742L1142.77 711.486L1147.51 710.652L1148.37 713.61ZM1155.84 696.353L1152.67 700.677L1153.35 708.149L1157.37 712.131L1160.08 712.093L1163.47 705.114L1161.96 698.553L1159.54 696.656L1155.84 696.353ZM1160.76 693.812L1164.6 697.529L1166.04 706.214L1160.94 714.596L1155.88 714.824L1150.57 708.111L1150.17 699.463L1154.69 693.812H1160.76ZM1200.04 709.362L1195.53 713.762L1192.56 713.193L1192.24 698.06L1190.03 696.618L1184.83 700.449L1185.12 702.004L1185.48 711.676L1187.28 712.586L1187.1 713.497L1180.5 713.686L1180.64 712.7L1182.45 711.79L1182.22 698.97L1180.75 696.543L1177.5 698.173L1173.99 701.815L1174.31 711.714L1176.59 712.51L1176.41 713.876L1169.55 713.8L1169.44 712.738L1171.06 712.055L1171.31 697.149L1168.57 695.215L1170.16 692.408L1173.23 694.987L1173.45 698.856L1178.18 694.912L1183.75 695.101L1184.39 698.666L1190.15 694.912L1193.94 695.594L1195.27 698.666L1194.73 711.107L1195.71 711.183L1198.46 707.352L1200.04 709.362ZM1231.88 709.362L1227.36 713.762L1224.4 713.193L1224.08 698.06L1221.87 696.618L1216.67 700.449L1216.96 702.004L1217.32 711.676L1219.13 712.586L1218.95 713.497L1212.33 713.686L1212.47 712.7L1214.28 711.79L1214.07 698.97L1212.58 696.543L1209.33 698.173L1205.83 701.815L1206.15 711.714L1208.43 712.51L1208.24 713.876L1201.38 713.8L1201.27 712.738L1202.89 712.055L1203.14 697.149L1200.4 695.215L1201.99 692.408L1205.06 694.987L1205.28 698.856L1210.01 694.912L1215.58 695.101L1216.24 698.666L1221.98 694.912L1225.77 695.594L1227.11 698.666L1226.56 711.107L1227.54 711.183L1230.29 707.352L1231.88 709.362ZM1253.2 711.714L1247.89 714.369L1245.86 713.8L1245.21 711.6L1244.73 708.983L1238.34 714.331L1234.59 712.966L1233.5 708.49L1233.39 696.808L1231.88 696.125L1231.99 695.215L1238.45 695.063L1238.27 696.429L1236.39 697.225V707.921L1237.73 711.297L1240.08 709.931L1244.45 707.39L1245.03 696.846L1243.44 696.087L1243.55 695.063H1249.25L1249.43 696.353L1247.56 697.111L1247.45 711.183L1247.99 712.131L1251.6 708.831L1253.2 711.714ZM1275.98 711.069L1269.95 714.255L1267.78 713.079V701.549L1266.66 698.098L1263.92 697.794L1259.76 704.128V711.904L1261.71 712.51L1261.42 713.952L1254.84 713.648L1254.55 712.814L1256.47 711.904V698.098L1254.05 696.656L1255.93 694.039L1259.25 697.794L1259.76 701.284L1263.38 695.215L1268.03 695.481L1270.78 700.677L1270.2 710.804L1270.78 711.335L1274.07 708.755L1275.98 711.069ZM1284.83 714.255L1277.6 714.331L1277.42 713.231L1279.34 712.435L1279.48 696.391L1276.84 695.443L1276.59 694.494L1284.11 694.039L1284.47 694.798L1282.26 696.087L1282.12 712.397L1284.69 713.193L1284.83 714.255ZM1279.88 691.612L1278.64 689.033L1280.13 687.553L1282.44 687.857L1282.62 690.398L1279.88 691.612ZM1298.35 712.586L1292.43 713.762L1289.61 710.842V706.935V697.149L1287.87 697.453L1286.46 697.794L1286.21 695.974L1288.77 695.101H1289.29V691.536L1288.77 690.322H1291.85L1292.14 693.622V694.836L1297.2 694.191V697.149L1292.14 696.884V709.362L1293.83 711.373L1298.35 710.5V712.586ZM1315.52 696.163L1307.86 719.338L1303.7 721.196L1299.18 718.731L1300.16 716.227L1303.95 718.731L1305.94 718.162L1306.99 715.052L1307.93 711.714L1306.05 712.776L1301.17 696.922L1299.54 696.77L1299.11 695.177L1303.85 694.722L1305.48 702.573L1308.22 710.879L1312.71 696.011L1311.04 695.481L1311.08 694.494L1317.29 694.456L1317.5 695.405L1315.52 696.163ZM800.143 756.836L794.216 758.012L791.397 755.092V751.185V741.399L789.662 741.703L788.253 742.044L788 740.224L790.566 739.351H791.072V735.786L790.566 734.572H793.638L793.927 737.872V739.086L798.986 738.441V741.399L793.927 741.134V753.612L795.625 755.623L800.143 754.75V756.836ZM815.176 742.386L812.972 744.358L811.056 741.437L808.129 742.461L807.262 744.472L807.406 755.85L809.539 756.571L809.322 757.898H802.925L802.817 756.874L804.515 756.154L804.479 740.982L802.708 739.92L804.262 737.834L806.901 739.617L807.117 740.906L808.96 740.148L812.61 739.199L815.176 742.386ZM820.815 747.847L829.271 746.444L828.259 741.475L825.838 740.527L821.104 742.196L820.779 747.999L820.815 747.847ZM828.151 738.934L831.042 741.589L832.09 748.113L820.779 750.009L822.73 756.04L826.995 755.926L832.054 754.333L832.343 757.329L822.152 758.846L817.707 751.943L818.213 742.196L823.055 738.517L828.151 738.934ZM839.061 747.847L847.517 746.444L846.506 741.475L844.084 740.527L839.35 742.196L839.025 747.999L839.061 747.847ZM846.397 738.934L849.288 741.589L850.336 748.113L839.025 750.009L840.976 756.04L845.241 755.926L850.3 754.333L850.589 757.329L840.398 758.846L835.953 751.943L836.459 742.196L841.302 738.517L846.397 738.934ZM872.894 748.189L868.846 751.033L868.738 755.281L870.183 756.078C870.665 756.052 871.111 756.027 871.521 756.002C871.858 755.977 872.159 755.951 872.424 755.926C872.713 755.875 872.858 755.825 872.858 755.774C872.858 755.774 872.906 755.698 873.002 755.547C873.099 755.395 873.219 755.205 873.364 754.978C873.532 754.725 873.713 754.459 873.906 754.181C874.098 753.878 874.303 753.574 874.52 753.271C875.002 752.563 875.568 751.754 876.219 750.844L875.966 748.075L872.894 748.189ZM870.581 737.948L878.748 739.958L878.893 755.547L881.965 755.774L882.001 757.519L877.519 757.974L876.002 754.636L874.122 757.747L868.015 758.96L865.774 756.116L865.919 750.351L872.099 746.14L875.929 745.609L876.219 741.475L870.183 740.641L868.413 743.865L866.425 741.665L866.786 740.717L870.581 737.948ZM899.837 755.888L903.053 740.413L901.21 739.617L901.319 738.517L907.101 739.199L906.956 740.299L905.366 740.565L901.5 758.771H898.102L895.067 745.382L894.958 744.547H894.886L894.814 745.344L891.995 758.543H888.67L884.225 740.489L882.707 739.92V738.82H888.49V739.92L886.9 740.489L890.007 755.623L890.369 755.698L894.019 739.92L895.898 740.034L899.584 755.888H899.837ZM914.926 748.189L910.879 751.033L910.77 755.281L912.216 756.078C912.698 756.052 913.143 756.027 913.553 756.002C913.89 755.977 914.191 755.951 914.456 755.926C914.745 755.875 914.89 755.825 914.89 755.774C914.89 755.774 914.938 755.698 915.034 755.547C915.131 755.395 915.251 755.205 915.396 754.978C915.564 754.725 915.745 754.459 915.938 754.181C916.131 753.878 916.335 753.574 916.552 753.271C917.034 752.563 917.6 751.754 918.251 750.844L917.998 748.075L914.926 748.189ZM912.613 737.948L920.781 739.958L920.925 755.547L923.997 755.774L924.033 757.519L919.552 757.974L918.034 754.636L916.155 757.747L910.047 758.96L907.807 756.116L907.951 750.351L914.131 746.14L917.962 745.609L918.251 741.475L912.216 740.641L910.445 743.865L908.457 741.665L908.819 740.717L912.613 737.948ZM939.014 742.386L936.81 744.358L934.895 741.437L931.967 742.461L931.1 744.472L931.245 755.85L933.377 756.571L933.16 757.898H926.764L926.655 756.874L928.354 756.154L928.317 740.982L926.547 739.92L928.101 737.834L930.739 739.617L930.956 740.906L932.799 740.148L936.449 739.199L939.014 742.386ZM944.654 747.847L953.106 746.444L952.102 741.475L949.672 740.527L944.943 742.196L944.618 747.999L944.654 747.847ZM951.991 738.934L954.882 741.589L955.926 748.113L944.618 750.009L946.569 756.04L950.837 755.926L955.896 754.333L956.177 757.329L945.991 758.846L941.546 751.943L942.052 742.196L946.895 738.517L951.991 738.934ZM981.515 755.319L975.471 758.505L973.303 757.329V745.799L972.189 742.348L969.438 742.044L965.282 748.378V756.154L967.24 756.76L966.949 758.202L960.373 757.898L960.082 757.064L962 756.154V742.348L959.57 740.906L961.458 738.289L964.78 742.044L965.282 745.534L968.896 739.465L973.564 739.731L976.305 744.927L975.732 755.054L976.305 755.585L979.597 753.005L981.515 755.319ZM985.942 747.847L994.404 746.444L993.39 741.475L990.971 740.527L986.233 742.196L985.911 747.999L985.942 747.847ZM993.28 738.934L996.171 741.589L997.225 748.113L985.911 750.009L987.859 756.04L992.125 755.926L997.185 754.333L997.476 757.329L987.287 758.846L982.84 751.943L983.342 742.196L988.19 738.517L993.28 738.934ZM1008.24 738.213L1012.28 739.958L1013.73 738.479L1015.28 739.617L1012.54 743.485L1011.24 742.196L1005.32 740.717L1003.4 743.068L1005.89 746.747L1013.16 748.644L1014.17 755.092L1009.39 758.202L1003.04 756.685L1002.16 758.24L1000.36 757.898L1001.59 753.916L1008.96 755.736L1011.24 753.954L1010.38 750.768L1002.64 747.999L1000.54 743.485L1002.27 739.275L1008.24 738.213ZM1025.32 738.213L1029.37 739.958L1030.81 738.479L1032.37 739.617L1029.62 743.485L1028.31 742.196L1022.39 740.717L1020.47 743.068L1022.97 746.747L1030.23 748.644L1031.25 755.092L1026.48 758.202L1020.11 756.685L1019.25 758.24L1017.44 757.898L1018.67 753.916L1026.05 755.736L1028.31 753.954L1027.45 750.768L1019.72 747.999L1017.62 743.485L1019.36 739.275L1025.32 738.213ZM1037.31 753.461L1039.55 755.433L1038.31 758.846L1035.71 762.26L1034.52 761.957L1037.02 758.202L1035.28 757.86L1034.81 754.599L1037.31 753.461ZM1061.18 738.213L1065.23 739.958L1066.67 738.479L1068.23 739.617L1065.48 743.485L1064.17 742.196L1058.25 740.717L1056.33 743.068L1058.83 746.747L1066.09 748.644L1067.1 755.092L1062.33 758.202L1055.97 756.685L1055.11 758.24L1053.3 757.898L1054.52 753.916L1061.9 755.736L1064.17 753.954L1063.31 750.768L1055.58 747.999L1053.48 743.485L1055.22 739.275L1061.18 738.213ZM1082.09 756.836L1076.16 758.012L1073.35 755.092V751.185V741.399L1071.61 741.703L1070.19 742.044L1069.94 740.224L1072.51 739.351H1073.02V735.786L1072.51 734.572H1075.59L1075.88 737.872V739.086L1080.94 738.441V741.399L1075.88 741.134V753.612L1077.57 755.623L1082.09 754.75V756.836ZM1087.76 747.847L1096.21 746.444L1095.21 741.475L1092.78 740.527L1088.05 742.196L1087.72 747.999L1087.76 747.847ZM1095.1 738.934L1097.99 741.589L1099.04 748.113L1087.72 750.009L1089.68 756.04L1093.95 755.926L1099.01 754.333L1099.29 757.329L1089.1 758.846L1084.65 751.943L1085.16 742.196L1090 738.517L1095.1 738.934ZM1118.22 755.888L1121.44 740.413L1119.59 739.617L1119.7 738.517L1125.49 739.199L1125.35 740.299L1123.75 740.565L1119.89 758.771H1116.49L1113.45 745.382L1113.34 744.547H1113.27L1113.2 745.344L1110.38 758.543H1107.06L1102.61 740.489L1101.09 739.92V738.82H1106.88V739.92L1105.29 740.489L1108.39 755.623L1108.75 755.698L1112.41 739.92L1114.28 740.034L1117.97 755.888H1118.22ZM1133.31 748.189L1129.26 751.033L1129.15 755.281L1130.6 756.078C1131.08 756.052 1131.53 756.027 1131.94 756.002C1132.27 755.977 1132.57 755.951 1132.85 755.926C1133.13 755.875 1133.28 755.825 1133.28 755.774C1133.28 755.774 1133.33 755.698 1133.42 755.547C1133.52 755.395 1133.64 755.205 1133.78 754.978C1133.95 754.725 1134.13 754.459 1134.32 754.181C1134.51 753.878 1134.72 753.574 1134.93 753.271C1135.42 752.563 1135.99 751.754 1136.64 750.844L1136.38 748.075L1133.31 748.189ZM1131 737.948L1139.17 739.958L1139.31 755.547L1142.38 755.774L1142.42 757.519L1137.93 757.974L1136.42 754.636L1134.54 757.747L1128.43 758.96L1126.19 756.116L1126.34 750.351L1132.51 746.14L1136.35 745.609L1136.64 741.475L1130.6 740.641L1128.83 743.865L1126.84 741.665L1127.2 740.717L1131 737.948ZM1157.4 742.386L1155.19 744.358L1153.28 741.437L1150.35 742.461L1149.49 744.472L1149.63 755.85L1151.76 756.571L1151.55 757.898H1145.15L1145.04 756.874L1146.74 756.154L1146.7 740.982L1144.93 739.92L1146.49 737.834L1149.13 739.617L1149.34 740.906L1151.19 740.148L1154.83 739.199L1157.4 742.386ZM1171.06 742.879L1166.84 741.21L1162.97 742.537L1162.03 749.971L1165.24 755.547L1167.31 755.054L1170.88 751.109L1171.06 742.879ZM1172.22 757.822L1170.74 754.371L1168.35 757.747L1162.86 757.405L1159.21 749.744L1161.37 740.868L1166.61 738.669L1171.46 740.755L1171.64 731.272L1173.91 728.428L1175.94 730.172L1174.42 731.5L1173.81 755.66L1177.28 754.978L1178 757.329L1172.22 757.822ZM1186.95 738.213L1191 739.958L1192.44 738.479L1194 739.617L1191.26 743.485L1189.95 742.196L1184.03 740.717L1182.11 743.068L1184.6 746.747L1191.87 748.644L1192.89 755.092L1188.11 758.202L1181.75 756.685L1180.88 758.24L1179.07 757.898L1180.31 753.916L1187.68 755.736L1189.95 753.954L1189.09 750.768L1181.35 747.999L1179.25 743.485L1180.99 739.275L1186.95 738.213ZM1215.91 754.485L1211.69 759.036L1208.66 757.633L1208.25 744.396L1205.77 741.475L1200.63 746.444V756.267L1203.27 757.102L1203.49 758.202L1196.44 758.24L1196.22 757.102L1197.59 756.533L1198.14 734.079L1195.79 731.917L1198.5 729.983L1200.85 733.889L1200.44 743.903L1204.24 738.517L1209.02 739.996L1211.22 744.282L1210.71 756.343L1211.47 756.874L1213.97 752.702L1215.91 754.485ZM1224.52 758.505L1217.29 758.581L1217.11 757.481L1219.03 756.685L1219.17 740.641L1216.53 739.693L1216.28 738.744L1223.79 738.289L1224.16 739.048L1221.95 740.337L1221.81 756.647L1224.37 757.443L1224.52 758.505ZM1219.57 735.862L1218.33 733.283L1219.82 731.803L1222.13 732.107L1222.31 734.648L1219.57 735.862ZM1241.26 748.53L1239.27 742.423L1235.22 741.854L1231.46 743.258L1231.68 753.081L1235.44 754.599L1240.25 752.361L1241.26 748.53ZM1244.54 749.213L1240.79 756.078L1234.97 757.254L1231.32 755.509L1231.5 764.043L1233.92 764.915L1233.77 766.394L1226.47 766.356L1226.33 765.219L1228.57 764.27L1228.35 740.565L1227.13 740.11L1228.35 737.607L1231.5 739.313L1231.24 740.83L1235.04 739.351L1241.22 739.427L1244.54 749.213ZM1249.51 753.461L1251.75 755.433L1250.53 758.846L1247.93 762.26L1246.73 761.957L1249.22 758.202L1247.5 757.86L1247.02 754.599L1249.51 753.461ZM800.287 787.129L796.059 785.46L792.192 786.787L791.252 794.221L794.469 799.797L796.529 799.304L800.106 795.359L800.287 787.129ZM801.444 802.072L799.962 798.621L797.577 801.997L792.084 801.655L788.434 793.994L790.602 785.118L795.842 782.919L800.685 785.005L800.865 775.522L803.142 772.678L805.166 774.422L803.648 775.75L803.034 799.91L806.503 799.228L807.226 801.579L801.444 802.072ZM813.977 784.853L810.796 789.177L811.483 796.649L815.494 800.631L818.205 800.593L821.602 793.614L820.084 787.053L817.663 785.156L813.977 784.853ZM818.892 782.312L822.722 786.029L824.168 794.714L819.072 803.096L814.013 803.324L808.7 796.611L808.303 787.963L812.82 782.312H818.892ZM840.07 802.11L834.468 802.414L827.421 799.986L827.132 790.618L830.204 784.132L835.299 782.312L839.202 784.663L837.251 790.011L836.131 789.404L837.251 785.877L835.842 784.663L831.613 786.749L829.662 791.452L830.204 798.242L834.468 799.986L839.202 799.152L840.07 802.11ZM863.188 800.214L857.875 802.869L855.851 802.3L855.201 800.1L854.731 797.483L848.334 802.831L844.576 801.466L843.492 796.99L843.383 785.308L841.866 784.625L841.974 783.715L848.443 783.563L848.262 784.929L846.383 785.725V796.421L847.72 799.797L850.069 798.431L854.442 795.89L855.02 785.346L853.43 784.587L853.538 783.563H859.248L859.429 784.853L857.55 785.611L857.441 799.683L857.984 800.631L861.597 797.331L863.188 800.214ZM895.373 797.862L890.856 802.262L887.892 801.693L887.567 786.56L885.363 785.118L880.159 788.949L880.448 790.504L880.809 800.176L882.616 801.086L882.435 801.997L875.822 802.186L875.967 801.2L877.774 800.29L877.557 787.47L876.075 785.042L872.823 786.673L869.317 790.315L869.642 800.214L871.919 801.01L871.737 802.376L864.872 802.3L864.764 801.238L866.39 800.555L866.643 785.649L863.896 783.715L865.486 780.908L868.558 783.487L868.775 787.356L873.509 783.412L879.074 783.601L879.725 787.166L885.471 783.412L889.266 784.094L890.603 787.166L890.061 799.607L891.036 799.683L893.783 795.852L895.373 797.862ZM899.198 792.097L907.654 790.694L906.642 785.725L904.221 784.777L899.487 786.446L899.162 792.249L899.198 792.097ZM906.534 783.184L909.425 785.839L910.473 792.363L899.162 794.259L901.113 800.29L905.377 800.176L910.437 798.583L910.726 801.579L900.535 803.096L896.09 796.193L896.596 786.446L901.438 782.767L906.534 783.184ZM936.055 799.569L930.02 802.755L927.852 801.579V790.049L926.731 786.598L923.985 786.294L919.829 792.628V800.404L921.78 801.01L921.491 802.452L914.914 802.148L914.625 801.314L916.54 800.404V786.598L914.119 785.156L915.998 782.539L919.323 786.294L919.829 789.784L923.443 783.715L928.105 783.98L930.851 789.177L930.273 799.304L930.851 799.835L934.14 797.255L936.055 799.569ZM948.367 801.086L942.441 802.262L939.622 799.342V795.435V785.649L937.887 785.953L936.478 786.294L936.225 784.474L938.791 783.601H939.297V780.036L938.791 778.822H941.862L942.152 782.122V783.336L947.213 782.691V785.649L942.152 785.384V797.862L943.85 799.873L948.367 799V801.086ZM958.055 792.439L954.009 795.283L953.899 799.531L955.344 800.328C955.826 800.302 956.268 800.277 956.679 800.252C957.021 800.227 957.322 800.201 957.583 800.176C957.874 800.125 958.014 800.075 958.014 800.024C958.014 800.024 958.065 799.948 958.165 799.797C958.255 799.645 958.376 799.455 958.526 799.228C958.687 798.975 958.868 798.709 959.068 798.431C959.259 798.128 959.46 797.824 959.681 797.521C960.163 796.813 960.725 796.004 961.377 795.094L961.126 792.325L958.055 792.439ZM955.736 782.198L963.907 784.208L964.048 799.797L967.119 800.024L967.159 801.769L962.682 802.224L961.156 798.886L959.279 801.997L953.176 803.21L950.937 800.366L951.078 794.601L957.262 790.39L961.086 789.859L961.377 785.725L955.344 784.891L953.567 788.115L951.58 785.915L951.941 784.967L955.736 782.198ZM980.661 801.086L974.729 802.262L971.918 799.342V795.435V785.649L970.181 785.953L968.766 786.294L968.515 784.474L971.085 783.601H971.587V780.036L971.085 778.822H974.156L974.447 782.122V783.336L979.507 782.691V785.649L974.447 785.384V797.862L976.144 799.873L980.661 799V801.086ZM990.74 802.755L983.512 802.831L983.332 801.731L985.249 800.935L985.389 784.891L982.759 783.943L982.498 782.994L990.017 782.539L990.379 783.298L988.18 784.587L988.03 800.897L990.599 801.693L990.74 802.755ZM985.791 780.112L984.566 777.533L986.042 776.053L988.361 776.357L988.542 778.898L985.791 780.112ZM998.239 784.853L995.057 789.177L995.739 796.649L999.755 800.631L1002.47 800.593L1005.86 793.614L1004.34 787.053L1001.92 785.156L998.239 784.853ZM1003.15 782.312L1006.98 786.029L1008.43 794.714L1003.33 803.096L998.269 803.324L992.958 796.611L992.557 787.963L997.074 782.312H1003.15ZM1033.03 799.569L1027 802.755L1024.83 801.579V790.049L1023.72 786.598L1020.97 786.294L1016.81 792.628V800.404L1018.76 801.01L1018.48 802.452L1011.89 802.148L1011.61 801.314L1013.52 800.404V786.598L1011.1 785.156L1012.98 782.539L1016.31 786.294L1016.81 789.784L1020.42 783.715L1025.08 783.98L1027.83 789.177L1027.25 799.304L1027.83 799.835L1031.12 797.255L1033.03 799.569ZM1036.43 797.711L1038.66 799.683L1037.44 803.096L1034.83 806.51L1033.64 806.207L1036.13 802.452L1034.4 802.11L1033.93 798.848L1036.43 797.711ZM1060.26 792.439L1056.21 795.283L1056.1 799.531L1057.55 800.328C1058.03 800.302 1058.47 800.277 1058.88 800.252C1059.22 800.227 1059.52 800.201 1059.78 800.176C1060.08 800.125 1060.22 800.075 1060.22 800.024C1060.22 800.024 1060.27 799.948 1060.37 799.797C1060.46 799.645 1060.58 799.455 1060.73 799.228C1060.9 798.975 1061.08 798.709 1061.27 798.431C1061.46 798.128 1061.66 797.824 1061.88 797.521C1062.36 796.813 1062.93 796.004 1063.58 795.094L1063.33 792.325L1060.26 792.439ZM1057.95 782.198L1066.11 784.208L1066.26 799.797L1069.33 800.024L1069.36 801.769L1064.88 802.224L1063.37 798.886L1061.48 801.997L1055.38 803.21L1053.14 800.366L1053.28 794.601L1059.46 790.39L1063.29 789.859L1063.58 785.725L1057.55 784.891L1055.78 788.115L1053.79 785.915L1054.15 784.967L1057.95 782.198ZM1093.59 799.569L1087.56 802.755L1085.39 801.579V790.049L1084.27 786.598L1081.53 786.294L1077.37 792.628V800.404L1079.32 801.01L1079.03 802.452L1072.45 802.148L1072.16 801.314L1074.08 800.404V786.598L1071.66 785.156L1073.54 782.539L1076.86 786.294L1077.37 789.784L1080.99 783.715L1085.64 783.98L1088.39 789.177L1087.81 799.304L1088.39 799.835L1091.68 797.255L1093.59 799.569ZM1106.05 787.129L1101.83 785.46L1097.96 786.787L1097.02 794.221L1100.24 799.797L1102.3 799.304L1105.87 795.359L1106.05 787.129ZM1107.21 802.072L1105.73 798.621L1103.34 801.997L1097.85 801.655L1094.2 793.994L1096.37 785.118L1101.61 782.919L1106.45 785.005L1106.63 775.522L1108.91 772.678L1110.93 774.422L1109.42 775.75L1108.8 799.91L1112.27 799.228L1112.99 801.579L1107.21 802.072ZM1129.47 792.097L1137.93 790.694L1136.92 785.725L1134.5 784.777L1129.76 786.446L1129.44 792.249L1129.47 792.097ZM1136.81 783.184L1139.7 785.839L1140.76 792.363L1129.44 794.259L1131.39 800.29L1135.66 800.176L1140.72 798.583L1141.01 801.579L1130.82 803.096L1126.37 796.193L1126.87 786.446L1131.72 782.767L1136.81 783.184ZM1155.74 787.129L1151.52 785.46L1147.65 786.787L1146.71 794.221L1149.93 799.797L1151.99 799.304L1155.56 795.359L1155.74 787.129ZM1156.9 802.072L1155.42 798.621L1153.03 801.997L1147.54 801.655L1143.89 793.994L1146.06 785.118L1151.3 782.919L1156.14 785.005L1156.33 775.522L1158.6 772.678L1160.62 774.422L1159.11 775.75L1158.49 799.91L1161.96 799.228L1162.68 801.579L1156.9 802.072ZM1185.09 800.214L1179.77 802.869L1177.75 802.3L1177.1 800.1L1176.62 797.483L1170.23 802.831L1166.47 801.466L1165.39 796.99L1165.28 785.308L1163.76 784.625L1163.86 783.715L1170.34 783.563L1170.16 784.929L1168.28 785.725V796.421L1169.62 799.797L1171.97 798.431L1176.33 795.89L1176.91 785.346L1175.33 784.587L1175.43 783.563H1181.14L1181.32 784.853L1179.44 785.611L1179.33 799.683L1179.88 800.631L1183.49 797.331L1185.09 800.214ZM1199.16 802.11L1193.56 802.414L1186.51 799.986L1186.22 790.618L1189.29 784.132L1194.39 782.312L1198.3 784.663L1196.34 790.011L1195.22 789.404L1196.34 785.877L1194.93 784.663L1190.71 786.749L1188.75 791.452L1189.29 798.242L1193.56 799.986L1198.3 799.152L1199.16 802.11ZM1208.8 792.439L1204.75 795.283L1204.64 799.531L1206.09 800.328C1206.57 800.302 1207.02 800.277 1207.43 800.252C1207.76 800.227 1208.06 800.201 1208.33 800.176C1208.62 800.125 1208.77 800.075 1208.77 800.024C1208.77 800.024 1208.82 799.948 1208.91 799.797C1209.01 799.645 1209.13 799.455 1209.27 799.228C1209.44 798.975 1209.62 798.709 1209.81 798.431C1210 798.128 1210.21 797.824 1210.42 797.521C1210.9 796.813 1211.48 796.004 1212.13 795.094L1211.87 792.325L1208.8 792.439ZM1206.49 782.198L1214.66 784.208L1214.8 799.797L1217.87 800.024L1217.91 801.769L1213.42 802.224L1211.91 798.886L1210.03 801.997L1203.92 803.21L1201.68 800.366L1201.83 794.601L1208 790.39L1211.84 789.859L1212.13 785.725L1206.09 784.891L1204.32 788.115L1202.33 785.915L1202.69 784.967L1206.49 782.198ZM1231.4 801.086L1225.48 802.262L1222.66 799.342V795.435V785.649L1220.92 785.953L1219.52 786.294L1219.27 784.474L1221.83 783.601H1222.34V780.036L1221.83 778.822H1224.9L1225.19 782.122V783.336L1230.25 782.691V785.649L1225.19 785.384V797.862L1226.89 799.873L1231.4 799V801.086ZM1241.49 802.755L1234.26 802.831L1234.08 801.731L1236 800.935L1236.14 784.891L1233.5 783.943L1233.25 782.994L1240.77 782.539L1241.13 783.298L1238.92 784.587L1238.78 800.897L1241.34 801.693L1241.49 802.755ZM1236.54 780.112L1235.31 777.533L1236.79 776.053L1239.1 776.357L1239.28 778.898L1236.54 780.112ZM1248.98 784.853L1245.8 789.177L1246.49 796.649L1250.5 800.631L1253.21 800.593L1256.61 793.614L1255.08 787.053L1252.67 785.156L1248.98 784.853ZM1253.9 782.312L1257.72 786.029L1259.17 794.714L1254.08 803.096L1249.02 803.324L1243.7 796.611L1243.31 787.963L1247.83 782.312H1253.9ZM1283.78 799.569L1277.75 802.755L1275.58 801.579V790.049L1274.46 786.598L1271.72 786.294L1267.56 792.628V800.404L1269.51 801.01L1269.22 802.452L1262.64 802.148L1262.35 801.314L1264.27 800.404V786.598L1261.85 785.156L1263.73 782.539L1267.05 786.294L1267.56 789.784L1271.18 783.715L1275.83 783.98L1278.58 789.177L1278 799.304L1278.58 799.835L1281.87 797.255L1283.78 799.569ZM1286.19 797.824L1288.97 798.583L1289.04 802.034L1285.9 802.755L1284.39 799.91L1286.19 797.824Z" fill="black"/>
<g id="Comtree">
<path id="com" d="M169.875 163.361L158.672 163.968L144.578 159.113L144 140.377L150.144 127.405L160.335 123.764L168.141 128.467L164.238 139.163L161.997 137.949L164.238 130.894L161.419 128.467L152.962 132.639L149.059 142.045L150.144 155.624L158.672 159.113L168.141 157.444L169.875 163.361ZM184.815 128.846L178.454 137.494L179.827 152.438L187.85 160.403L193.271 160.327L200.065 146.369L197.029 133.246L192.187 129.453L184.815 128.846ZM194.644 123.764L202.306 131.198L205.197 148.569L195.006 165.334L184.887 165.789L174.262 152.362L173.467 135.067L182.502 123.764H194.644ZM273.211 154.865L264.176 163.665L258.249 162.527L257.599 132.26L253.19 129.377L242.782 137.039L243.36 140.149L244.083 159.493L247.697 161.313L247.336 163.134L234.109 163.513L234.398 161.541L238.012 159.72L237.578 134.08L234.615 129.226L228.11 132.487L221.099 139.77L221.749 159.568L226.303 161.161L225.941 163.892L212.209 163.741L211.992 161.617L215.244 160.251L215.75 130.439L210.257 126.571L213.437 120.957L219.581 126.115L220.015 133.853L229.483 125.964L240.614 126.343L241.915 133.474L253.407 125.964L260.996 127.329L263.67 133.474L262.586 158.355L264.538 158.506L270.031 150.845L273.211 154.865Z" fill="black"/>
<path id="ree" d="M339.446 131.358L335.037 135.303L331.206 129.462L325.352 131.51L323.617 135.53L323.906 158.287L328.171 159.729L327.737 162.384H314.944L314.727 160.335L318.124 158.894L318.052 128.551L314.51 126.427L317.618 122.255L322.895 125.82L323.328 128.4L327.014 126.882L334.314 124.986L339.446 131.358ZM350.724 142.281L367.637 139.475L365.613 129.537L360.771 127.641L351.303 130.979L350.652 142.585L350.724 142.281ZM365.397 124.455L371.179 129.765L373.275 142.812L350.652 146.605L354.555 158.667L363.084 158.439L373.203 155.253L373.781 161.246L353.399 164.28L344.508 150.474L345.52 130.979L355.206 123.621L365.397 124.455ZM387.215 142.281L404.128 139.475L402.104 129.537L397.262 127.641L387.794 130.979L387.143 142.585L387.215 142.281ZM401.888 124.455L407.67 129.765L409.766 142.812L387.143 146.605L391.046 158.667L399.575 158.439L409.694 155.253L410.272 161.246L389.89 164.28L380.999 150.474L382.011 130.979L391.697 123.621L401.888 124.455Z" fill="black"/>
<g id="Comtreesym">
<g id="Layer 1">
<g id="Group">
<path id="Vector" d="M258.29 108.033C258.073 107.835 258.002 107.569 257.882 107.332C256.825 105.252 256.051 103.092 255.551 100.861C255.322 99.8435 255.166 98.8153 255.048 97.7817C254.884 96.3246 254.866 94.8654 254.934 93.4073C254.993 92.1398 255.173 90.8798 255.424 89.626C255.76 87.9561 256.248 86.3241 256.887 84.7248C257.729 82.6177 258.831 80.6169 260.175 78.7163C261.115 77.3846 262.163 76.1203 263.327 74.9319C264.489 73.7434 265.748 72.6372 267.105 71.6099C269.637 69.6946 272.423 68.1258 275.46 66.8942C278.074 65.8343 280.8 65.0662 283.634 64.5868C284.768 64.394 285.912 64.2581 287.059 64.1454C287.525 64.099 287.997 64.0769 288.465 64.0664C289.062 64.0527 289.657 64 290.255 64C291.427 64 292.594 64.0474 293.758 64.1454C296.215 64.3508 298.629 64.7617 300.99 65.4023C302.913 65.9238 304.774 66.577 306.567 67.3714C308.854 68.3829 310.986 69.5997 312.974 71.0105C314.298 71.9492 315.525 72.9775 316.687 74.0637C317.69 75.0024 318.605 76.0097 319.459 77.0569C320.575 78.4213 321.555 79.8562 322.397 81.3597C323.41 83.1739 324.221 85.0535 324.814 87.0058C325.2 88.2785 325.496 89.5649 325.696 90.8682C325.834 91.7542 325.919 92.6466 325.962 93.5411C325.991 94.149 326.033 94.7569 326.008 95.3638C325.962 96.4774 325.891 97.5889 325.734 98.6994C325.421 100.946 324.818 103.131 323.96 105.265C323.53 106.33 323.022 107.368 322.465 108.387C322.065 108.001 321.66 107.621 321.265 107.231C319.88 105.859 318.497 104.486 317.111 103.115C315.928 101.943 314.739 100.774 313.555 99.6023C312.178 98.24 310.806 96.8725 309.428 95.5102C308.211 94.3049 306.987 93.1038 305.769 91.9007C304.339 90.4878 302.916 89.0739 301.486 87.6611C300.495 86.6802 299.501 85.7036 298.51 84.7227C296.906 83.136 295.304 81.5483 293.701 79.9595C292.871 79.1367 292.048 78.3075 291.209 77.4899C290.865 77.1549 290.553 76.7914 290.14 76.4764C289.613 76.9937 289.097 77.4962 288.587 78.003C287.045 79.5349 285.506 81.0679 283.963 82.5997C282.806 83.7481 281.644 84.8934 280.488 86.0418C279.079 87.4388 277.673 88.839 276.266 90.236C275.326 91.1684 274.386 92.0998 273.448 93.0322C272.09 94.3808 270.734 95.7315 269.377 97.079C268.397 98.0525 267.411 99.0228 266.431 99.9963C265.048 101.369 263.665 102.744 262.284 104.118C261.288 105.108 260.298 106.105 259.291 107.088C258.967 107.408 258.682 107.765 258.29 108.033Z" fill="#A4BDA2"/>
<path id="Vector_2" d="M258.29 108.033C258.682 107.765 258.967 107.406 259.294 107.087C260.302 106.103 261.29 105.107 262.288 104.117C263.668 102.743 265.051 101.368 266.434 99.9953C267.414 99.0218 268.4 98.0514 269.38 97.0779C270.737 95.7304 272.094 94.3797 273.451 93.0312C274.389 92.0988 275.33 91.1674 276.269 90.235C277.676 88.8359 279.083 87.4378 280.491 86.0397C281.648 84.8923 282.81 83.7461 283.966 82.5977C285.508 81.0668 287.048 79.5339 288.59 78.002C289.101 77.4963 289.616 76.9927 290.143 76.4743C290.556 76.7904 290.868 77.1539 291.212 77.4889C292.05 78.3054 292.874 79.1356 293.704 79.9585C295.307 81.5462 296.91 83.135 298.513 84.7217C299.505 85.7025 300.499 86.6792 301.49 87.6601C302.917 89.0729 304.342 90.4879 305.772 91.8996C306.99 93.1039 308.214 94.3039 309.431 95.5081C310.809 96.8715 312.18 98.2379 313.559 99.6013C314.742 100.773 315.931 101.942 317.114 103.114C318.501 104.485 319.881 105.858 321.268 107.229C321.663 107.62 322.067 108.001 322.468 108.386C323.461 109.378 324.453 110.371 325.45 111.362C326.044 111.952 326.643 112.54 327.238 113.13C327.319 113.21 327.395 113.293 327.523 113.428C327.311 113.428 327.178 113.428 327.042 113.428C324.702 113.428 322.363 113.43 320.022 113.427C319.655 113.427 319.286 113.479 318.92 113.409C318.869 113.266 318.736 113.174 318.626 113.069C317.658 112.129 316.69 111.192 315.722 110.253C314.272 108.842 312.827 107.43 311.377 106.019C310.48 105.144 309.577 104.272 308.68 103.397C307.105 101.861 305.533 100.324 303.958 98.79C302.984 97.8407 302.004 96.8967 301.031 95.9485C299.589 94.5473 298.151 93.1429 296.712 91.7406C295.975 91.022 295.246 90.2982 294.502 89.586C294.207 89.3047 293.942 88.9981 293.557 88.7063C293.557 88.8717 293.557 88.9802 293.557 89.0866C293.557 90.8682 293.567 92.6508 293.549 94.4314C293.546 94.7432 293.649 94.9719 293.886 95.2005C294.704 95.9886 295.506 96.7893 296.309 97.5889C297.667 98.9364 299.021 100.288 300.378 101.636C301.543 102.793 302.712 103.945 303.876 105.103C305.385 106.601 306.887 108.103 308.395 109.601C309.577 110.774 310.763 111.943 311.944 113.116C312.029 113.201 312.144 113.28 312.153 113.413C312.098 113.419 312.06 113.427 312.023 113.427C309.185 113.427 306.348 113.427 303.509 113.431C303.323 113.431 303.207 113.374 303.09 113.254C302.476 112.619 301.855 111.991 301.233 111.36C300.118 110.227 299.002 109.092 297.887 107.954C296.51 106.548 295.135 105.141 293.759 103.734C293.715 103.689 293.681 103.613 293.56 103.649C293.56 103.742 293.56 103.84 293.56 103.937C293.56 111.085 293.56 118.235 293.562 125.383C293.562 125.494 293.576 125.603 293.582 125.714C293.574 126.046 293.557 126.377 293.557 126.709C293.555 139.756 293.557 152.803 293.554 165.852C293.554 166.365 293.646 166.303 293.026 166.304C291.243 166.307 289.461 166.305 287.681 166.305C287.643 166.305 287.605 166.305 287.567 166.305C287.099 166.307 287.154 166.317 287.154 165.949C287.154 156.819 287.154 147.688 287.154 138.558C287.154 134.607 287.154 130.657 287.152 126.706C287.152 126.374 287.14 126.042 287.132 125.711C287.138 125.578 287.149 125.447 287.149 125.315C287.151 122.846 287.149 120.378 287.149 117.91C287.149 113.262 287.149 108.612 287.148 103.964C287.148 103.852 287.181 103.73 287.108 103.617C286.972 103.684 286.899 103.777 286.817 103.86C285.452 105.217 284.087 106.574 282.723 107.931C281.92 108.73 281.118 109.531 280.314 110.331C279.342 111.297 278.367 112.26 277.398 113.227C277.266 113.36 277.129 113.433 276.913 113.433C274.189 113.426 271.465 113.428 268.741 113.427C268.674 113.427 268.583 113.459 268.544 113.348C268.852 113.04 269.167 112.721 269.486 112.406C270.467 111.434 271.45 110.463 272.431 109.489C273.762 108.165 275.091 106.839 276.422 105.515C277.605 104.342 278.791 103.173 279.974 102C281.356 100.627 282.737 99.2525 284.119 97.8787C285.057 96.9463 285.996 96.0149 286.938 95.0857C287.088 94.9371 287.157 94.7822 287.157 94.5778C287.148 92.7183 287.152 90.8587 287.151 88.9992C287.151 88.9191 287.178 88.8295 287.083 88.7126C287.01 88.7916 286.958 88.8527 286.899 88.9096C286.061 89.7409 285.223 90.5743 284.381 91.4024C283.295 92.4717 282.201 93.5358 281.115 94.6052C279.631 96.0634 278.152 97.5247 276.672 98.9849C275.217 100.42 273.764 101.857 272.306 103.292C271.017 104.56 269.722 105.824 268.433 107.091C266.706 108.79 264.978 110.488 263.257 112.192C262.838 112.607 262.391 113 262.016 113.447C259.019 113.447 256.024 113.447 253.037 113.447C252.983 113.299 253.098 113.256 253.158 113.197C254.752 111.606 256.35 110.017 257.944 108.426C258.064 108.298 258.173 108.164 258.29 108.033Z" fill="black"/>
<path id="Vector_3" d="M293.579 125.711C293.571 125.6 293.559 125.492 293.559 125.381C293.557 118.233 293.557 111.082 293.557 103.934C293.557 103.836 293.557 103.739 293.557 103.646C293.677 103.612 293.712 103.688 293.756 103.732C295.134 105.138 296.508 106.546 297.884 107.952C298.999 109.088 300.115 110.222 301.23 111.358C301.85 111.989 302.473 112.617 303.087 113.251C303.204 113.37 303.319 113.428 303.506 113.428C306.344 113.425 309.181 113.426 312.02 113.425C312.058 113.425 312.094 113.417 312.15 113.409C312.14 113.276 312.028 113.198 311.941 113.113C310.761 111.941 309.574 110.771 308.392 109.598C306.884 108.099 305.38 106.599 303.873 105.1C302.709 103.944 301.54 102.79 300.375 101.634C299.018 100.286 297.664 98.9343 296.306 97.5868C295.501 96.7882 294.701 95.9864 293.883 95.1973C293.647 94.9708 293.543 94.7411 293.546 94.4282C293.563 92.6466 293.554 90.864 293.554 89.0834C293.554 88.977 293.554 88.8696 293.554 88.7031C293.938 88.997 294.206 89.3026 294.499 89.5828C295.243 90.2961 295.972 91.0188 296.709 91.7374C298.147 93.1397 299.587 94.5441 301.027 95.9453C302.002 96.8946 302.981 97.8386 303.955 98.7879C305.53 100.322 307.102 101.86 308.677 103.394C309.574 104.269 310.475 105.142 311.373 106.016C312.822 107.427 314.269 108.84 315.719 110.25C316.685 111.191 317.655 112.127 318.623 113.066C318.732 113.173 318.866 113.263 318.917 113.406C318.634 113.842 318.246 114.209 317.883 114.593C317.009 115.515 316.085 116.397 315.091 117.222C313.178 118.807 311.098 120.196 308.838 121.387C306.367 122.687 303.752 123.705 300.998 124.454C299.409 124.886 297.792 125.218 296.146 125.441C295.295 125.56 294.444 125.686 293.579 125.711Z" fill="#A4BDA2"/>
<path id="Vector_4" d="M262.011 113.443C262.386 112.995 262.833 112.601 263.252 112.188C264.971 110.484 266.701 108.786 268.429 107.087C269.717 105.819 271.013 104.555 272.301 103.288C273.759 101.855 275.211 100.417 276.668 98.9807C278.149 97.5215 279.628 96.0602 281.11 94.601C282.196 93.5316 283.289 92.4675 284.377 91.3982C285.218 90.57 286.056 89.7367 286.895 88.9054C286.953 88.8485 287.005 88.7874 287.078 88.7084C287.173 88.8232 287.146 88.9138 287.146 88.9949C287.148 90.8545 287.145 92.7141 287.153 94.5736C287.154 94.778 287.083 94.9329 286.933 95.0814C285.991 96.0107 285.052 96.942 284.114 97.8744C282.731 99.2483 281.352 100.623 279.969 101.996C278.787 103.169 277.6 104.338 276.418 105.511C275.086 106.834 273.758 108.16 272.426 109.485C271.446 110.458 270.462 111.43 269.48 112.402C269.162 112.718 268.847 113.034 268.539 113.344C268.579 113.455 268.669 113.423 268.737 113.423C271.46 113.425 274.184 113.422 276.908 113.428C277.126 113.428 277.261 113.356 277.393 113.223C278.363 112.256 279.337 111.293 280.31 110.327C281.113 109.527 281.915 108.726 282.718 107.927C284.082 106.57 285.447 105.21 286.812 103.856C286.895 103.773 286.967 103.68 287.103 103.613C287.176 103.726 287.143 103.847 287.143 103.96C287.145 108.609 287.145 113.258 287.145 117.906C287.145 120.373 287.145 122.842 287.145 125.31C287.145 125.443 287.133 125.574 287.127 125.708C285.708 125.609 284.306 125.412 282.917 125.149C280.852 124.759 278.842 124.217 276.889 123.514C274.09 122.507 271.482 121.212 269.058 119.635C267.321 118.504 265.738 117.23 264.262 115.853C263.49 115.133 262.767 114.378 262.093 113.586C262.058 113.542 262.011 113.505 262.011 113.443Z" fill="#A4BDA2"/>
</g>
</g>
</g>
</g>
<g id="Treeguy">
<path id="Vector_5" d="M197.409 828.848C197.409 828.848 200.688 815.53 223.641 819.969C246.592 824.408 249.871 828.848 249.871 828.848H197.409Z" fill="#3F3D56"/>
<path id="Vector_6" d="M84.2879 811.407C84.2879 811.407 87.5668 798.089 110.519 802.529C133.471 806.968 136.75 811.407 136.75 811.407H84.2879Z" fill="#3F3D56"/>
<path id="Vector_7" d="M276.102 828.848C276.102 828.848 257.741 818.066 249.871 828.848H276.102Z" fill="#3F3D56"/>
<path id="Vector_8" d="M190.524 798.406C190.524 798.406 172.161 787.625 164.292 798.406H190.524Z" fill="#3F3D56"/>
<path id="Vector_9" d="M87.5177 788.501C92.9844 798.305 104.586 802.514 104.586 802.514C104.586 802.514 107.326 790.827 101.859 781.022C96.3923 771.218 84.7901 767.009 84.7901 767.009C84.7901 767.009 82.0511 778.696 87.5177 788.501Z" fill="#3F3D56"/>
<path id="Vector_10" d="M91.2751 785.275C101.145 791.018 104.946 802.423 104.946 802.423C104.946 802.423 92.7451 804.519 82.8756 798.777C73.0061 793.035 69.205 781.628 69.205 781.628C69.205 781.628 81.4056 779.533 91.2751 785.275Z" fill="#A4BDA2"/>
<path id="Vector_11" d="M633.172 820.92C633.172 820.92 636.451 807.602 659.403 812.041C682.356 816.481 685.634 820.92 685.634 820.92H633.172Z" fill="#3F3D56"/>
<path id="Vector_12" d="M580.711 828.848C564.763 826.434 549.431 824.379 534.712 822.687L540.38 811.724C538.413 811.09 529.887 817.432 529.887 817.432L537.101 785.723C527.264 786.991 522.674 819.334 522.674 819.334L511.526 808.554L517.013 820.76C471.974 816.183 433.109 814.755 400.439 815.082L405.29 805.699C403.322 805.065 394.798 811.407 394.798 811.407L402.011 779.698C392.175 780.966 387.584 813.309 387.584 813.309L376.436 802.529L382.249 815.457C359.869 816.086 337.539 817.825 315.345 820.667C320.185 806.084 337.089 792.064 337.089 792.064C324.092 795.975 317.329 802.346 313.829 808.252C313.121 778.29 317.888 748.443 327.909 720.084C327.909 720.084 301.677 777.161 305.612 815.213L306.111 821.972C283.291 825.414 271.84 828.848 271.84 828.848H580.711Z" fill="#3F3D56"/>
<path id="Vector_13" d="M409.553 857.703C409.553 857.703 530.215 840.581 604.974 857.703H409.553Z" fill="#3F3D56"/>
<path id="Vector_14" d="M231.837 881.168C231.837 881.168 352.5 864.045 427.259 881.168H231.837Z" fill="#3F3D56"/>
<path id="Vector_15" d="M455.457 887.464C455.457 887.464 526.924 869.936 571.202 887.464H455.457Z" fill="#3F3D56"/>
<path id="Vector_16" d="M655.068 817.089L653.902 816.507C669.038 788.207 660.945 751.455 651.49 725.607C645.07 708.233 636.881 691.519 627.044 675.712L628.152 675.034C638.04 690.922 646.271 707.721 652.725 725.183C662.267 751.268 670.419 788.387 655.068 817.089Z" fill="#3F3D56"/>
<path id="Vector_17" d="M666.293 675.261L657.785 720.292L659.075 720.52L667.583 675.489L666.293 675.261Z" fill="#3F3D56"/>
<path id="Vector_18" d="M609.717 713.627L608.757 714.49L652.693 760.153L653.654 759.289L609.717 713.627Z" fill="#3F3D56"/>
<path id="Vector_19" d="M688.704 763.785L666.418 793.599L667.481 794.343L689.767 764.528L688.704 763.785Z" fill="#3F3D56"/>
<path id="Vector_20" d="M670.224 663.323C673.846 663.323 676.781 660.484 676.781 656.982C676.781 653.479 673.846 650.64 670.224 650.64C666.602 650.64 663.666 653.479 663.666 656.982C663.666 660.484 666.602 663.323 670.224 663.323Z" fill="#A4BDA2"/>
<path id="Vector_21" d="M598.744 712.156C602.365 712.156 605.302 709.317 605.302 705.815C605.302 702.312 602.365 699.473 598.744 699.473C595.122 699.473 592.186 702.312 592.186 705.815C592.186 709.317 595.122 712.156 598.744 712.156Z" fill="#3F3D56"/>
<path id="Vector_22" d="M627.598 718.498C631.22 718.498 634.156 715.659 634.156 712.156C634.156 708.654 631.22 705.815 627.598 705.815C623.977 705.815 621.04 708.654 621.04 712.156C621.04 715.659 623.977 718.498 627.598 718.498Z" fill="#3F3D56"/>
<path id="Vector_23" d="M614.482 743.231C618.104 743.231 621.04 740.392 621.04 736.89C621.04 733.387 618.104 730.548 614.482 730.548C610.861 730.548 607.925 733.387 607.925 736.89C607.925 740.392 610.861 743.231 614.482 743.231Z" fill="#A4BDA2"/>
<path id="Vector_24" d="M696.455 759.087C700.077 759.087 703.012 756.247 703.012 752.745C703.012 749.242 700.077 746.402 696.455 746.402C692.833 746.402 689.897 749.242 689.897 752.745C689.897 756.247 692.833 759.087 696.455 759.087Z" fill="#3F3D56"/>
<path id="Vector_25" d="M674.814 766.062C678.436 766.062 681.371 763.223 681.371 759.721C681.371 756.218 678.436 753.379 674.814 753.379C671.192 753.379 668.256 756.218 668.256 759.721C668.256 763.223 671.192 766.062 674.814 766.062Z" fill="#3F3D56"/>
<path id="Vector_26" d="M689.897 786.357C693.518 786.357 696.455 783.518 696.455 780.015C696.455 776.513 693.518 773.672 689.897 773.672C686.275 773.672 683.339 776.513 683.339 780.015C683.339 783.518 686.275 786.357 689.897 786.357Z" fill="#3F3D56"/>
<path id="Vector_27" d="M621.04 670.933C624.662 670.933 627.599 668.094 627.599 664.592C627.599 661.089 624.662 658.25 621.04 658.25C617.419 658.25 614.482 661.089 614.482 664.592C614.482 668.094 617.419 670.933 621.04 670.933Z" fill="#3F3D56"/>
<path id="Vector_28" d="M237.267 630.975C237.267 709.368 189.078 736.739 129.634 736.739C70.1892 736.739 22 709.368 22 630.975C22 552.582 129.634 452.855 129.634 452.855C129.634 452.855 237.267 552.582 237.267 630.975Z" fill="#A4BDA2"/>
<path id="Vector_29" d="M125.713 724.747L126.815 659.14L172.691 577.975L126.987 648.848L127.483 619.348L159.101 560.626L127.614 611.542L128.506 558.485L162.363 511.734L128.646 550.143L129.202 452.855L125.703 581.645L125.99 576.333L91.5681 525.377L125.439 586.532L122.232 645.787L122.136 644.214L82.4528 590.591L122.016 649.77L121.614 657.181L121.543 657.292L121.576 657.901L113.439 808.235H124.31L125.615 730.585L165.081 671.551L125.713 724.747Z" fill="#3F3D56"/>
<path id="Vector_30" d="M592.294 607.605C592.294 703.375 533.422 736.815 460.8 736.815C388.178 736.815 329.307 703.375 329.307 607.605C329.307 511.834 460.8 390 460.8 390C460.8 390 592.294 511.834 592.294 607.605Z" fill="#A4BDA2"/>
<path id="Vector_31" d="M456.01 722.165L457.357 642.014L513.403 542.855L457.567 629.44L458.174 593.401L496.8 521.662L458.334 583.865L459.422 519.046L500.785 461.932L459.593 508.853L460.274 390L455.998 547.341L456.35 540.849L414.297 478.599L455.676 553.309L451.757 625.7L451.64 623.779L403.161 558.27L451.494 630.566L451.003 639.62L450.916 639.756L450.956 640.499L441.014 824.161H454.297L455.891 729.296L504.104 657.175L456.01 722.165Z" fill="#3F3D56"/>
<path id="Vector_32" d="M354.588 745.539L360.58 763.474C360.58 763.474 355.159 780.307 357.727 799.071C360.295 817.835 358.868 818.386 358.868 818.386C358.868 818.386 333.21 816.958 335.778 824.408C338.346 831.859 363.434 827.493 363.434 827.493C363.434 827.493 368.251 826.238 370.534 812.993C372.816 799.748 378.556 774.236 378.556 774.236L373.159 750.153L354.588 745.539Z" fill="#FFB8B8"/>
<path id="Vector_33" d="M356.585 708.839C356.585 708.839 345.743 712.702 345.743 723.188C345.743 733.674 349.738 748.022 352.306 748.85C354.873 749.678 371.993 760.992 375.132 752.989C378.27 744.987 356.585 708.839 356.585 708.839Z" fill="#A4BDA2"/>
<path id="Vector_34" d="M447.32 833.011L470.146 832.183L487.552 829.7L482.416 846.256L440.187 847.36L447.32 833.011Z" fill="#FFB8B8"/>
<path id="Vector_35" d="M480.132 835.219C480.132 835.219 479.848 829.148 477.279 829.424C474.711 829.7 476.423 827.217 478.706 826.664C480.988 826.112 487.551 823.353 487.551 823.353L513.516 825.009C513.516 825.009 530.35 839.358 523.503 847.084C516.654 854.81 498.965 847.911 498.965 847.911L479.848 848.188C479.848 848.188 473.57 838.254 480.132 835.219Z" fill="#2F2E41"/>
<path id="Vector_36" d="M490.405 813.972L498.679 851.499L515.799 848.188L506.098 801.278L495.825 796.035L490.405 813.972Z" fill="#FFB8B8"/>
<path id="Vector_37" d="M391.967 809.28C391.967 809.28 344.031 830.251 364.289 851.499C364.289 851.499 364.289 861.432 385.689 859.501C407.089 857.569 448.461 853.982 450.459 855.086C452.456 856.19 458.733 833.287 453.312 832.183C447.89 831.08 441.328 829.7 441.328 829.7C441.328 829.7 447.034 828.872 447.034 824.181C447.034 824.181 463.299 823.077 468.149 813.144C472.999 803.21 477.565 795.76 477.565 795.76L488.693 823.354C488.693 823.354 501.533 800.451 511.233 810.66C511.233 810.66 500.391 744.711 492.116 738.64C483.842 732.57 478.135 730.638 470.432 736.157C462.727 741.676 455.594 755.748 455.594 755.748L391.967 809.28Z" fill="#2F2E41"/>
<path id="Vector_38" d="M506.383 840.185C504.388 841.641 502.483 843.207 500.677 844.877C498.394 847.084 495.256 845.98 494.97 844.877C494.684 843.772 489.549 845.704 488.978 853.706C488.407 861.708 484.983 868.883 494.114 871.366C503.244 873.85 502.959 881.024 502.959 881.024C510.184 884.376 518.475 884.868 526.071 882.404C538.91 878.265 534.345 873.85 534.345 873.85L517.226 846.532C517.226 846.532 512.661 838.254 506.383 840.185Z" fill="#2F2E41"/>
<path id="Vector_39" d="M459.018 703.32C459.018 703.32 486.41 712.426 489.263 714.358C492.116 716.289 504.956 725.395 498.679 730.086C492.402 734.777 487.266 737.812 474.997 734.225C462.727 730.638 449.032 719.601 449.032 719.601L459.018 703.32Z" fill="#FFB8B8"/>
<path id="Vector_40" d="M431.627 691.179C431.627 691.179 442.469 689.247 450.173 693.386C457.878 697.525 464.439 705.804 464.439 705.804C464.439 705.804 457.306 720.428 452.171 722.636C447.034 724.843 437.619 713.806 437.619 713.806L431.627 691.179Z" fill="#A4BDA2"/>
<path id="Vector_41" d="M381.695 683.176C381.695 683.176 381.979 693.938 380.839 695.042C379.697 696.146 394.534 728.706 410.798 714.357C427.061 700.009 414.507 694.215 414.507 694.215C414.507 694.215 408.515 683.452 408.8 682.349C409.086 681.245 382.265 682.349 382.265 682.349L381.695 683.176Z" fill="#FFB8B8"/>
<path id="Vector_42" opacity="0.1" d="M381.695 683.176C381.695 683.176 381.979 693.938 380.839 695.042C379.697 696.146 394.534 728.706 410.798 714.357C427.061 700.009 414.507 694.215 414.507 694.215C414.507 694.215 408.515 683.452 408.8 682.349C409.086 681.245 382.265 682.349 382.265 682.349L381.695 683.176Z" fill="black"/>
<path id="Vector_43" d="M386.26 703.872C386.26 703.872 397.102 711.046 401.667 709.391C406.233 707.735 411.939 700.561 412.51 700.009C413.08 699.457 442.184 756.024 442.184 756.024C442.184 756.024 437.904 776.72 426.491 782.79C415.077 788.861 415.22 793.689 413.794 797.829C412.367 801.968 393.963 784.722 393.963 784.722L382.265 736.709V707.459L386.26 703.872Z" fill="#A4BDA2"/>
<path id="Vector_44" d="M381.552 691.041C381.552 691.041 377.985 690.351 374.276 693.386C370.567 696.422 353.162 707.735 354.017 708.839C354.873 709.943 362.578 725.672 364.289 732.018C366.001 738.364 368.569 739.192 368.569 739.192C368.569 739.192 374.561 743.332 373.705 746.366C372.849 749.402 369.14 790.792 374.276 799.899C379.411 809.004 378.555 817.007 377.129 819.214C375.702 821.422 390.825 812.867 390.825 812.867C390.825 812.867 413.366 795.207 415.077 789.965C416.185 786.361 416.949 782.666 417.361 778.927C417.361 778.927 402.809 723.188 398.244 720.153C393.678 717.117 381.552 691.041 381.552 691.041Z" fill="#575A89"/>
<path id="Vector_45" d="M412.898 691.259C412.898 691.259 419.928 687.04 421.355 688.144C422.782 689.247 436.192 689.247 436.477 690.351C436.763 691.455 437.333 717.945 447.034 724.843C456.736 731.742 450.459 745.539 450.459 745.539L457.592 756.576C457.592 756.576 418.788 792.721 421.355 780.307C421.497 779.617 421.355 779.479 421.355 779.479C421.355 779.479 406.233 716.841 408.23 713.53C410.228 710.219 413.856 695.202 412.898 691.259Z" fill="#575A89"/>
<path id="Vector_46" d="M472.714 716.565L433.91 729.535C433.91 729.535 395.39 738.364 401.382 748.574C407.374 758.784 432.768 741.4 432.768 741.4L484.443 735.8C484.443 735.8 504.956 719.049 472.714 716.565Z" fill="#FFB8B8"/>
<path id="Vector_47" d="M397.102 693.386C408.763 693.386 418.217 684.245 418.217 672.967C418.217 661.69 408.763 652.548 397.102 652.548C385.441 652.548 375.988 661.69 375.988 672.967C375.988 684.245 385.441 693.386 397.102 693.386Z" fill="#FFB8B8"/>
<path id="Vector_48" d="M380.287 652.674L376.382 651.3C376.382 651.3 384.548 643.403 395.91 644.089L392.715 640.999C392.715 640.999 400.526 638.252 407.627 645.463C411.361 649.254 415.679 653.709 418.372 658.728H422.555L420.808 662.105L426.918 665.481L420.647 664.875C421.241 667.79 421.038 670.805 420.054 673.62L418.634 677.397C418.634 677.397 412.953 666.409 412.953 665.035V668.469C412.953 668.469 409.048 665.379 409.048 663.319L406.917 665.722L405.851 661.945L392.715 665.722L394.845 662.632L386.679 663.662L389.874 659.884C389.874 659.884 380.643 664.349 380.287 668.126C379.932 671.903 375.317 676.71 375.317 676.71L373.186 673.276C373.186 673.276 369.99 657.825 380.287 652.674Z" fill="#2F2E41"/>
</g>
<g id="Lines">
<path id="Vector 1" d="M91 203C389.746 203 511.28 242.333 534.703 262" stroke="black" stroke-width="5"/>
<path id="Vector 2" d="M91 216.696C441.603 258.717 523.468 294.61 520.575 307.304" stroke="black" stroke-width="5"/>
<path id="Vector 3" d="M91 232.5C426.688 310.043 506.595 364.547 504.587 382.107" stroke="black" stroke-width="5"/>
</g>
<g id="Hands" filter="url(#filter0_d)">
<path id="Vector_49" d="M1086.45 390.409C1086.45 390.409 1003.78 380.241 974.757 363.401C945.736 346.561 730.951 340.047 731.323 392.992C731.694 445.936 978.782 467.472 978.782 467.472L1108.39 458.452L1086.45 390.409Z" fill="#FBBEBE"/>
<path id="Vector_50" opacity="0.1" d="M1086.45 390.409C1086.45 390.409 1003.78 380.241 974.757 363.401C945.736 346.561 730.951 340.047 731.323 392.992C731.694 445.936 978.782 467.472 978.782 467.472L1108.39 458.452L1086.45 390.409Z" fill="black"/>
<path id="Vector_51" d="M1062.42 380.712L1080.15 435.325L1351.88 436.938L1351.32 356.175C1351.32 356.175 1247.08 330.908 1164.88 387.146C1164.88 387.146 1067.34 375.292 1062.42 380.712Z" fill="#A4BDA2"/>
<path id="Vector_52" opacity="0.1" d="M1062.42 380.624L1080.15 435.237L1351.88 436.85L1351.32 356.087C1351.32 356.087 1247.08 330.82 1164.88 387.058C1164.88 387.058 1067.34 375.203 1062.42 380.624Z" fill="black"/>
<path id="Vector_53" d="M751.621 360.089C751.641 363.147 757.965 365.372 758.608 368.317C759.24 371.24 755.526 375.717 756.73 378.503C757.975 381.352 759.451 384.079 761.117 386.656C762.693 389.064 767.492 388.676 769.479 390.929C771.417 392.976 773.475 394.891 775.633 396.663C777.731 398.537 780.572 398.912 782.961 400.632C785.23 402.268 784.999 408.333 787.509 409.819C789.908 411.241 793.552 410.057 796.152 411.331C798.641 412.553 799.986 417.031 802.657 418.109C805.227 419.149 808.389 418.671 811.109 419.567C813.739 420.435 816.67 420.27 819.431 420.997C822.101 421.703 824.169 426.035 826.95 426.602C829.66 427.153 832.822 425.607 835.623 426.019C838.354 426.421 841.506 422.641 844.317 422.906C847.067 423.164 849.667 424.884 852.488 425.004C855.248 425.122 857.989 426.423 860.81 426.403C863.631 426.382 866.552 429.233 869.312 429.075C872.133 428.914 874.653 424.543 877.393 424.245C880.204 423.94 883.587 428.462 886.318 428.02C889.108 427.567 891.297 423.1 893.997 422.51C896.768 421.903 900.382 425.057 903.042 424.313C905.782 423.546 907.379 418.357 909.999 417.45C912.699 416.514 916.072 417.731 918.632 416.654C921.282 415.537 924.514 415.69 926.994 414.431C929.574 413.12 931.411 410.047 933.79 408.592C936.279 407.068 937.404 403.328 939.652 401.659C942.021 399.902 945.635 400.098 947.713 398.194C949.912 396.185 954.038 396.051 955.885 393.893C957.842 391.61 958.615 387.795 960.151 385.365C961.767 382.806 958.515 377.442 959.639 374.741C960.803 371.939 965.763 370.768 966.355 367.837C966.967 364.777 967.268 361.653 967.258 358.52C967.238 355.462 962.982 353.155 962.339 350.209C961.707 347.288 964.799 343.062 963.594 340.276C962.43 337.591 962.55 333.45 960.894 330.914C959.318 328.507 955.433 327.587 953.445 325.334C951.568 323.203 948.235 322.629 946.017 320.651C943.909 318.778 944.14 313.083 941.75 311.361C939.482 309.725 936.32 308.994 933.81 307.507C931.411 306.087 928.038 306.354 925.438 305.08C922.938 303.858 919.063 306.33 916.403 305.252C913.823 304.213 911.735 301.915 909.015 301.018C906.385 300.149 905.11 293.392 902.349 292.666C899.679 291.96 896.406 293.187 893.626 292.622C890.915 292.071 887.311 297.435 884.511 297.023C881.78 296.62 879.682 289.509 876.871 289.246C874.121 288.987 871.049 292.701 868.228 292.58C865.468 292.463 862.707 294.646 859.886 294.666C857.075 294.687 854.245 291.739 851.484 291.896C848.673 292.057 846.214 295.998 843.463 296.296C840.652 296.601 837.169 290.66 834.439 291.102C831.638 291.555 829.51 296.183 826.809 296.774C824.039 297.379 820.545 294.542 817.875 295.287C815.135 296.054 813.508 300.968 810.898 301.874C808.188 302.81 806.552 306.281 803.992 307.358C801.342 308.475 796.362 303.375 793.883 304.634C791.303 305.946 789.085 308.199 786.705 309.654C784.216 311.178 780.241 310.45 777.992 312.12C775.633 313.875 775.081 318.545 773.003 320.448C770.804 322.459 767.17 323.085 765.323 325.244C763.376 327.526 763.125 331.593 761.589 334.023C759.973 336.583 760.053 340.112 758.929 342.813C757.754 345.616 754.602 347.752 754.01 350.683C753.408 353.637 751.601 357.032 751.621 360.089Z" fill="#3F3D56"/>
<path id="Vector_54" d="M1049.44 414.01C1049.44 414.01 955.754 362.642 895.603 382.823C835.452 403.003 750.978 369.516 741.151 381.254C731.323 392.992 718.159 518.725 837.129 525.039C956.105 531.353 1057.48 501.899 1057.48 501.899L1049.44 414.01Z" fill="#FBBEBE"/>
<path id="Vector_55" d="M1071.38 408.308C1071.38 408.308 1034.52 406.042 1036.27 420.388C1038.02 434.734 1040.45 545.995 1050.38 548.615C1060.31 551.235 1138.77 550.665 1170.98 550.431L1352.67 549.109L1351.46 377.072C1351.46 377.072 1222.57 369.675 1158.4 405.141C1158.4 405.141 1080.94 404.49 1071.38 408.308Z" fill="#A4BDA2"/>
<path id="Vector_56" d="M896.898 140.473C900.422 140.664 903.825 141.917 906.736 144.092C909.637 146.266 911.926 149.275 913.351 152.784C917.517 163.499 912.337 176.159 904.487 184.052C896.627 191.944 886.508 196.497 877.313 202.452C864.976 210.448 853.913 221.506 847.81 235.64C841.706 249.775 841.164 267.232 848.553 280.64C855.409 293.084 867.766 300.472 879.552 307.283" stroke="#3F3D56" stroke-miterlimit="10"/>
<path id="Vector_57" d="M863.41 75.2059C866.933 75.3965 870.336 76.6497 873.237 78.8241C876.149 80.9985 878.437 84.008 879.853 87.5165C884.019 98.2316 878.849 110.892 870.989 118.785C863.139 126.677 853.01 131.23 843.825 137.184C831.487 145.181 820.425 156.238 814.321 170.373C808.218 184.507 807.676 201.965 815.064 215.373C821.921 227.817 834.268 235.205 846.053 242.016" stroke="#3F3D56" stroke-miterlimit="10"/>
<path id="Vector_58" d="M754.903 91.0629C757.794 88.8711 761.188 87.5974 764.711 87.3853C768.225 87.1742 771.738 88.0319 774.83 89.863C784.166 95.5705 787.197 109.033 785.441 120.502C783.684 131.97 778.253 142.309 774.348 153.131C769.098 167.667 766.588 183.774 769.73 199.02C772.872 214.264 782.278 228.435 795.67 234.132C808.097 239.42 822.021 237.046 835.171 234.597" stroke="#3F3D56" stroke-miterlimit="10"/>
<path id="Vector_59" d="M851.564 225.789C840.612 225.868 831.708 221.249 831.668 215.472C831.628 209.694 840.472 204.947 851.414 204.867C862.366 204.787 871.27 209.406 871.31 215.183C871.35 220.96 862.506 225.709 851.564 225.789Z" fill="#A4BDA2"/>
<path id="Vector_60" d="M854.024 223.975C843.082 224.055 834.178 219.437 834.137 213.659C834.097 207.881 842.931 203.134 853.883 203.054C864.825 202.974 873.739 207.593 873.78 213.371C873.82 219.148 864.976 223.896 854.024 223.975Z" stroke="#3F3D56" stroke-miterlimit="10"/>
<path id="Vector_61" d="M808.559 217.127C797.607 217.207 788.703 212.588 788.663 206.811C788.623 201.033 797.467 196.285 808.409 196.206C819.351 196.126 828.265 200.744 828.305 206.523C828.345 212.3 819.501 217.047 808.559 217.127Z" fill="#A4BDA2"/>
<path id="Vector_62" d="M811.019 215.314C800.077 215.394 791.162 210.775 791.122 204.998C791.082 199.221 799.926 194.472 810.878 194.392C821.82 194.313 830.724 198.932 830.765 204.709C830.805 210.487 821.971 215.234 811.019 215.314Z" stroke="#3F3D56" stroke-miterlimit="10"/>
<path id="Vector_63" d="M802.225 256.659C791.273 256.739 782.369 252.12 782.329 246.343C782.289 240.566 791.132 235.817 802.074 235.737C813.026 235.658 821.931 240.277 821.971 246.054C822.011 251.831 813.167 256.58 802.225 256.659Z" fill="#A4BDA2"/>
<path id="Vector_64" d="M804.684 254.847C793.742 254.926 784.838 250.307 784.798 244.53C784.758 238.753 793.592 234.005 804.544 233.925C815.486 233.846 824.4 238.464 824.44 244.241C824.48 250.018 815.636 254.767 804.684 254.847Z" stroke="#3F3D56" stroke-miterlimit="10"/>
<path id="Vector_65" d="M805.668 157.919C794.716 157.999 785.812 153.379 785.772 147.602C785.732 141.825 794.576 137.076 805.518 136.998C816.46 136.918 825.374 141.537 825.414 147.314C825.454 153.091 816.61 157.839 805.668 157.919Z" fill="#A4BDA2"/>
<path id="Vector_66" d="M808.128 156.106C797.186 156.186 788.271 151.567 788.231 145.789C788.191 140.012 797.035 135.264 807.987 135.185C818.929 135.105 827.833 139.724 827.873 145.501C827.914 151.279 819.08 156.026 808.128 156.106Z" stroke="#3F3D56" stroke-miterlimit="10"/>
<path id="Vector_67" d="M855.168 151.277C844.226 151.357 835.322 146.737 835.282 140.96C835.242 135.183 844.076 130.434 855.028 130.356C865.97 130.276 874.874 134.895 874.924 140.672C874.964 146.449 866.12 151.197 855.168 151.277Z" fill="#A4BDA2"/>
<path id="Vector_68" d="M857.638 149.464C846.686 149.544 837.781 144.925 837.741 139.147C837.701 133.37 846.545 128.622 857.487 128.543C868.439 128.463 877.343 133.082 877.383 138.859C877.424 144.637 868.58 149.384 857.638 149.464Z" stroke="#3F3D56" stroke-miterlimit="10"/>
<path id="Vector_69" d="M832.712 129.005C821.77 129.085 812.866 124.466 812.826 118.688C812.785 112.911 821.619 108.163 832.571 108.083C843.513 108.004 852.428 112.622 852.468 118.4C852.508 124.177 843.664 128.925 832.712 129.005Z" fill="#A4BDA2"/>
<path id="Vector_70" d="M835.181 127.192C824.239 127.271 815.325 122.653 815.285 116.876C815.245 111.099 824.089 106.35 835.031 106.27C845.983 106.191 854.887 110.81 854.927 116.587C854.967 122.364 846.123 127.112 835.181 127.192Z" stroke="#3F3D56" stroke-miterlimit="10"/>
<path id="Vector_71" d="M784.025 133.846C773.073 133.926 764.169 129.307 764.129 123.529C764.089 117.752 772.933 113.005 783.875 112.925C794.827 112.845 803.731 117.464 803.771 123.241C803.811 129.018 794.967 133.767 784.025 133.846Z" fill="#A4BDA2"/>
<path id="Vector_72" d="M786.484 132.033C775.542 132.113 766.638 127.495 766.598 121.716C766.548 115.939 775.392 111.192 786.344 111.112C797.286 111.032 806.19 115.651 806.23 121.428C806.27 127.206 797.437 131.954 786.484 132.033Z" stroke="#3F3D56" stroke-miterlimit="10"/>
<path id="Vector_73" d="M747.886 163.723C736.944 163.803 728.04 159.184 728 153.407C727.96 147.63 736.794 142.881 747.746 142.802C758.688 142.723 767.602 147.342 767.642 153.119C767.682 158.896 758.838 163.644 747.886 163.723Z" fill="#A4BDA2"/>
<path id="Vector_74" d="M750.356 161.911C739.414 161.991 730.5 157.371 730.46 151.594C730.419 145.817 739.263 141.069 750.205 140.99C761.157 140.91 770.062 145.528 770.102 151.306C770.142 157.083 761.298 161.831 750.356 161.911Z" stroke="#3F3D56" stroke-miterlimit="10"/>
<path id="Vector_75" d="M875.536 110.745C864.594 110.825 855.68 106.206 855.64 100.429C855.6 94.6514 864.444 89.903 875.386 89.8241C886.338 89.7442 895.242 94.3624 895.282 100.141C895.322 105.918 886.478 110.665 875.536 110.745Z" fill="#A4BDA2"/>
<path id="Vector_76" d="M878.006 108.932C867.054 109.012 858.15 104.393 858.109 98.6159C858.069 92.8387 866.913 88.0903 877.855 88.0104C888.797 87.9315 897.711 92.5497 897.752 98.3269C897.792 104.105 888.948 108.853 878.006 108.932Z" stroke="#3F3D56" stroke-miterlimit="10"/>
<path id="Vector_77" d="M862.908 76.7347C851.966 76.8147 843.052 72.1964 843.011 66.4187C842.971 60.6414 851.815 55.8934 862.767 55.8138C873.709 55.7341 882.613 60.353 882.654 66.1304C882.694 71.9074 873.86 76.6558 862.908 76.7347Z" fill="#A4BDA2"/>
<path id="Vector_78" d="M865.377 74.922C854.425 75.002 845.521 70.3837 845.481 64.6059C845.441 58.8286 854.285 54.0806 865.227 54.001C876.179 53.9214 885.083 58.5403 885.123 64.3176C885.163 70.0947 876.319 74.8431 865.377 74.922Z" stroke="#3F3D56" stroke-miterlimit="10"/>
<path id="Vector_79" d="M748.288 102.696C737.346 102.776 728.442 98.1578 728.402 92.3796C728.362 86.6025 737.195 81.8551 748.147 81.7752C759.089 81.6952 767.994 86.3145 768.034 92.0917C768.074 97.8689 759.24 102.617 748.288 102.696Z" fill="#A4BDA2"/>
<path id="Vector_80" d="M750.757 100.884C739.805 100.963 730.901 96.3442 730.861 90.567C730.821 84.7898 739.665 80.0424 750.607 79.9625C761.559 79.8826 770.463 84.5019 770.503 90.2791C770.543 96.0562 761.699 100.805 750.757 100.884Z" stroke="#3F3D56" stroke-miterlimit="10"/>
<path id="Vector_81" d="M931.381 183.926C920.439 184.006 911.524 179.388 911.484 173.61C911.444 167.832 920.288 163.085 931.24 163.005C942.182 162.925 951.086 167.545 951.126 173.322C951.166 179.099 942.333 183.847 931.381 183.926Z" fill="#A4BDA2"/>
<path id="Vector_82" d="M933.85 182.114C922.898 182.193 913.994 177.574 913.954 171.797C913.914 166.02 922.757 161.272 933.699 161.192C944.651 161.113 953.556 165.732 953.596 171.509C953.636 177.286 944.792 182.035 933.85 182.114Z" stroke="#3F3D56" stroke-miterlimit="10"/>
<path id="Vector_83" d="M862.797 179.041C851.855 179.12 842.941 174.502 842.901 168.725C842.861 162.947 851.705 158.199 862.657 158.119C873.599 158.04 882.503 162.659 882.543 168.436C882.583 174.213 873.749 178.962 862.797 179.041Z" fill="#A4BDA2"/>
<path id="Vector_84" d="M865.267 177.229C854.315 177.308 845.411 172.689 845.371 166.912C845.33 161.134 854.174 156.387 865.116 156.307C876.068 156.227 884.972 160.846 885.013 166.623C885.053 172.4 876.209 177.149 865.267 177.229Z" stroke="#3F3D56" stroke-miterlimit="10"/>
<path id="Vector_85" d="M772.832 187.772C761.89 187.852 752.986 183.234 752.946 177.455C752.906 171.678 761.74 166.931 772.692 166.851C783.634 166.771 792.548 171.39 792.588 177.167C792.628 182.945 783.784 187.693 772.832 187.772Z" fill="#A4BDA2"/>
<path id="Vector_86" d="M775.302 185.959C764.35 186.039 755.445 181.42 755.405 175.643C755.365 169.865 764.209 165.118 775.151 165.038C786.103 164.958 795.007 169.578 795.047 175.355C795.088 181.132 786.244 185.88 775.302 185.959Z" stroke="#3F3D56" stroke-miterlimit="10"/>
<path id="Vector_87" d="M820.756 191.013C809.814 191.093 800.91 186.474 800.87 180.696C800.83 174.919 809.663 170.172 820.615 170.092C831.557 170.012 840.472 174.631 840.512 180.408C840.552 186.186 831.708 190.934 820.756 191.013Z" fill="#A4BDA2"/>
<path id="Vector_88" d="M823.226 189.2C812.284 189.28 803.369 184.661 803.329 178.884C803.289 173.107 812.133 168.359 823.075 168.279C834.027 168.199 842.931 172.819 842.971 178.596C843.011 184.373 834.178 189.121 823.226 189.2Z" stroke="#3F3D56" stroke-miterlimit="10"/>
<path id="Vector_89" d="M816.831 101.301C805.889 101.38 796.975 96.7612 796.935 90.984C796.895 85.2068 805.738 80.4584 816.68 80.3795C827.632 80.2996 836.537 84.9179 836.577 90.6961C836.617 96.4733 827.773 101.221 816.831 101.301Z" fill="#A4BDA2"/>
<path id="Vector_90" d="M819.301 99.4879C808.348 99.5679 799.444 94.9486 799.404 89.1714C799.364 83.3942 808.208 78.6458 819.15 78.5659C830.092 78.487 839.006 83.1052 839.046 88.8824C839.086 94.6606 830.242 99.408 819.301 99.4879Z" stroke="#3F3D56" stroke-miterlimit="10"/>
<path id="Vector_91" d="M902.279 156.318C891.337 156.398 882.433 151.78 882.393 146.002C882.352 140.224 891.186 135.477 902.138 135.397C913.08 135.317 921.995 139.936 922.035 145.714C922.075 151.491 913.231 156.239 902.279 156.318Z" fill="#A4BDA2"/>
<path id="Vector_92" d="M904.748 154.505C893.806 154.585 884.892 149.967 884.852 144.189C884.812 138.412 893.656 133.664 904.598 133.584C915.55 133.504 924.454 138.124 924.494 143.901C924.534 149.678 915.69 154.427 904.748 154.505Z" stroke="#3F3D56" stroke-miterlimit="10"/>
<path id="Vector_93" d="M891.006 196.784C880.054 196.864 871.149 192.245 871.109 186.467C871.069 180.69 879.913 175.942 890.855 175.863C901.807 175.783 910.711 180.402 910.751 186.179C910.792 191.957 901.948 196.705 891.006 196.784Z" fill="#A4BDA2"/>
<path id="Vector_94" d="M893.465 194.971C882.523 195.051 873.619 190.432 873.579 184.655C873.539 178.878 882.373 174.129 893.325 174.05C904.267 173.97 913.171 178.59 913.211 184.367C913.251 190.144 904.417 194.891 893.465 194.971Z" stroke="#3F3D56" stroke-miterlimit="10"/>
<g id="Group_2" opacity="0.3">
<path id="Vector_95" opacity="0.3" d="M890.966 257.753C888.135 252.334 887.583 246.86 889.741 245.528C891.899 244.196 895.945 247.509 898.786 252.929C901.616 258.347 902.169 263.82 900.01 265.153C897.852 266.485 893.806 263.172 890.966 257.753Z" fill="#A4BDA2"/>
<path id="Vector_96" opacity="0.3" d="M892.281 258.565C889.44 253.147 888.898 247.673 891.056 246.341C893.214 245.009 897.26 248.322 900.101 253.741C902.931 259.16 903.484 264.634 901.325 265.966C899.167 267.298 895.111 263.985 892.281 258.565Z" stroke="#3F3D56" stroke-miterlimit="10"/>
</g>
<g id="Group_3" opacity="0.3">
<path id="Vector_97" opacity="0.3" d="M787.84 284.581C786.163 282.582 788.251 277.568 792.498 273.381C796.744 269.194 801.532 267.421 803.209 269.419C804.875 271.418 802.787 276.433 798.541 280.62C794.304 284.807 789.506 286.58 787.84 284.581Z" fill="#A4BDA2"/>
<path id="Vector_98" opacity="0.3" d="M788.281 283.012C786.605 281.013 788.693 275.999 792.939 271.813C797.186 267.626 801.974 265.852 803.651 267.851C805.317 269.849 803.229 274.864 798.983 279.051C794.746 283.238 789.948 285.012 788.281 283.012Z" stroke="#3F3D56" stroke-miterlimit="10"/>
</g>
<g id="Group_4" opacity="0.3">
<path id="Vector_99" opacity="0.3" d="M879.933 227.374C878.267 225.375 880.355 220.361 884.601 216.174C888.837 211.987 893.636 210.213 895.312 212.213C896.979 214.211 894.891 219.226 890.644 223.412C886.398 227.599 881.61 229.373 879.933 227.374Z" fill="#A4BDA2"/>
<path id="Vector_100" opacity="0.3" d="M880.375 225.805C878.708 223.807 880.797 218.792 885.043 214.605C889.279 210.418 894.078 208.645 895.744 210.644C897.42 212.643 895.332 217.657 891.086 221.844C886.84 226.031 882.051 227.804 880.375 225.805Z" stroke="#3F3D56" stroke-miterlimit="10"/>
</g>
</g>
</g>
</g>
<defs>
<filter id="filter0_d" x="724" y="53.5" width="632.667" height="505.15" filterUnits="userSpaceOnUse" color-interpolation-filters="sRGB">
<feFlood flood-opacity="0" result="BackgroundImageFix"/>
<feColorMatrix in="SourceAlpha" type="matrix" values="0 0 0 0 0 0 0 0 0 0 0 0 0 0 0 0 0 0 127 0"/>
<feOffset dy="4"/>
<feGaussianBlur stdDeviation="2"/>
<feColorMatrix type="matrix" values="0 0 0 0 0 0 0 0 0 0 0 0 0 0 0 0 0 0 0.25 0"/>
<feBlend mode="normal" in2="BackgroundImageFix" result="effect1_dropShadow"/>
<feBlend mode="normal" in="SourceGraphic" in2="effect1_dropShadow" result="shape"/>
</filter>
</defs>
</svg>
