<svg width="1870" height="388" viewBox="0 0 1870 388" fill="none" xmlns="http://www.w3.org/2000/svg">
<g id="Store Title">
<g id="Group 1">
<g id="undraw_stripe_payments_o7aw 1">
<path id="Vector" opacity="0.1" d="M1408.12 81.3646C1407.47 79.3389 1409.05 78.0743 1412.08 77.2695C1417.08 76.0476 1422.32 75.8983 1427.39 76.8335L1423.45 64.6236C1418.41 64.2017 1413.32 64.6674 1408.47 65.9952C1396.84 69.0714 1390.88 76.6273 1393.84 85.8164C1398.44 100.183 1419.46 92.1156 1421.47 98.2959C1422.24 100.674 1420.2 102.074 1416.99 102.922C1412.23 104.183 1405.59 104.024 1400.01 102.922L1403.99 115.287C1409.56 115.917 1415.21 115.512 1420.6 114.097C1432.52 110.926 1438.99 103.422 1435.99 94.1216C1430.95 78.661 1410.01 87.1881 1408.14 81.3686L1408.12 81.3646ZM1438.97 46.6378L1425.86 53.04L1439.2 94.6646C1441.68 102.355 1449.86 106.335 1458.34 104.088C1463.04 102.847 1466.21 101.158 1467.81 99.727L1464.42 89.1821C1462.8 90.3436 1454.52 95.1285 1452.04 87.4378L1446.13 68.9961L1457.02 66.1141L1453.45 55.0459L1442.57 57.9279L1438.97 46.6378ZM1472.49 54.1698L1470.33 50.5663L1457.96 53.8448L1472.59 99.3108L1486.92 95.517L1477 64.7068C1479.09 59.811 1485.06 59.0221 1487.01 59.1251L1483.17 47.1729C1481.13 47.0342 1474.06 47.6685 1472.49 54.1738V54.1698ZM1486.66 46.2413L1501.04 42.4356L1515.68 87.8937L1501.3 91.7034L1486.66 46.2691V46.2413ZM1485.39 42.2771L1498.87 35.6647L1495.47 25.1396L1481.98 31.7005L1485.39 42.3048V42.2771ZM1530.67 33.639C1526.48 34.7311 1522.92 37.25 1520.74 40.6676L1518.96 37.6429L1506.36 40.9808L1525.86 101.558L1539.3 95.0294L1534.62 80.3101C1537.12 81.1029 1540.77 82.2328 1545.81 80.9008C1556.07 78.1853 1563 68.2152 1557.7 51.7596C1552.79 36.6954 1540.69 31.0027 1530.67 33.6548V33.639ZM1538.75 70.3479C1535.37 71.2439 1533.02 70.6849 1531.21 69.6978L1524.94 50.4355C1525.95 48.5366 1527.68 46.9509 1530.95 46.0748C1536.16 44.6913 1541.47 49.0361 1543.66 55.8427C1545.91 62.804 1544.03 68.9248 1538.75 70.336V70.3479ZM1603.02 40.3227C1598.73 27.0226 1588.25 18.4083 1574.67 22.0039C1561.09 25.5995 1556.16 38.293 1560.41 51.49C1565.45 67.1171 1577.72 72.4331 1591.71 68.7345C1598.53 66.9307 1603.23 64.1597 1606.49 61.1548L1603.15 50.7645C1599.82 53.5633 1595.72 55.8388 1590.03 57.3373C1584.48 58.808 1578.98 58.3481 1576.38 52.3819L1604.39 44.9648C1604.17 44.2909 1603.41 41.5595 1603.01 40.3108L1603.02 40.3227ZM1573.12 42.8796C1571.23 37.0086 1574.4 33.52 1578.01 32.5726C1581.51 31.6489 1586.02 33.1038 1587.9 38.9749L1573.12 42.8796Z" fill="black"/>
<path id="Vector_2" d="M1408.12 78.1943C1407.47 76.1686 1409.05 74.904 1412.08 74.0992C1417.08 72.8773 1422.32 72.728 1427.39 73.6632L1423.45 61.4533C1418.41 61.0314 1413.32 61.4971 1408.47 62.8249C1396.84 65.9012 1390.88 73.457 1393.84 82.6462C1398.44 97.0126 1419.46 88.9454 1421.47 95.1256C1422.24 97.5042 1420.2 98.9036 1416.99 99.7519C1412.23 101.013 1405.59 100.854 1400.01 99.7519L1403.99 112.116C1409.56 112.747 1415.21 112.342 1420.6 110.927C1432.52 107.756 1438.99 100.251 1435.99 90.9513C1430.95 75.4907 1410.01 84.0178 1408.14 78.1983L1408.12 78.1943ZM1438.97 43.4675L1425.86 49.8697L1439.2 91.4944C1441.68 99.185 1449.86 103.165 1458.34 100.917C1463.04 99.6766 1466.21 97.9878 1467.81 96.5567L1464.42 86.0118C1462.8 87.1733 1454.52 91.9582 1452.04 84.2675L1446.13 65.8258L1457.02 62.9438L1453.45 51.8756L1442.57 54.7577L1438.97 43.4675ZM1472.49 50.9995L1470.33 47.396L1457.96 50.6745L1472.59 96.1405L1486.92 92.3467L1477 61.5365C1479.09 56.6407 1485.06 55.8518 1487.01 55.9549L1483.17 44.0026C1481.13 43.8639 1474.06 44.4982 1472.49 51.0035V50.9995ZM1486.66 43.071L1501.04 39.2654L1515.68 84.7234L1501.3 88.5331L1486.66 43.0988V43.071ZM1485.39 39.1068L1498.87 32.4944L1495.47 21.9693L1481.98 28.5302L1485.39 39.1345V39.1068ZM1530.67 30.4687C1526.48 31.5608 1522.92 34.0797 1520.74 37.4973L1518.96 34.4726L1506.36 37.8105L1525.86 98.3882L1539.3 91.8591L1534.62 77.1398C1537.12 77.9327 1540.77 79.0625 1545.81 77.7305C1556.07 75.015 1563 65.0449 1557.7 48.5893C1552.79 33.5251 1540.69 27.8325 1530.67 30.4845V30.4687ZM1538.75 67.1777C1535.37 68.0736 1533.02 67.5146 1531.21 66.5275L1524.94 47.2652C1525.95 45.3663 1527.68 43.7806 1530.95 42.9045C1536.16 41.521 1541.47 45.8658 1543.66 52.6725C1545.91 59.6337 1544.03 65.7545 1538.75 67.1658V67.1777ZM1603.02 37.1524C1598.73 23.8524 1588.25 15.238 1574.67 18.8336C1561.09 22.4292 1556.16 35.1227 1560.41 48.3197C1565.45 63.9468 1577.72 69.2629 1591.71 65.5642C1598.53 63.7605 1603.23 60.9895 1606.49 57.9846L1603.15 47.5943C1599.82 50.393 1595.72 52.6685 1590.03 54.167C1584.48 55.6377 1578.98 55.1779 1576.38 49.2117L1604.39 41.7946C1604.17 41.1206 1603.41 38.3893 1603.01 37.1405L1603.02 37.1524ZM1573.12 39.7094C1571.23 33.8383 1574.4 30.3498 1578.01 29.4023C1581.51 28.4786 1586.02 29.9335 1587.9 35.8046L1573.12 39.7094Z" fill="#A4BDA2"/>
<path id="Vector_3" opacity="0.1" d="M1503.76 355.996C1526.11 355.996 1544.22 353.533 1544.22 350.494C1544.22 347.455 1526.11 344.991 1503.76 344.991C1481.42 344.991 1463.3 347.455 1463.3 350.494C1463.3 353.533 1481.42 355.996 1503.76 355.996Z" fill="#A4BDA2"/>
<path id="Vector_4" d="M1488.74 340.567L1410.84 339.663L1411.07 337.852L1414.84 307.965H1483.25L1488.28 337.852L1488.67 340.115L1488.74 340.567Z" fill="#D0D2D5"/>
<path id="Vector_5" opacity="0.1" d="M1488.67 340.115H1449.79L1410.84 339.663L1411.07 337.852H1488.28L1488.67 340.115Z" fill="black"/>
<path id="Vector_6" d="M1501.23 338.304H1397.86V340.567H1501.23V338.304Z" fill="#D0D2D5"/>
<path id="Vector_7" d="M1599.85 128.464C1599.85 127.689 1599.69 126.922 1599.37 126.205C1599.04 125.488 1598.57 124.835 1597.97 124.285C1597.37 123.734 1596.65 123.297 1595.86 122.997C1595.08 122.697 1594.23 122.541 1593.38 122.537H1304.71C1302.98 122.546 1301.33 123.175 1300.12 124.286C1298.91 125.397 1298.23 126.9 1298.24 128.464V287.137H1599.85V128.464Z" fill="#444053"/>
<path id="Vector_8" d="M1298.24 285.551V304.136C1298.24 305.692 1298.92 307.184 1300.13 308.284C1301.35 309.385 1302.99 310.003 1304.71 310.003H1593.38C1594.23 310.003 1595.07 309.852 1595.85 309.557C1596.64 309.263 1597.35 308.83 1597.95 308.285C1598.55 307.741 1599.03 307.094 1599.36 306.382C1599.68 305.669 1599.85 304.906 1599.85 304.136V285.551H1298.24Z" fill="#D0D2D5"/>
<path id="Vector_9" d="M1588.86 132.499H1310.72V275.137H1588.86V132.499Z" fill="white"/>
<path id="Vector_10" d="M1450.54 302.954C1451.56 302.955 1452.57 302.744 1453.49 302.34C1454.41 301.936 1455.21 301.347 1455.84 300.619C1456.04 300.397 1456.21 300.163 1456.37 299.918L1452.69 299.363L1456.69 299.391C1457.07 298.633 1457.28 297.813 1457.3 296.98C1457.33 296.147 1457.16 295.319 1456.82 294.546L1451.45 297.071L1456.4 293.773C1455.93 293.056 1455.31 292.433 1454.56 291.943C1453.82 291.453 1452.97 291.106 1452.07 290.924C1451.18 290.742 1450.25 290.728 1449.34 290.883C1448.44 291.039 1447.58 291.36 1446.82 291.827C1446.06 292.295 1445.41 292.899 1444.92 293.602C1444.42 294.305 1444.09 295.092 1443.95 295.915C1443.8 296.738 1443.84 297.58 1444.07 298.388C1444.29 299.197 1444.7 299.955 1445.26 300.615C1445.89 301.342 1446.69 301.93 1447.6 302.335C1448.52 302.74 1449.52 302.952 1450.54 302.954Z" fill="#A4BDA2"/>
<path id="Vector_11" opacity="0.1" d="M1457.28 310.003L1488.36 338.304L1483.59 310.003H1457.28Z" fill="black"/>
<path id="Vector_12" opacity="0.1" d="M1588.95 132.515H1310.5V140.848H1588.95V132.515Z" fill="#444053"/>
<path id="Vector_13" d="M1319.75 133.966H1312.44C1312.25 133.966 1312.1 134.105 1312.1 134.275V138.727C1312.1 138.898 1312.25 139.037 1312.44 139.037H1319.75C1319.94 139.037 1320.09 138.898 1320.09 138.727V134.275C1320.09 134.105 1319.94 133.966 1319.75 133.966Z" fill="#A4BDA2"/>
<path id="Vector_14" opacity="0.3" d="M1490.82 133.966H1407.43C1407.29 133.966 1407.18 134.069 1407.18 134.196V138.807C1407.18 138.934 1407.29 139.037 1407.43 139.037H1490.82C1490.96 139.037 1491.07 138.934 1491.07 138.807V134.196C1491.07 134.069 1490.96 133.966 1490.82 133.966Z" fill="#A4BDA2"/>
<path id="Vector_15" d="M1488.58 137.023H1488.37L1488.3 136.967C1488.55 136.69 1488.7 136.341 1488.7 135.98C1488.7 135.683 1488.6 135.393 1488.41 135.147C1488.23 134.901 1487.97 134.709 1487.67 134.597C1487.36 134.485 1487.03 134.457 1486.71 134.516C1486.39 134.576 1486.09 134.72 1485.86 134.931C1485.63 135.142 1485.48 135.411 1485.41 135.703C1485.35 135.994 1485.39 136.296 1485.51 136.57C1485.64 136.844 1485.85 137.078 1486.13 137.242C1486.4 137.405 1486.72 137.492 1487.05 137.49C1487.45 137.485 1487.83 137.358 1488.13 137.13L1488.21 137.185V137.372L1489.49 138.533L1489.87 138.184L1488.58 137.023ZM1487.05 137.023C1486.82 137.023 1486.6 136.963 1486.41 136.848C1486.22 136.733 1486.07 136.57 1485.98 136.378C1485.89 136.187 1485.87 135.976 1485.91 135.773C1485.96 135.57 1486.07 135.383 1486.23 135.236C1486.39 135.09 1486.6 134.99 1486.82 134.949C1487.05 134.909 1487.28 134.93 1487.49 135.01C1487.7 135.09 1487.88 135.224 1488.01 135.397C1488.13 135.57 1488.2 135.773 1488.2 135.98C1488.2 136.117 1488.17 136.253 1488.11 136.38C1488.06 136.507 1487.97 136.623 1487.87 136.72C1487.76 136.817 1487.63 136.893 1487.49 136.945C1487.35 136.998 1487.2 137.024 1487.05 137.023Z" fill="#444053"/>
<path id="Vector_16" d="M1584.95 139.037C1586.49 139.037 1587.75 137.901 1587.75 136.499C1587.75 135.098 1586.49 133.962 1584.95 133.962C1583.4 133.962 1582.15 135.098 1582.15 136.499C1582.15 137.901 1583.4 139.037 1584.95 139.037Z" fill="#A4BDA2"/>
<path id="Vector_17" opacity="0.1" d="M1513.49 172.626H1386.01C1381.6 172.626 1378.02 175.654 1378.02 179.389V243.023C1378.02 246.757 1381.6 249.786 1386.01 249.786H1513.49C1517.91 249.786 1521.49 246.757 1521.49 243.023V179.389C1521.49 175.654 1517.91 172.626 1513.49 172.626Z" fill="black"/>
<path id="Vector_18" d="M1508.54 169.002H1391.05C1386.54 169.002 1382.89 172.316 1382.89 176.404V238.761C1382.89 242.849 1386.54 246.162 1391.05 246.162H1508.54C1513.04 246.162 1516.7 242.849 1516.7 238.761V176.404C1516.7 172.316 1513.04 169.002 1508.54 169.002Z" fill="#454B69"/>
<path id="Vector_19" opacity="0.3" d="M1416.12 212.403H1399.04C1397.88 212.403 1396.95 213.255 1396.95 214.306V217.045C1396.95 218.096 1397.88 218.948 1399.04 218.948H1416.12C1417.28 218.948 1418.22 218.096 1418.22 217.045V214.306C1418.22 213.255 1417.28 212.403 1416.12 212.403Z" fill="#A4BDA2"/>
<path id="Vector_20" opacity="0.3" d="M1444.61 212.403H1427.53C1426.38 212.403 1425.44 213.255 1425.44 214.306V217.045C1425.44 218.096 1426.38 218.948 1427.53 218.948H1444.61C1445.77 218.948 1446.71 218.096 1446.71 217.045V214.306C1446.71 213.255 1445.77 212.403 1444.61 212.403Z" fill="#A4BDA2"/>
<path id="Vector_21" opacity="0.3" d="M1453.72 225.838H1439.31C1438.15 225.838 1437.21 226.69 1437.21 227.741V228.755C1437.21 229.806 1438.15 230.658 1439.31 230.658H1453.72C1454.88 230.658 1455.82 229.806 1455.82 228.755V227.741C1455.82 226.69 1454.88 225.838 1453.72 225.838Z" fill="#A4BDA2"/>
<path id="Vector_22" opacity="0.3" d="M1473.1 212.403H1456.02C1454.87 212.403 1453.93 213.255 1453.93 214.306V217.045C1453.93 218.096 1454.87 218.948 1456.02 218.948H1473.1C1474.26 218.948 1475.2 218.096 1475.2 217.045V214.306C1475.2 213.255 1474.26 212.403 1473.1 212.403Z" fill="#A4BDA2"/>
<path id="Vector_23" opacity="0.3" d="M1501.59 212.403H1484.51C1483.36 212.403 1482.42 213.255 1482.42 214.306V217.045C1482.42 218.096 1483.36 218.948 1484.51 218.948H1501.59C1502.75 218.948 1503.69 218.096 1503.69 217.045V214.306C1503.69 213.255 1502.75 212.403 1501.59 212.403Z" fill="#A4BDA2"/>
<path id="Vector_24" d="M1411.99 196.903H1400.13C1399.42 196.903 1398.84 197.426 1398.84 198.072V208.823C1398.84 209.469 1399.42 209.993 1400.13 209.993H1411.99C1412.7 209.993 1413.28 209.469 1413.28 208.823V198.072C1413.28 197.426 1412.7 196.903 1411.99 196.903Z" fill="#A4BDA2"/>
<path id="Vector_25" d="M1408.43 205.6H1403.88V201.469H1408.43V205.6ZM1404.06 205.43H1408.24V201.64H1404.06V205.43Z" fill="#454B69"/>
<path id="Vector_26" d="M1406.25 196.903H1406.06V201.553H1406.25V196.903Z" fill="#454B69"/>
<path id="Vector_27" d="M1406.25 205.513H1406.06V209.993H1406.25V205.513Z" fill="#454B69"/>
<path id="Vector_28" d="M1403.97 203.36H1398.84V203.531H1403.97V203.36Z" fill="#454B69"/>
<path id="Vector_29" d="M1413.28 203.36H1408.34V203.531H1413.28V203.36Z" fill="#454B69"/>
<path id="Vector_30" d="M1403.9 201.616L1402.41 200.272H1398.84V200.098H1402.49L1404.04 201.493L1403.9 201.616Z" fill="#454B69"/>
<path id="Vector_31" d="M1408.4 201.616L1408.28 201.489L1410.01 200.098H1413.28V200.272H1410.09L1408.4 201.616Z" fill="#454B69"/>
<path id="Vector_32" d="M1402.5 207.19H1398.84V207.015H1402.41L1403.9 205.458L1404.04 205.572L1402.5 207.19Z" fill="#454B69"/>
<path id="Vector_33" d="M1413.28 207.19H1410.01L1408.27 205.577L1408.41 205.454L1410.09 207.016H1413.28V207.19Z" fill="#454B69"/>
<path id="Vector_34" d="M1435.51 174.945H1398.64C1397.65 174.945 1396.85 175.672 1396.85 176.57V179.864C1396.85 180.762 1397.65 181.49 1398.64 181.49H1435.51C1436.5 181.49 1437.3 180.762 1437.3 179.864V176.57C1437.3 175.672 1436.5 174.945 1435.51 174.945Z" fill="#A4BDA2"/>
<path id="Vector_35" d="M1523.42 276.866C1523.39 276.184 1523.3 275.502 1523.21 274.824C1522.87 272.279 1522.53 269.734 1521.98 267.225C1521.88 266.735 1521.74 266.255 1521.54 265.789C1521.35 265.349 1521.07 264.945 1520.87 264.509C1520.87 264.493 1520.87 264.477 1520.87 264.461C1521.12 264.35 1521.37 264.239 1521.62 264.121C1521.79 264.039 1521.96 263.945 1522.12 263.839C1522.29 263.733 1522.42 263.598 1522.52 263.443C1522.96 262.745 1522.47 261.857 1522.25 261.064C1522.01 260.212 1522.06 259.189 1521.37 258.618C1518.91 256.636 1520.13 252.592 1518.9 249.754C1518.68 249.259 1518.43 248.771 1518.24 248.264C1518.1 247.867 1518 247.471 1517.89 247.074C1517.02 243.771 1516.1 240.482 1515.13 237.207C1514.11 233.814 1514.22 230.278 1512.94 226.964C1512.7 226.277 1512.39 225.613 1512 224.981C1511.58 224.324 1511 223.757 1510.31 223.32C1508.44 222.155 1506.57 221.16 1504.38 220.736C1502.2 220.312 1499.84 220.379 1497.61 220.387C1496.81 219.383 1495.71 218.606 1494.44 218.147L1494.4 218.044C1494.22 217.643 1494.09 217.227 1493.99 216.803C1493.92 216.383 1493.88 215.959 1493.88 215.535C1493.88 215.079 1493.86 214.619 1493.85 214.163L1493.97 214.056C1494.26 213.776 1494.53 213.477 1494.77 213.16C1495.01 212.861 1495.21 212.544 1495.39 212.213C1495.58 211.837 1495.75 211.448 1495.89 211.051C1496.15 210.248 1496.33 209.424 1496.42 208.589C1496.54 207.61 1496.58 206.607 1496.61 205.628C1496.61 205.43 1496.61 205.232 1496.61 205.029V204.883C1496.61 204.724 1496.61 204.57 1496.61 204.415V204.363C1496.64 203.351 1496.36 202.35 1495.79 201.477C1495 200.407 1493.65 199.892 1492.34 199.464C1489.72 198.639 1486.84 198.096 1484.24 198.98C1482.18 199.686 1480.54 201.224 1478.51 202.005C1478.55 202.075 1478.6 202.148 1478.63 202.223C1478.64 202.233 1478.64 202.244 1478.63 202.254C1478.67 202.326 1478.7 202.393 1478.73 202.465C1478.79 202.625 1478.84 202.791 1478.87 202.96C1478.93 203.28 1478.93 203.607 1478.87 203.927C1478.26 204.177 1477.58 204.267 1476.91 204.189C1477.16 204.936 1477.58 205.627 1478.14 206.219C1478.32 206.425 1478.51 206.615 1478.69 206.833L1478.97 207.142C1479.44 207.641 1479.82 208.201 1480.1 208.803C1480.2 209.042 1480.27 209.291 1480.31 209.545C1480.4 210.048 1480.37 210.627 1480.45 211.13C1480.48 211.347 1480.54 211.559 1480.63 211.761C1480.8 212.805 1481.23 213.798 1481.91 214.658C1482.58 215.518 1483.48 216.219 1484.51 216.704C1484.79 218.271 1484.79 219.87 1484.51 221.437C1484.51 221.525 1484.47 221.612 1484.45 221.699C1483.26 223.059 1482.12 224.494 1480.66 225.556C1479.99 226.03 1479.28 226.446 1478.53 226.801C1478.09 227.031 1477.62 227.209 1477.13 227.328C1476.58 227.443 1476 227.427 1475.45 227.55C1474.4 227.854 1473.51 228.51 1472.96 229.386C1472.69 229.849 1472.38 230.296 1472.05 230.726C1471.74 231.071 1471.36 231.352 1471.03 231.681C1469.86 232.87 1469.54 234.591 1469.28 236.2C1468.37 237.113 1467.37 237.95 1466.3 238.702C1465.96 238.944 1465.59 239.141 1465.19 239.285C1464.16 239.598 1463.02 239.197 1462.13 238.595C1461.23 237.992 1460.53 237.199 1459.67 236.581L1459.44 236.886C1459.37 236.828 1459.31 236.766 1459.26 236.7C1458.9 236.246 1458.66 235.731 1458.54 235.185C1458.22 233.723 1458.82 232.157 1458.35 230.734C1458.18 230.218 1457.77 229.687 1457.2 229.699C1456.64 229.711 1456.28 230.226 1455.79 230.468C1455.01 230.864 1454.04 230.504 1453.27 230.111C1452.49 229.719 1451.6 229.279 1450.75 229.513C1450.73 229.768 1450.78 230.023 1450.89 230.257C1451.01 230.492 1451.18 230.698 1451.4 230.86C1451.84 231.176 1452.2 231.571 1452.46 232.022C1452.58 232.514 1452.63 233.02 1452.6 233.524C1452.69 234.682 1453.48 235.677 1454.24 236.581C1455.18 237.678 1456.17 238.743 1457.2 239.776C1457.08 239.973 1456.88 240.125 1456.65 240.208C1456.59 240.396 1456.59 240.595 1456.65 240.783C1456.69 240.913 1456.75 241.039 1456.82 241.16C1456.92 241.346 1457.04 241.528 1457.14 241.699L1458.68 244.145L1458.93 244.541C1459.03 244.708 1459.14 244.866 1459.25 245.029C1459.61 245.598 1460.04 246.13 1460.53 246.614C1460.77 246.847 1461.04 247.057 1461.33 247.241C1461.52 247.364 1461.72 247.473 1461.93 247.566C1462.22 247.701 1462.53 247.799 1462.86 247.855C1463.02 247.886 1463.18 247.904 1463.34 247.911C1463.51 247.923 1463.67 247.923 1463.84 247.911C1464.34 247.847 1464.84 247.731 1465.31 247.566C1468.24 246.634 1470.92 245.148 1473.7 243.883C1474.09 243.689 1474.5 243.545 1474.92 243.455C1475.07 243.43 1475.21 243.419 1475.36 243.423C1475.51 243.427 1475.66 243.45 1475.8 243.491C1475.94 243.533 1476.07 243.593 1476.19 243.669C1476.44 243.818 1476.61 244.049 1476.67 244.311C1476.75 244.708 1476.83 245.076 1476.91 245.457C1476.99 245.837 1477.07 246.218 1477.16 246.599C1477.34 247.356 1477.52 248.113 1477.74 248.862C1477.86 249.259 1477.97 249.679 1478.09 250.091C1478.37 251.098 1478.64 252.113 1478.9 253.128C1478.98 253.445 1479.05 253.766 1479.12 254.083C1479.25 254.647 1479.34 255.218 1479.4 255.792C1479.4 255.805 1479.4 255.818 1479.4 255.831C1479.44 256.331 1479.45 256.826 1479.45 257.326V258.892L1479.5 263.514C1479.5 264.18 1479.1 264.596 1478.79 265.195C1478.73 265.318 1478.67 265.445 1478.63 265.571C1478.57 265.733 1478.52 265.897 1478.48 266.063C1478.48 266.115 1478.46 266.17 1478.45 266.222C1478.44 266.273 1478.45 266.344 1478.42 266.404C1478.39 266.463 1478.42 266.523 1478.4 266.578C1478.38 266.634 1478.4 266.697 1478.4 266.753C1478.4 266.808 1478.4 266.88 1478.4 266.943C1478.4 267.007 1478.4 267.054 1478.4 267.106C1478.4 267.157 1478.4 267.244 1478.4 267.312C1478.4 267.379 1478.4 267.411 1478.4 267.458C1478.4 267.506 1478.43 267.613 1478.44 267.692L1478.47 267.811C1478.5 267.926 1478.53 268.041 1478.57 268.156C1478.66 268.394 1478.77 268.628 1478.88 268.858C1479 269.088 1479.11 269.322 1479.21 269.559C1479.27 269.71 1479.32 269.864 1479.36 270.019C1479.38 270.055 1479.38 270.09 1479.39 270.126C1479.43 270.249 1479.46 270.372 1479.48 270.499V270.586C1479.51 270.721 1479.53 270.86 1479.55 270.983C1479.55 270.998 1479.55 271.014 1479.55 271.03C1479.55 271.185 1479.58 271.339 1479.59 271.494C1479.63 272.057 1479.62 272.632 1479.59 273.199L1479.54 276.021V276.108C1479.53 276.196 1479.56 276.284 1479.6 276.362C1479.63 276.407 1479.68 276.443 1479.73 276.468C1479.78 276.493 1479.84 276.506 1479.89 276.505C1480.12 276.49 1480.33 276.416 1480.5 276.291L1481.89 275.375H1481.98C1480.88 277.004 1480 278.8 1479.83 280.715C1479.77 281.979 1479.86 283.246 1480.1 284.493C1481.38 292.818 1484.4 301.218 1483.76 309.622C1483.51 312.932 1485.03 316.159 1485.02 319.473C1485.02 320.762 1484.78 322.038 1484.72 323.323C1484.45 328.841 1487.55 334.423 1486.29 339.814C1486.73 341.154 1488.38 341.867 1488.85 343.199C1489.24 344.329 1488.68 345.53 1488.22 346.636C1488.05 347.022 1487.92 347.42 1487.84 347.826C1486.56 347.826 1485.15 347.85 1484.3 348.171C1484.07 348.24 1483.84 348.325 1483.62 348.424C1482.84 348.848 1482.78 350.01 1483.28 350.712C1483.77 351.413 1486.55 353.653 1487.36 354.022L1489.14 354.815C1490.09 355.304 1491.13 355.657 1492.2 355.861C1493.1 355.952 1494.02 355.936 1494.91 355.814C1495.61 355.746 1496.38 355.643 1496.83 355.128C1497.46 354.398 1497.14 353.213 1496.71 352.159C1496.87 352.043 1496.99 351.891 1497.07 351.719C1497.14 351.443 1497.18 351.159 1497.18 350.874C1497.31 350.323 1497.52 349.79 1497.8 349.289C1498.53 347.675 1498.5 345.859 1498.46 344.103C1498.47 341.248 1498.25 338.396 1497.81 335.568C1497.59 334.379 1497.3 333.19 1497.04 332C1496.11 327.694 1495.71 323.306 1495.85 318.918C1495.87 317.853 1495.7 316.791 1495.36 315.771C1495.22 315.182 1495.18 314.575 1495.25 313.975L1495.78 306.716C1495.93 305.24 1495.95 303.756 1495.85 302.276C1495.78 301.484 1495.63 300.691 1495.54 299.898C1495.41 298.387 1495.38 296.869 1495.46 295.355C1495.51 293.726 1495.59 291.977 1496.62 290.669C1496.67 290.585 1496.74 290.511 1496.83 290.452C1496.91 290.393 1497.01 290.35 1497.11 290.324C1497.32 290.296 1497.38 290.554 1497.3 290.721C1497.41 291.022 1497.52 291.319 1497.64 291.621C1497.67 291.708 1497.7 291.791 1497.74 291.874C1497.8 292.029 1497.86 292.183 1497.92 292.338C1497.98 292.493 1498.01 292.552 1498.04 292.659L1498.22 293.056C1498.26 293.175 1498.32 293.289 1498.36 293.404C1498.41 293.519 1498.47 293.654 1498.53 293.777C1498.59 293.9 1498.64 294.023 1498.7 294.146C1498.77 294.269 1498.81 294.372 1498.87 294.487L1499.08 294.883C1499.13 294.982 1499.18 295.085 1499.24 295.184C1499.29 295.284 1499.41 295.474 1499.5 295.617C1499.54 295.7 1499.59 295.783 1499.64 295.862C1499.78 296.084 1499.93 296.298 1500.08 296.512C1500.38 296.909 1500.7 297.305 1500.96 297.729C1501.05 297.869 1501.13 298.013 1501.2 298.162C1501.44 298.709 1501.63 299.274 1501.77 299.85C1501.93 300.374 1502.11 300.885 1502.3 301.388C1502.5 301.892 1502.74 302.395 1502.95 302.887C1503.07 303.133 1503.19 303.379 1503.32 303.62C1503.68 304.354 1504.08 305.075 1504.48 305.789C1504.55 305.915 1504.61 306.048 1504.65 306.185C1504.67 306.252 1504.69 306.319 1504.7 306.387C1504.71 306.519 1504.71 306.652 1504.7 306.784C1504.69 306.866 1504.68 306.949 1504.66 307.03C1504.64 307.152 1504.6 307.271 1504.55 307.386C1504.01 308.5 1504.44 309.598 1504.68 310.693C1504.88 311.846 1504.98 313.013 1504.97 314.181C1504.97 314.578 1504.97 314.974 1505.01 315.343C1505.01 315.826 1505.01 316.306 1505.04 316.79C1505.07 317.273 1505.04 317.828 1505.07 318.348C1505.08 318.868 1505.06 319.388 1505 319.905C1505 320.088 1504.95 320.266 1504.92 320.445C1504.83 320.98 1504.69 321.511 1504.57 322.03C1504.14 324.121 1503.93 326.246 1503.97 328.373C1503.97 329.227 1504 330.082 1504.06 330.938C1504.11 331.798 1504.19 332.655 1504.27 333.515C1504.31 333.987 1504.37 334.458 1504.42 334.93C1504.51 335.747 1504.6 336.563 1504.7 337.38C1504.79 338.197 1504.9 339.096 1504.99 339.949C1505.08 340.801 1505.17 341.653 1505.23 342.502C1505.27 342.922 1505.18 343.344 1504.95 343.715C1504.86 343.862 1504.79 344.016 1504.73 344.175C1504.69 344.285 1504.66 344.397 1504.64 344.512C1504.61 344.643 1504.59 344.775 1504.58 344.908C1504.57 345.186 1504.59 345.465 1504.64 345.741C1504.66 345.878 1504.69 346.01 1504.72 346.137C1504.78 346.41 1504.86 346.684 1504.94 346.954C1505.12 347.701 1505.41 348.421 1505.81 349.094C1505.9 349.233 1505.99 349.365 1506.1 349.491C1506.13 349.53 1506.17 349.566 1506.2 349.606C1506.29 349.701 1506.38 349.802 1506.45 349.907C1506.49 349.956 1506.52 350.008 1506.54 350.062C1506.63 350.281 1506.65 350.519 1506.6 350.747C1506.55 350.985 1506.46 351.223 1506.39 351.449L1506.61 351.477C1506.29 352.393 1506.15 353.332 1506.68 353.947C1507.12 354.462 1507.9 354.565 1508.6 354.632C1509.5 354.758 1510.41 354.776 1511.31 354.684C1512.39 354.48 1513.42 354.127 1514.37 353.637L1516.15 352.844C1516.97 352.476 1519.74 350.252 1520.23 349.53C1520.72 348.809 1520.67 347.671 1519.89 347.247C1519.67 347.146 1519.44 347.059 1519.21 346.989C1518.42 346.692 1517.15 346.664 1515.96 346.648C1515.9 346.252 1515.86 345.82 1515.85 345.411C1515.77 343.894 1515.8 342.374 1515.94 340.861C1516.04 339.786 1516.2 338.716 1516.18 337.642C1516.18 336.206 1515.85 334.787 1515.68 333.36C1515.51 331.933 1515.5 330.538 1515.47 329.126C1515.43 327.049 1516.1 325.071 1516.4 323.017L1516.91 319.406C1516.99 318.967 1517.01 318.52 1516.94 318.078C1516.86 317.682 1516.66 317.285 1516.58 316.889C1516.4 315.989 1516.85 315.097 1516.99 314.189C1517.15 313.146 1516.9 312.088 1516.74 311.041C1516.53 309.389 1516.43 307.726 1516.44 306.062C1516.28 295.835 1515.96 285.377 1512.15 275.807C1512 275.411 1511.83 275.014 1511.66 274.646C1511.74 274.627 1511.82 274.604 1511.89 274.578C1512.01 274.538 1512.12 274.485 1512.23 274.42C1512.27 274.394 1512.32 274.365 1512.36 274.332C1512.48 274.222 1512.57 274.086 1512.62 273.936C1512.67 273.791 1512.69 273.64 1512.69 273.488C1512.69 273.22 1512.65 272.954 1512.57 272.695L1512.51 272.533C1512.43 272.263 1512.33 271.998 1512.23 271.74C1512.13 271.482 1512.03 271.232 1511.92 270.979C1511.69 270.508 1511.51 270.022 1511.37 269.524C1511.1 268.398 1511.37 267.098 1510.62 266.182C1508.97 264.128 1510.14 260.973 1509.45 258.471C1509.22 257.679 1508.89 256.886 1508.68 256.093C1508.55 255.585 1508.46 255.066 1508.38 254.547C1508.16 253.424 1508.05 252.286 1508.06 251.146C1508.06 250.575 1508.15 250.004 1508.23 249.437L1508.75 245.504C1509.34 246.522 1509.76 247.612 1509.99 248.739C1510.03 248.902 1510.07 249.06 1510.11 249.223C1510.58 251.163 1511.16 253.079 1511.85 254.963C1512.25 256.101 1512.65 257.235 1513.07 258.36C1513.2 258.682 1513.32 259.007 1513.44 259.336C1513.55 259.664 1513.64 259.999 1513.7 260.339C1513.75 260.608 1513.77 260.886 1513.79 261.159C1513.81 261.433 1513.83 261.714 1513.86 261.988C1514 263.159 1514.44 264.285 1515.13 265.282C1515.15 265.308 1515.17 265.334 1515.19 265.361C1515.31 265.554 1515.5 265.703 1515.72 265.782C1515.88 265.811 1516.04 265.811 1516.2 265.782H1516.23C1516.46 265.738 1516.69 265.69 1516.92 265.639C1516.95 265.633 1516.98 265.625 1517.02 265.615C1517.12 266.844 1517.52 268.069 1517.56 269.31C1517.6 271.113 1516.87 272.842 1516.41 274.59C1516.02 276.186 1515.76 277.805 1515.63 279.434C1515.57 279.757 1515.59 280.088 1515.69 280.402C1515.74 280.554 1515.85 280.686 1515.99 280.775C1516.14 280.864 1516.31 280.904 1516.49 280.889C1516.61 280.852 1516.73 280.792 1516.82 280.714C1516.92 280.635 1517 280.54 1517.05 280.433C1517.57 279.65 1517.75 278.716 1517.54 277.821C1517.95 277.9 1518.17 278.332 1518.27 278.725C1518.53 279.742 1518.47 280.808 1518.08 281.793C1517.83 282.451 1517.43 283.058 1517.21 283.736C1517.13 283.947 1517.13 284.175 1517.21 284.386C1517.43 284.842 1518.12 284.81 1518.62 284.643C1520.25 284.041 1521.57 282.911 1522.33 281.472C1523.1 280.041 1523.48 278.459 1523.42 276.866Z" fill="url(#paint0_linear)"/>
<path id="Vector_36" d="M1497.91 355.164C1497.45 355.675 1496.65 355.778 1495.92 355.845C1494.98 355.968 1494.03 355.984 1493.09 355.893C1491.98 355.69 1490.91 355.34 1489.91 354.854L1488.06 354.061C1487.22 353.693 1484.33 351.481 1483.81 350.763C1483.3 350.046 1483.35 348.916 1484.16 348.492C1484.4 348.392 1484.64 348.308 1484.88 348.238C1486.25 347.746 1489.01 347.996 1490.46 347.806C1491.18 347.775 1491.89 347.928 1492.52 348.246C1493.96 348.821 1496.48 349.277 1497.11 350.739C1497.59 351.865 1498.92 354.05 1497.91 355.164Z" fill="#2F2E41"/>
<path id="Vector_37" d="M1508.21 354.077C1508.68 354.589 1509.48 354.692 1510.2 354.759C1512.27 355.11 1514.41 354.755 1516.2 353.764L1518.06 352.971C1518.91 352.603 1521.79 350.391 1522.31 349.673C1522.82 348.955 1522.77 347.822 1521.95 347.402C1521.72 347.3 1521.49 347.215 1521.24 347.148C1519.88 346.656 1517.11 346.906 1515.66 346.716C1514.94 346.684 1514.22 346.836 1513.59 347.156C1512.17 347.731 1509.66 348.186 1509.01 349.649C1508.51 350.779 1507.18 352.963 1508.21 354.077Z" fill="#2F2E41"/>
<path id="Vector_38" d="M1512.72 273.92C1513.16 274.699 1513.55 275.505 1513.88 276.33C1517.85 285.845 1518.18 296.255 1518.35 306.431C1518.34 308.086 1518.44 309.74 1518.66 311.382C1518.83 312.425 1519.1 313.475 1518.92 314.518C1518.78 315.418 1518.31 316.306 1518.48 317.198C1518.57 317.594 1518.78 317.991 1518.86 318.387C1518.92 318.826 1518.91 319.272 1518.82 319.707L1518.29 323.299C1517.98 325.344 1517.28 327.311 1517.32 329.376C1517.35 330.783 1517.38 332.191 1517.55 333.59C1517.8 335 1517.97 336.421 1518.07 337.848C1518.07 338.918 1517.92 339.984 1517.81 341.051C1517.67 342.556 1517.63 344.069 1517.71 345.578C1517.77 346.739 1517.92 347.957 1518.59 348.936C1517.82 349.927 1517.07 350.815 1515.85 351.314C1513.37 352.297 1510.53 351.964 1507.85 351.612C1507.99 351.164 1508.22 350.656 1508.01 350.228C1507.88 350.021 1507.73 349.83 1507.55 349.661C1506.97 348.906 1506.56 348.051 1506.36 347.148C1506.03 346.073 1505.71 344.92 1506.36 343.893C1506.58 343.533 1506.68 343.118 1506.65 342.704C1506.09 335.965 1504.44 328.972 1505.96 322.347C1506.12 321.642 1506.32 320.936 1506.4 320.219C1506.48 319.187 1506.5 318.152 1506.44 317.119L1506.46 315.64C1506.38 314.106 1506.46 312.532 1506.11 311.014C1505.87 309.927 1505.42 308.833 1505.97 307.723C1506.1 307.471 1506.15 307.197 1506.14 306.922C1506.12 306.647 1506.04 306.379 1505.89 306.138C1504.71 304.267 1503.77 302.285 1503.07 300.227C1502.92 299.652 1502.72 299.09 1502.47 298.546C1502.13 297.972 1501.74 297.425 1501.3 296.909C1499.99 295.161 1499.18 293.135 1498.4 291.137C1498.48 290.951 1498.4 290.697 1498.2 290.74C1498.1 290.764 1498 290.807 1497.91 290.866C1497.82 290.925 1497.75 291 1497.69 291.085C1496.62 292.386 1496.53 294.122 1496.48 295.747C1496.4 297.254 1496.43 298.763 1496.57 300.267C1496.66 301.059 1496.81 301.852 1496.89 302.645C1496.99 304.117 1496.97 305.593 1496.81 307.061L1496.27 314.252C1496.2 314.85 1496.24 315.455 1496.39 316.04C1496.74 317.052 1496.91 318.108 1496.89 319.168C1496.76 323.529 1497.18 327.89 1498.15 332.163C1498.42 333.352 1498.73 334.518 1498.95 335.703C1499.41 338.515 1499.63 341.353 1499.63 344.194C1499.68 345.943 1499.71 347.762 1498.95 349.348C1498.65 349.846 1498.43 350.38 1498.3 350.934C1498.3 351.217 1498.26 351.5 1498.18 351.774C1497.95 352.293 1497.3 352.515 1496.69 352.634C1495.56 352.857 1494.4 352.931 1493.24 352.856C1492.97 352.854 1492.71 352.8 1492.46 352.698C1492.02 352.496 1491.81 352.067 1491.48 351.746C1490.77 351.049 1489.6 350.835 1488.96 350.089C1488.16 349.154 1488.49 347.802 1488.96 346.7C1489.43 345.598 1490.03 344.405 1489.62 343.279C1489.13 341.959 1487.43 341.245 1486.95 339.913C1488.26 334.545 1485.03 328.996 1485.31 323.505C1485.38 322.225 1485.62 320.956 1485.62 319.676C1485.62 316.377 1484.06 313.166 1484.31 309.876C1484.97 301.515 1481.83 293.167 1480.5 284.869C1480.25 283.632 1480.15 282.372 1480.22 281.115C1480.42 279.038 1481.48 277.107 1482.76 275.375C1483.67 274.134 1484.78 272.917 1486.29 272.338C1487.54 271.859 1488.94 271.863 1490.3 271.871C1493.68 271.894 1497.07 271.918 1500.45 271.974C1502.75 271.944 1505.05 272.13 1507.31 272.529C1509.14 272.905 1510.86 273.678 1512.72 273.92Z" fill="#2F2E41"/>
<g id="Group" opacity="0.1">
<path id="Vector_39" opacity="0.1" d="M1498.76 291.062C1498.87 290.89 1499.05 290.766 1499.27 290.717C1499.49 290.689 1499.55 290.943 1499.47 291.113C1500.25 293.095 1501.04 295.137 1502.37 296.885C1502.81 297.4 1503.2 297.948 1503.54 298.522C1503.79 299.067 1503.99 299.629 1504.14 300.203C1504.84 302.261 1505.78 304.243 1506.96 306.114C1507.11 306.355 1507.19 306.623 1507.2 306.898C1507.22 307.173 1507.16 307.447 1507.04 307.7C1506.48 308.81 1506.94 309.904 1507.18 310.99C1507.52 312.508 1507.45 314.082 1507.53 315.616C1507.53 316.096 1507.53 316.576 1507.56 317.055C1507.62 318.088 1507.61 319.124 1507.52 320.155C1507.43 320.873 1507.24 321.578 1507.09 322.284C1505.56 328.908 1507.22 335.889 1507.77 342.64C1507.81 343.054 1507.71 343.469 1507.48 343.83C1506.82 344.856 1507.14 346.01 1507.48 347.084C1507.68 347.988 1508.09 348.844 1508.68 349.598C1508.85 349.77 1508.99 349.961 1509.11 350.165C1509.33 350.593 1509.11 351.1 1508.95 351.548C1510.13 351.721 1511.33 351.836 1512.52 351.893C1510.97 351.905 1509.42 351.789 1507.89 351.548C1508.03 351.1 1508.26 350.593 1508.05 350.165C1507.92 349.958 1507.77 349.767 1507.59 349.598C1507 348.843 1506.6 347.987 1506.39 347.084C1506.07 346.01 1505.75 344.856 1506.39 343.83C1506.62 343.469 1506.72 343.055 1506.69 342.64C1506.13 335.901 1504.48 328.908 1506 322.284C1506.16 321.578 1506.36 320.873 1506.44 320.155C1506.52 319.124 1506.54 318.088 1506.48 317.055C1506.48 316.576 1506.46 316.096 1506.45 315.616C1506.37 314.082 1506.45 312.508 1506.1 310.99C1505.86 309.904 1505.4 308.81 1505.96 307.7C1506.08 307.447 1506.14 307.173 1506.12 306.898C1506.11 306.623 1506.03 306.355 1505.88 306.114C1504.7 304.244 1503.75 302.261 1503.05 300.203C1502.91 299.629 1502.71 299.067 1502.46 298.522C1502.12 297.948 1501.73 297.401 1501.29 296.885C1500.02 295.216 1499.24 293.297 1498.49 291.387C1498.59 291.288 1498.67 291.173 1498.76 291.062Z" fill="black"/>
</g>
<path id="Vector_40" d="M1458.05 235.804C1457.72 234.349 1458.34 232.791 1457.86 231.376C1457.68 230.864 1457.25 230.333 1456.66 230.345C1456.07 230.357 1455.7 230.868 1455.19 231.11C1454.38 231.507 1453.38 231.146 1452.57 230.757C1451.76 230.369 1450.82 229.925 1449.95 230.159C1449.84 230.666 1450.22 231.146 1450.63 231.499C1451.08 231.811 1451.45 232.205 1451.73 232.656C1451.93 233.124 1451.84 233.647 1451.88 234.151C1451.97 235.3 1452.75 236.295 1453.58 237.191C1454.88 238.635 1456.25 240.018 1457.7 241.334C1457.7 241.334 1459.89 238.86 1459.86 238.428C1459.83 237.996 1459.08 237.635 1458.81 237.31C1458.44 236.865 1458.18 236.351 1458.05 235.804Z" fill="#A1616A"/>
<path id="Vector_41" d="M1523.65 266.249C1523.85 266.711 1523.99 267.189 1524.09 267.676C1524.66 270.174 1525.01 272.707 1525.37 275.236C1525.46 275.91 1525.56 276.588 1525.58 277.266C1525.68 278.881 1525.32 280.493 1524.52 281.94C1523.71 283.396 1522.34 284.527 1520.66 285.111C1520.14 285.278 1519.42 285.309 1519.19 284.858C1519.11 284.648 1519.11 284.42 1519.19 284.211C1519.4 283.537 1519.82 282.931 1520.07 282.277C1520.47 281.3 1520.54 280.236 1520.26 279.224C1520.16 278.828 1519.93 278.404 1519.5 278.324C1519.72 279.218 1519.53 280.153 1518.99 280.925C1518.93 281.032 1518.85 281.127 1518.75 281.205C1518.65 281.282 1518.53 281.341 1518.41 281.377C1518.23 281.394 1518.05 281.355 1517.9 281.267C1517.75 281.179 1517.63 281.047 1517.58 280.893C1517.47 280.581 1517.45 280.251 1517.51 279.93C1517.65 278.307 1517.92 276.695 1518.32 275.109C1518.81 273.369 1519.57 271.653 1519.52 269.857C1519.47 268.231 1518.76 266.634 1518.96 265.02C1518.96 264.931 1518.99 264.843 1519.05 264.771C1519.11 264.699 1519.19 264.647 1519.29 264.624C1519.79 264.437 1520.3 264.282 1520.83 264.16C1521.14 264.089 1522.2 263.764 1522.5 263.906C1522.79 264.049 1522.81 264.751 1522.93 264.997C1523.16 265.405 1523.45 265.809 1523.65 266.249Z" fill="#A1616A"/>
<path id="Vector_42" d="M1488.27 218.084C1492.31 218.084 1495.59 215.111 1495.59 211.444C1495.59 207.776 1492.31 204.803 1488.27 204.803C1484.23 204.803 1480.95 207.776 1480.95 211.444C1480.95 215.111 1484.23 218.084 1488.27 218.084Z" fill="#A1616A"/>
<path id="Vector_43" d="M1494.83 216.248C1494.83 216.672 1494.87 217.095 1494.94 217.513C1495.04 217.936 1495.19 218.348 1495.38 218.746C1495.62 219.395 1495.97 220.009 1496.4 220.569C1496.84 221.135 1497.51 221.527 1498.25 221.663C1493.25 223.792 1487.9 225.193 1482.42 225.814C1483.28 225.293 1484 224.597 1484.51 223.78C1484.79 223.258 1484.98 222.701 1485.07 222.127C1485.54 219.726 1485.3 217.255 1484.38 214.964C1484.29 214.742 1484.2 214.464 1484.38 214.278C1484.46 214.212 1484.55 214.16 1484.65 214.127C1486.82 213.291 1489.17 212.893 1491.53 212.962C1492.13 212.962 1492.73 212.99 1493.34 213.029C1493.66 213.053 1494.37 212.99 1494.65 213.204C1494.92 213.418 1494.8 214.258 1494.81 214.603L1494.83 216.248Z" fill="#A1616A"/>
<path id="Vector_44" d="M1498.7 221.093C1497.63 219.842 1496.12 218.954 1494.42 218.57C1492.72 218.187 1490.93 218.329 1489.33 218.976C1485.83 220.486 1484.13 224.129 1481.06 226.238C1480.37 226.712 1479.62 227.127 1478.84 227.479C1478.38 227.709 1477.89 227.885 1477.38 228.002C1476.81 228.117 1476.22 228.101 1475.64 228.224C1474.55 228.514 1473.62 229.165 1473.04 230.048C1472.76 230.51 1472.44 230.955 1472.09 231.38C1471.77 231.725 1471.37 232.006 1471.04 232.335C1469.82 233.524 1469.48 235.229 1469.21 236.831C1468.25 237.741 1467.21 238.573 1466.1 239.316C1465.75 239.561 1465.36 239.756 1464.94 239.895C1463.87 240.212 1462.69 239.812 1461.77 239.213C1460.86 238.615 1460.12 237.826 1459.22 237.231C1458.39 238.301 1457.52 239.38 1456.64 240.402C1456.51 240.601 1456.3 240.753 1456.06 240.831C1455.9 241.338 1456.3 241.861 1456.59 242.313L1458.19 244.747C1458.72 245.632 1459.37 246.455 1460.12 247.197C1460.89 247.928 1461.94 248.372 1463.05 248.446C1463.75 248.44 1464.45 248.318 1465.11 248.085C1468.17 247.158 1470.94 245.679 1473.85 244.418C1474.38 244.148 1474.96 243.992 1475.57 243.962C1475.87 243.956 1476.16 244.039 1476.41 244.199C1476.65 244.358 1476.83 244.585 1476.92 244.846C1477.25 246.369 1477.58 247.883 1478.04 249.374C1478.47 250.785 1478.87 252.2 1479.24 253.619C1479.48 254.49 1479.66 255.377 1479.76 256.271C1479.81 256.779 1479.81 257.286 1479.82 257.798L1479.88 263.95C1479.88 264.616 1479.47 265.028 1479.15 265.623C1478.66 266.548 1478.59 267.608 1478.94 268.58C1479.12 269.06 1479.41 269.504 1479.61 269.98C1480.09 271.125 1480.07 272.386 1480.05 273.611L1479.99 276.418C1479.97 276.535 1480 276.654 1480.06 276.759C1480.24 277.024 1480.7 276.87 1480.99 276.687L1482.42 275.799C1484.35 276.042 1486.31 276.128 1488.27 276.057C1493.82 275.986 1499.38 276.184 1504.93 276.537C1506.78 276.656 1508.69 276.782 1510.44 276.223C1511.31 275.938 1512.14 275.482 1513.06 275.256C1513.44 275.2 1513.79 275.065 1514.1 274.86C1514.6 274.436 1514.47 273.67 1514.26 273.092C1514.08 272.568 1513.87 272.049 1513.64 271.542C1513.41 271.074 1513.21 270.59 1513.07 270.095C1512.79 268.977 1513.07 267.68 1512.29 266.769C1510.57 264.727 1511.79 261.583 1511.06 259.098C1510.83 258.305 1510.49 257.512 1510.27 256.719C1510.13 256.212 1510.04 255.697 1509.96 255.181C1509.73 254.065 1509.62 252.931 1509.62 251.796C1509.62 251.229 1509.72 250.662 1509.8 250.099L1510.35 246.182C1511.03 247.342 1511.5 248.591 1511.75 249.885C1512.25 251.818 1512.86 253.725 1513.59 255.597C1514 256.727 1514.41 257.853 1514.86 258.975C1515.14 259.616 1515.36 260.279 1515.51 260.957C1515.61 261.5 1515.61 262.055 1515.68 262.598C1515.83 263.769 1516.28 264.893 1516.99 265.877C1517.13 266.105 1517.35 266.283 1517.61 266.376C1517.79 266.412 1517.97 266.412 1518.15 266.376C1520.08 266.03 1521.95 265.443 1523.71 264.632C1524.08 264.49 1524.41 264.26 1524.65 263.966C1525.12 263.268 1524.59 262.4 1524.36 261.607C1524.13 260.814 1524.17 259.74 1523.44 259.173C1520.87 257.191 1522.13 253.175 1520.86 250.353C1520.64 249.857 1520.38 249.378 1520.18 248.87C1520.03 248.474 1519.92 248.077 1519.82 247.681C1518.92 244.396 1517.96 241.123 1516.94 237.861C1515.88 234.484 1515.99 230.968 1514.66 227.669C1514.41 226.98 1514.08 226.316 1513.69 225.687C1513.24 225.029 1512.64 224.466 1511.94 224.034C1510 222.873 1508.05 221.885 1505.77 221.465C1503.5 221.045 1501.02 221.069 1498.7 221.093Z" fill="#3F3D56"/>
<path id="Vector_45" d="M1481.62 213.069C1480.63 212.589 1480.89 211.281 1480.74 210.294C1480.4 208.229 1477.83 207.008 1477.24 204.994C1477.94 205.072 1478.64 204.982 1479.28 204.732C1479.4 204.063 1479.26 203.377 1478.87 202.798C1480.98 202.005 1482.7 200.494 1484.84 199.793C1487.54 198.909 1490.52 199.452 1493.27 200.272C1494.63 200.669 1496.04 201.212 1496.86 202.274C1497.76 203.444 1497.73 204.978 1497.7 206.405C1497.62 208.641 1497.52 210.956 1496.43 212.958C1495.03 215.507 1491.08 217.866 1487.81 217.176C1486.45 216.89 1486.06 216.113 1485.48 215.043C1485.12 214.377 1484.99 213.604 1484.16 213.255C1483.34 212.906 1482.42 213.457 1481.62 213.069Z" fill="#3F3D56"/>
<g id="Group_2" opacity="0.1">
<path id="Vector_46" opacity="0.1" d="M1480.02 274.083C1480.02 274.095 1480.02 274.107 1480.02 274.118C1480.21 274.384 1480.67 274.229 1480.96 274.047L1482.41 273.139C1484.34 273.38 1486.3 273.465 1488.26 273.393C1493.81 273.322 1499.37 273.52 1504.92 273.873C1506.77 273.992 1508.68 274.118 1510.43 273.559C1511.3 273.274 1512.13 272.822 1513.05 272.592C1513.37 272.539 1513.68 272.44 1513.96 272.299C1514.06 272.56 1514.16 272.822 1514.26 273.092C1514.46 273.69 1514.6 274.436 1514.09 274.86C1513.78 275.064 1513.43 275.2 1513.05 275.256C1512.14 275.482 1511.3 275.938 1510.43 276.223C1508.68 276.782 1506.77 276.655 1504.92 276.537C1499.37 276.184 1493.81 275.986 1488.26 276.057C1486.31 276.128 1484.35 276.041 1482.42 275.799L1480.96 276.711C1480.68 276.893 1480.22 277.048 1480.03 276.782C1479.97 276.677 1479.95 276.558 1479.97 276.441C1479.99 275.656 1480.01 274.87 1480.02 274.083Z" fill="black"/>
<path id="Vector_47" opacity="0.1" d="M1511.75 249.877C1511.5 248.583 1511.03 247.334 1510.35 246.174L1509.8 250.091C1509.77 250.337 1509.73 250.583 1509.7 250.828C1509.63 250.265 1509.6 249.698 1509.62 249.132C1509.62 248.565 1509.72 247.998 1509.8 247.435L1510.35 243.518C1511.03 244.678 1511.5 245.927 1511.75 247.221C1512.25 249.154 1512.86 251.061 1513.59 252.933C1514 254.063 1514.41 255.193 1514.86 256.311C1515.14 256.952 1515.36 257.615 1515.51 258.293C1515.61 258.836 1515.61 259.391 1515.68 259.934C1515.82 261.106 1516.27 262.23 1516.99 263.213C1517.12 263.442 1517.34 263.62 1517.61 263.712C1517.79 263.741 1517.97 263.734 1518.15 263.692C1520.08 263.346 1521.95 262.759 1523.71 261.948C1523.94 261.845 1524.16 261.718 1524.36 261.571C1524.59 262.364 1525.12 263.233 1524.65 263.93C1524.4 264.224 1524.08 264.454 1523.71 264.596C1521.95 265.407 1520.08 265.994 1518.15 266.34C1517.97 266.376 1517.79 266.376 1517.61 266.34C1517.34 266.248 1517.12 266.07 1516.99 265.841C1516.27 264.858 1515.82 263.734 1515.68 262.563C1515.61 262.019 1515.61 261.464 1515.51 260.921C1515.36 260.244 1515.14 259.58 1514.86 258.939C1514.42 257.817 1513.98 256.692 1513.59 255.562C1512.86 253.698 1512.25 251.801 1511.75 249.877Z" fill="black"/>
<path id="Vector_48" opacity="0.1" d="M1511.3 260.672C1511.3 260.846 1511.3 261.024 1511.3 261.203C1511.31 261.024 1511.31 260.85 1511.3 260.672Z" fill="black"/>
<path id="Vector_49" opacity="0.1" d="M1479.6 267.339C1480.08 268.485 1480.06 269.746 1480.03 270.971C1480.03 271.292 1480.03 271.609 1480.03 271.93C1480 271.269 1479.85 270.617 1479.6 269.996C1479.4 269.52 1479.11 269.076 1478.93 268.596C1478.63 267.756 1478.64 266.848 1478.97 266.015C1479.15 266.467 1479.4 266.892 1479.6 267.339Z" fill="black"/>
<path id="Vector_50" opacity="0.1" d="M1456.65 240.379L1456.9 240.085L1458.21 242.067C1458.74 242.953 1459.39 243.776 1460.14 244.517C1460.9 245.261 1461.95 245.72 1463.06 245.806C1463.77 245.799 1464.46 245.678 1465.12 245.449C1468.18 244.517 1470.96 243.039 1473.87 241.778C1474.38 241.507 1474.96 241.347 1475.55 241.31C1475.85 241.305 1476.15 241.389 1476.39 241.549C1476.64 241.709 1476.82 241.937 1476.91 242.198C1477.24 243.717 1477.57 245.231 1478.02 246.721C1478.46 248.133 1478.86 249.548 1479.22 250.967C1479.47 251.838 1479.65 252.725 1479.75 253.619C1479.8 254.127 1479.8 254.638 1479.81 255.145L1479.87 261.302C1479.87 261.392 1479.86 261.483 1479.85 261.572L1479.81 257.802C1479.81 257.29 1479.81 256.783 1479.75 256.275C1479.65 255.381 1479.47 254.494 1479.22 253.623C1478.85 252.204 1478.45 250.789 1478.02 249.377C1477.59 247.887 1477.24 246.373 1476.91 244.85C1476.82 244.589 1476.64 244.362 1476.39 244.202C1476.15 244.043 1475.85 243.96 1475.55 243.966C1474.95 243.996 1474.36 244.152 1473.84 244.422C1470.94 245.683 1468.16 247.161 1465.1 248.089C1464.44 248.322 1463.74 248.444 1463.04 248.45C1461.92 248.364 1460.88 247.905 1460.11 247.161C1459.36 246.419 1458.71 245.596 1458.18 244.712C1457.65 243.899 1457.12 243.09 1456.59 242.278C1456.29 241.826 1455.89 241.302 1456.06 240.795C1456.3 240.722 1456.51 240.575 1456.65 240.379Z" fill="black"/>
</g>
<g id="Group_3" opacity="0.1">
<path id="Vector_51" opacity="0.1" d="M1479.25 203.757C1479.18 203.413 1479.04 203.084 1478.84 202.786C1478.97 202.741 1479.09 202.693 1479.21 202.643C1479.31 203.008 1479.32 203.387 1479.25 203.757Z" fill="black"/>
<path id="Vector_52" opacity="0.1" d="M1480.72 209.315C1480.89 210.318 1480.63 211.622 1481.6 212.09C1482.39 212.486 1483.35 211.927 1484.13 212.268C1484.91 212.609 1485.07 213.39 1485.44 214.056C1486.01 215.126 1486.42 215.899 1487.77 216.189C1491.04 216.879 1495 214.516 1496.39 211.967C1497.49 209.965 1497.59 207.65 1497.66 205.414C1497.66 205.303 1497.66 205.196 1497.66 205.085C1497.66 205.517 1497.66 205.953 1497.66 206.381C1497.59 208.617 1497.49 210.932 1496.39 212.934C1495 215.483 1491.04 217.842 1487.77 217.152C1486.42 216.867 1486.02 216.09 1485.44 215.019C1485.08 214.353 1484.95 213.58 1484.13 213.231C1483.31 212.883 1482.38 213.446 1481.6 213.057C1480.61 212.577 1480.87 211.269 1480.72 210.282C1480.38 208.217 1477.81 206.996 1477.23 204.982C1477.38 205.001 1477.54 205.01 1477.7 205.01C1478.64 206.48 1480.44 207.614 1480.72 209.315Z" fill="black"/>
</g>
<path id="Vector_53" d="M1309.93 323.739C1308.72 323.151 1307.43 322.735 1306.08 322.506C1307.06 322.383 1308.02 322.187 1308.96 321.919C1311.46 321.202 1312.72 320.242 1311.77 319.771C1310.83 319.299 1308.03 319.497 1305.54 320.215C1304.69 320.437 1303.89 320.761 1303.14 321.178C1302.88 320.683 1302.18 320.108 1301.09 319.561C1298.87 318.455 1295.89 317.9 1294.43 318.316C1292.97 318.732 1293.59 319.969 1295.81 321.091C1296.89 321.619 1298.05 322.01 1299.25 322.252C1298.45 322.341 1297.66 322.474 1296.88 322.649C1294.17 323.239 1292.59 324.135 1293.38 324.631C1294.18 325.126 1297 325.079 1299.72 324.488C1300.71 324.293 1301.67 323.985 1302.57 323.572C1302.79 324.084 1303.5 324.694 1304.66 325.269C1306.88 326.371 1309.86 326.93 1311.32 326.514C1312.78 326.098 1312.14 324.841 1309.93 323.739Z" fill="#A4BDA2"/>
<path id="Vector_54" d="M1277.36 285.635C1276.6 285.266 1275.79 285.006 1274.94 284.865C1275.56 284.79 1276.16 284.666 1276.75 284.497C1278.32 284.049 1279.11 283.446 1278.5 283.153C1277.9 282.86 1276.17 282.982 1274.6 283.43C1274.08 283.569 1273.57 283.772 1273.11 284.033C1272.79 283.588 1272.33 283.236 1271.8 283.022C1270.41 282.328 1268.54 281.979 1267.63 282.229C1266.72 282.479 1267.11 283.264 1268.51 283.958C1269.19 284.289 1269.93 284.533 1270.69 284.683C1270.19 284.737 1269.69 284.817 1269.2 284.921C1267.5 285.29 1266.52 285.853 1267.01 286.17C1267.51 286.487 1269.27 286.451 1270.98 286.083C1271.59 285.961 1272.19 285.769 1272.76 285.512C1273.06 285.981 1273.52 286.351 1274.07 286.57C1275.46 287.264 1277.33 287.613 1278.24 287.363C1279.15 287.113 1278.75 286.328 1277.36 285.635Z" fill="#A4BDA2"/>
<path id="Vector_55" d="M1544.26 344.024C1552.06 344.024 1558.38 342.922 1558.38 341.562C1558.38 340.203 1552.06 339.1 1544.26 339.1C1536.47 339.1 1530.15 340.203 1530.15 341.562C1530.15 342.922 1536.47 344.024 1544.26 344.024Z" fill="#A4BDA2"/>
<path id="Vector_56" d="M1544.03 342.466C1544.93 342.466 1545.67 341.593 1545.67 340.516C1545.67 339.438 1544.93 338.565 1544.03 338.565C1543.12 338.565 1542.38 339.438 1542.38 340.516C1542.38 341.593 1543.12 342.466 1544.03 342.466Z" fill="#3F3D56"/>
<path id="Vector_57" d="M1544.03 340.084C1544.93 340.084 1545.67 339.21 1545.67 338.133C1545.67 337.056 1544.93 336.183 1544.03 336.183C1543.12 336.183 1542.38 337.056 1542.38 338.133C1542.38 339.21 1543.12 340.084 1544.03 340.084Z" fill="#3F3D56"/>
<path id="Vector_58" d="M1544.03 337.697C1544.93 337.697 1545.67 336.824 1545.67 335.747C1545.67 334.669 1544.93 333.796 1544.03 333.796C1543.12 333.796 1542.38 334.669 1542.38 335.747C1542.38 336.824 1543.12 337.697 1544.03 337.697Z" fill="#3F3D56"/>
<path id="Vector_59" d="M1544.03 335.315C1544.93 335.315 1545.67 334.441 1545.67 333.364C1545.67 332.287 1544.93 331.414 1544.03 331.414C1543.12 331.414 1542.38 332.287 1542.38 333.364C1542.38 334.441 1543.12 335.315 1544.03 335.315Z" fill="#3F3D56"/>
<path id="Vector_60" d="M1544.03 332.928C1544.93 332.928 1545.67 332.055 1545.67 330.978C1545.67 329.9 1544.93 329.027 1544.03 329.027C1543.12 329.027 1542.38 329.9 1542.38 330.978C1542.38 332.055 1543.12 332.928 1544.03 332.928Z" fill="#3F3D56"/>
<path id="Vector_61" d="M1544.03 330.546C1544.93 330.546 1545.67 329.672 1545.67 328.595C1545.67 327.518 1544.93 326.645 1544.03 326.645C1543.12 326.645 1542.38 327.518 1542.38 328.595C1542.38 329.672 1543.12 330.546 1544.03 330.546Z" fill="#3F3D56"/>
<path id="Vector_62" d="M1544.03 328.159C1544.93 328.159 1545.67 327.286 1545.67 326.209C1545.67 325.131 1544.93 324.258 1544.03 324.258C1543.12 324.258 1542.38 325.131 1542.38 326.209C1542.38 327.286 1543.12 328.159 1544.03 328.159Z" fill="#3F3D56"/>
<path id="Vector_63" d="M1550.18 309.892C1550.4 309.633 1550.61 309.36 1550.79 309.075L1546.47 308.433L1551.14 308.465C1551.59 307.581 1551.83 306.623 1551.86 305.65C1551.88 304.678 1551.69 303.71 1551.29 302.808L1545.02 305.757L1550.8 301.904C1550.26 301.058 1549.53 300.323 1548.66 299.743C1547.79 299.164 1546.8 298.753 1545.75 298.535C1544.7 298.318 1543.61 298.299 1542.55 298.479C1541.49 298.66 1540.48 299.037 1539.59 299.586C1538.69 300.134 1537.93 300.844 1537.36 301.67C1536.78 302.496 1536.39 303.421 1536.23 304.388C1536.06 305.354 1536.11 306.342 1536.39 307.289C1536.66 308.235 1537.14 309.121 1537.81 309.892C1537.45 310.296 1537.15 310.734 1536.9 311.196L1542.51 313.836L1536.53 312.017C1536.26 312.755 1536.12 313.529 1536.12 314.308C1536.11 315.909 1536.71 317.464 1537.81 318.72C1536.89 319.773 1536.33 321.037 1536.17 322.368C1536.01 323.699 1536.27 325.044 1536.92 326.248C1537.56 327.452 1538.57 328.467 1539.82 329.177C1541.07 329.887 1542.52 330.264 1543.99 330.264C1545.47 330.264 1546.92 329.887 1548.17 329.177C1549.42 328.467 1550.42 327.452 1551.07 326.248C1551.72 325.044 1551.97 323.699 1551.82 322.368C1551.66 321.037 1551.09 319.773 1550.18 318.72C1551.27 317.462 1551.87 315.907 1551.87 314.305C1551.86 312.704 1551.27 311.149 1550.18 309.892Z" fill="#A4BDA2"/>
<path id="Vector_64" opacity="0.1" d="M1536.12 314.304C1536.11 315.905 1536.71 317.461 1537.81 318.716C1536.89 319.769 1536.33 321.033 1536.17 322.364C1536.01 323.695 1536.27 325.04 1536.92 326.244C1537.56 327.448 1538.57 328.463 1539.82 329.173C1541.07 329.883 1542.52 330.26 1543.99 330.26C1545.47 330.26 1546.92 329.883 1548.17 329.173C1549.42 328.463 1550.43 327.448 1551.07 326.244C1551.72 325.04 1551.97 323.695 1551.82 322.364C1551.66 321.033 1551.09 319.769 1550.18 318.716C1551.23 317.503 1536.12 313.503 1536.12 314.304Z" fill="black"/>
</g>
</g>
<g id="Comtree">
<path id="com" d="M847.496 196.821L832.616 197.589L813.896 191.445L813.128 167.733L821.288 151.317L834.824 146.709L845.192 152.661L840.008 166.197L837.032 164.661L840.008 155.733L836.264 152.661L825.032 157.941L819.848 169.845L821.288 187.029L832.616 191.445L845.192 189.333L847.496 196.821ZM867.338 153.141L858.89 164.085L860.714 182.997L871.37 193.077L878.57 192.981L887.594 175.317L883.562 158.709L877.13 153.909L867.338 153.141ZM880.394 146.709L890.57 156.117L894.41 178.101L880.874 199.317L867.434 199.893L853.322 182.901L852.266 161.013L864.266 146.709H880.394ZM984.748 186.069L972.748 197.205L964.876 195.765L964.012 157.461L958.156 153.813L944.332 163.509L945.1 167.445L946.06 191.925L950.86 194.229L950.38 196.533L932.812 197.013L933.196 194.517L937.996 192.213L937.42 159.765L933.484 153.621L924.844 157.749L915.532 166.965L916.396 192.021L922.444 194.037L921.964 197.493L903.724 197.301L903.436 194.613L907.756 192.885L908.428 155.157L901.132 150.261L905.356 143.157L913.516 149.685L914.092 159.477L926.668 149.493L941.452 149.973L943.18 158.997L958.444 149.493L968.524 151.221L972.076 158.997L970.636 190.485L973.228 190.677L980.524 180.981L984.748 186.069Z" fill="black"/>
<path id="ree" d="M1076.81 157.653L1070.95 162.645L1065.86 155.253L1058.09 157.845L1055.78 162.933L1056.17 191.733L1061.83 193.557L1061.26 196.917H1044.26L1043.98 194.325L1048.49 192.501L1048.39 154.101L1043.69 151.413L1047.82 146.133L1054.82 150.645L1055.4 153.909L1060.3 151.989L1069.99 149.589L1076.81 157.653ZM1091.79 171.477L1114.25 167.925L1111.56 155.349L1105.13 152.949L1092.56 157.173L1091.69 171.861L1091.79 171.477ZM1111.28 148.917L1118.96 155.637L1121.74 172.149L1091.69 176.949L1096.88 192.213L1108.2 191.925L1121.64 187.893L1122.41 195.477L1095.34 199.317L1083.53 181.845L1084.88 157.173L1097.74 147.861L1111.28 148.917ZM1140.26 171.477L1162.72 167.925L1160.03 155.349L1153.6 152.949L1141.03 157.173L1140.16 171.861L1140.26 171.477ZM1159.75 148.917L1167.43 155.637L1170.21 172.149L1140.16 176.949L1145.35 192.213L1156.67 191.925L1170.11 187.893L1170.88 195.477L1143.81 199.317L1132 181.845L1133.35 157.173L1146.21 147.861L1159.75 148.917Z" fill="black"/>
<g id="Comtreesym">
<g id="Layer 1">
<g id="Group_4">
<path id="Vector_65" d="M971.319 122.484C971.055 122.25 970.97 121.937 970.822 121.656C969.532 119.198 968.586 116.648 967.976 114.014C967.697 112.811 967.506 111.597 967.363 110.376C967.163 108.656 967.141 106.932 967.223 105.21C967.295 103.713 967.514 102.225 967.821 100.744C968.231 98.7722 968.827 96.8441 969.608 94.9552C970.636 92.4667 971.98 90.104 973.621 87.859C974.769 86.2871 976.049 84.7937 977.469 83.3901C978.889 81.9866 980.425 80.6794 982.082 79.467C985.172 77.204 988.573 75.3511 992.281 73.8969C995.473 72.6453 998.8 71.7384 1002.26 71.1714C1003.64 70.9443 1005.04 70.7842 1006.44 70.6502C1007.01 70.5963 1007.59 70.5701 1008.16 70.5571C1008.89 70.5407 1009.61 70.4786 1010.34 70.4786C1011.77 70.4786 1013.2 70.5342 1014.62 70.6502C1017.62 70.8937 1020.57 71.3789 1023.45 72.1355C1025.79 72.7515 1028.07 73.5227 1030.26 74.4606C1033.05 75.655 1035.65 77.0929 1038.08 78.7579C1039.69 79.8673 1041.19 81.0814 1042.61 82.364C1043.84 83.4735 1044.95 84.663 1046 85.8999C1047.36 87.511 1048.55 89.2054 1049.58 90.9815C1050.82 93.1236 1051.81 95.3441 1052.53 97.6496C1053 99.1529 1053.36 100.672 1053.61 102.212C1053.78 103.257 1053.88 104.311 1053.93 105.368C1053.97 106.086 1054.02 106.805 1053.99 107.52C1053.93 108.836 1053.85 110.149 1053.66 111.46C1053.27 114.113 1052.54 116.693 1051.49 119.215C1050.96 120.473 1050.34 121.698 1049.66 122.902C1049.18 122.447 1048.68 121.997 1048.2 121.536C1046.51 119.917 1044.82 118.295 1043.13 116.675C1041.68 115.291 1040.23 113.911 1038.79 112.527C1037.11 110.917 1035.43 109.303 1033.75 107.694C1032.26 106.27 1030.77 104.852 1029.28 103.431C1027.54 101.762 1025.8 100.092 1024.05 98.4241C1022.84 97.2657 1021.63 96.1121 1020.42 94.9536C1018.46 93.0795 1016.51 91.2037 1014.55 89.3279C1013.54 88.3557 1012.53 87.377 1011.51 86.4113C1011.09 86.0159 1010.71 85.5862 1010.2 85.2136C1009.56 85.8247 1008.93 86.4178 1008.31 87.0175C1006.42 88.8263 1004.55 90.6367 1002.66 92.4455C1001.25 93.8017 999.831 95.1546 998.419 96.5108C996.7 98.1611 994.983 99.8146 993.264 101.465C992.118 102.566 990.97 103.666 989.824 104.767C988.167 106.36 986.512 107.955 984.856 109.546C983.659 110.697 982.455 111.842 981.258 112.992C979.57 114.613 977.883 116.237 976.197 117.86C974.981 119.03 973.772 120.206 972.543 121.368C972.147 121.746 971.799 122.167 971.319 122.484Z" fill="#A4BDA2"/>
<path id="Vector_66" d="M971.319 122.484C971.799 122.167 972.147 121.744 972.547 121.366C973.776 120.205 974.983 119.028 976.201 117.858C977.887 116.236 979.574 114.612 981.262 112.991C982.459 111.84 983.663 110.695 984.86 109.545C986.516 107.953 988.171 106.359 989.828 104.765C990.974 103.664 992.122 102.564 993.268 101.463C994.987 99.8113 996.704 98.1594 998.423 96.5091C999.835 95.1529 1001.25 93.8 1002.67 92.4438C1004.55 90.635 1006.43 88.8246 1008.31 87.0158C1008.93 86.4178 1009.56 85.823 1010.21 85.2119C1010.71 85.5845 1011.09 86.0142 1011.51 86.4096C1012.53 87.3736 1013.54 88.354 1014.55 89.3262C1016.51 91.202 1018.47 93.0778 1020.42 94.9519C1021.63 96.1104 1022.85 97.264 1024.06 98.4224C1025.8 100.091 1027.54 101.762 1029.29 103.429C1030.77 104.852 1032.27 106.269 1033.75 107.692C1035.43 109.301 1037.11 110.916 1038.79 112.525C1040.24 113.909 1041.69 115.29 1043.13 116.674C1044.82 118.293 1046.51 119.915 1048.2 121.535C1048.69 121.995 1049.18 122.446 1049.67 122.901C1050.88 124.072 1052.09 125.245 1053.31 126.415C1054.03 127.113 1054.77 127.807 1055.49 128.503C1055.59 128.598 1055.68 128.696 1055.84 128.856C1055.58 128.856 1055.42 128.856 1055.25 128.856C1052.4 128.856 1049.54 128.858 1046.68 128.855C1046.23 128.855 1045.78 128.915 1045.34 128.834C1045.27 128.664 1045.11 128.556 1044.98 128.432C1043.8 127.322 1042.61 126.214 1041.43 125.105C1039.66 123.44 1037.9 121.772 1036.13 120.105C1035.03 119.072 1033.93 118.041 1032.84 117.009C1030.91 115.195 1028.99 113.38 1027.07 111.568C1025.88 110.447 1024.69 109.331 1023.5 108.211C1021.74 106.556 1019.98 104.898 1018.23 103.241C1017.33 102.393 1016.44 101.538 1015.53 100.697C1015.17 100.365 1014.84 100.002 1014.37 99.6577C1014.37 99.8538 1014.37 99.9812 1014.37 100.107C1014.37 102.212 1014.39 104.316 1014.36 106.419C1014.36 106.788 1014.49 107.058 1014.78 107.327C1015.77 108.259 1016.75 109.205 1017.73 110.149C1019.39 111.741 1021.04 113.337 1022.7 114.929C1024.12 116.295 1025.55 117.656 1026.97 119.023C1028.81 120.793 1030.65 122.566 1032.49 124.335C1033.93 125.721 1035.38 127.102 1036.82 128.487C1036.92 128.587 1037.06 128.68 1037.08 128.837C1037.01 128.845 1036.96 128.855 1036.92 128.855C1033.45 128.855 1029.99 128.855 1026.52 128.86C1026.3 128.86 1026.15 128.791 1026.01 128.651C1025.26 127.901 1024.5 127.159 1023.75 126.414C1022.38 125.074 1021.02 123.734 1019.66 122.391C1017.98 120.731 1016.3 119.067 1014.62 117.407C1014.57 117.353 1014.53 117.264 1014.38 117.306C1014.38 117.415 1014.38 117.532 1014.38 117.646C1014.38 126.089 1014.38 134.533 1014.38 142.975C1014.38 143.106 1014.4 143.235 1014.4 143.366C1014.4 143.758 1014.37 144.149 1014.37 144.541C1014.37 159.951 1014.37 175.36 1014.37 190.77C1014.37 191.376 1014.48 191.303 1013.73 191.304C1011.55 191.308 1009.37 191.306 1007.2 191.306C1007.15 191.306 1007.11 191.306 1007.06 191.306C1006.49 191.308 1006.56 191.319 1006.56 190.885C1006.56 180.102 1006.56 169.318 1006.56 158.536C1006.56 153.869 1006.56 149.204 1006.56 144.537C1006.56 144.145 1006.54 143.753 1006.53 143.363C1006.54 143.206 1006.55 143.051 1006.55 142.894C1006.55 139.979 1006.55 137.064 1006.55 134.149C1006.55 128.659 1006.55 123.169 1006.55 117.679C1006.55 117.546 1006.59 117.402 1006.5 117.268C1006.33 117.347 1006.25 117.456 1006.15 117.554C1004.48 119.157 1002.81 120.76 1001.15 122.363C1000.17 123.308 999.188 124.254 998.208 125.198C997.021 126.339 995.83 127.476 994.647 128.618C994.486 128.775 994.319 128.861 994.055 128.861C990.729 128.853 987.404 128.856 984.079 128.855C983.997 128.855 983.886 128.892 983.838 128.762C984.215 128.397 984.599 128.021 984.988 127.649C986.186 126.5 987.387 125.353 988.583 124.203C990.209 122.639 991.831 121.074 993.457 119.51C994.9 118.125 996.349 116.744 997.792 115.358C999.48 113.737 1001.17 112.113 1002.85 110.491C1004 109.39 1005.14 108.29 1006.29 107.192C1006.48 107.017 1006.56 106.834 1006.56 106.592C1006.55 104.396 1006.56 102.2 1006.55 100.004C1006.55 99.9093 1006.59 99.8031 1006.47 99.6659C1006.38 99.759 1006.32 99.8309 1006.25 99.8979C1005.22 100.88 1004.2 101.864 1003.17 102.842C1001.85 104.105 1000.51 105.362 999.185 106.625C997.374 108.347 995.568 110.073 993.761 111.798C991.984 113.492 990.211 115.19 988.432 116.884C986.858 118.383 985.277 119.875 983.704 121.371C981.594 123.378 979.485 125.383 977.383 127.396C976.873 127.886 976.327 128.35 975.868 128.878C972.211 128.878 968.553 128.878 964.908 128.878C964.842 128.703 964.981 128.652 965.055 128.582C967.001 126.703 968.952 124.827 970.898 122.948C971.044 122.798 971.178 122.638 971.319 122.484Z" fill="black"/>
<path id="Vector_67" d="M1014.4 143.363C1014.39 143.232 1014.38 143.103 1014.38 142.972C1014.37 134.53 1014.37 126.085 1014.37 117.643C1014.37 117.527 1014.37 117.412 1014.37 117.303C1014.52 117.262 1014.56 117.352 1014.62 117.404C1016.3 119.064 1017.98 120.728 1019.66 122.388C1021.02 123.729 1022.38 125.069 1023.74 126.41C1024.5 127.156 1025.26 127.897 1026.01 128.647C1026.15 128.788 1026.29 128.857 1026.52 128.857C1029.98 128.852 1033.45 128.853 1036.91 128.852C1036.96 128.852 1037 128.842 1037.07 128.834C1037.06 128.675 1036.92 128.584 1036.82 128.484C1035.38 127.098 1033.93 125.718 1032.48 124.332C1030.64 122.563 1028.81 120.79 1026.97 119.02C1025.55 117.654 1024.12 116.291 1022.7 114.925C1021.04 113.334 1019.39 111.738 1017.73 110.146C1016.75 109.203 1015.77 108.256 1014.77 107.324C1014.48 107.056 1014.36 106.785 1014.36 106.416C1014.38 104.311 1014.37 102.207 1014.37 100.104C1014.37 99.978 1014.37 99.8506 1014.37 99.6545C1014.84 100.001 1015.17 100.362 1015.52 100.694C1016.43 101.535 1017.32 102.39 1018.22 103.238C1019.98 104.895 1021.74 106.553 1023.49 108.208C1024.68 109.329 1025.88 110.443 1027.07 111.564C1028.99 113.376 1030.91 115.193 1032.83 117.005C1033.93 118.038 1035.03 119.069 1036.12 120.102C1037.89 121.768 1039.66 123.437 1041.43 125.102C1042.61 126.213 1043.79 127.319 1044.97 128.428C1045.11 128.554 1045.27 128.66 1045.33 128.83C1044.99 129.345 1044.51 129.778 1044.07 130.231C1043 131.321 1041.88 132.363 1040.66 133.337C1038.33 135.208 1035.79 136.85 1033.03 138.255C1030.01 139.791 1026.82 140.994 1023.46 141.877C1021.52 142.387 1019.54 142.779 1017.53 143.044C1016.49 143.185 1015.46 143.332 1014.4 143.363Z" fill="#A4BDA2"/>
<path id="Vector_68" d="M975.863 128.873C976.321 128.345 976.867 127.879 977.378 127.391C979.477 125.378 981.589 123.373 983.698 121.367C985.271 119.87 986.852 118.376 988.426 116.88C990.205 115.187 991.978 113.489 993.756 111.793C995.564 110.069 997.37 108.344 999.179 106.62C1000.51 105.357 1001.84 104.101 1003.17 102.837C1004.19 101.859 1005.22 100.875 1006.24 99.8931C1006.31 99.8261 1006.38 99.7542 1006.46 99.6611C1006.58 99.7967 1006.55 99.9029 1006.55 99.9993C1006.55 102.195 1006.55 104.391 1006.56 106.587C1006.56 106.829 1006.47 107.012 1006.29 107.187C1005.14 108.285 1003.99 109.385 1002.85 110.486C1001.16 112.109 999.474 113.733 997.786 115.354C996.343 116.739 994.894 118.12 993.451 119.505C991.825 121.067 990.203 122.634 988.577 124.198C987.381 125.348 986.18 126.495 984.982 127.644C984.593 128.017 984.209 128.391 983.832 128.757C983.881 128.888 983.991 128.85 984.073 128.85C987.398 128.852 990.724 128.848 994.049 128.857C994.315 128.857 994.48 128.77 994.641 128.613C995.824 127.471 997.015 126.334 998.202 125.193C999.183 124.249 1000.16 123.303 1001.14 122.358C1002.81 120.755 1004.47 119.151 1006.14 117.55C1006.24 117.453 1006.33 117.342 1006.5 117.264C1006.58 117.398 1006.54 117.54 1006.54 117.674C1006.55 123.164 1006.55 128.654 1006.55 134.144C1006.55 137.059 1006.55 139.974 1006.55 142.889C1006.55 143.046 1006.53 143.201 1006.52 143.358C1004.79 143.242 1003.08 143.008 1001.39 142.699C998.864 142.239 996.411 141.598 994.026 140.768C990.609 139.579 987.425 138.049 984.465 136.186C982.346 134.852 980.414 133.345 978.611 131.719C977.669 130.87 976.785 129.977 975.964 129.043C975.921 128.991 975.863 128.946 975.863 128.873Z" fill="#A4BDA2"/>
</g>
</g>
</g>
</g>
<path id="store" d="M948.856 236.416L956.92 239.728L959.8 236.92L962.896 239.08L957.424 246.424L954.832 243.976L943.024 241.168L939.208 245.632L944.176 252.616L958.648 256.216L960.664 268.456L951.16 274.36L938.488 271.48L936.76 274.432L933.16 273.784L935.608 266.224L950.296 269.68L954.832 266.296L953.104 260.248L937.696 254.992L933.52 246.424L936.976 238.432L948.856 236.416ZM990.519 271.768L978.711 274L973.095 268.456V261.04V242.464L969.639 243.04L966.831 243.688L966.327 240.232L971.439 238.576H972.447V231.808L971.439 229.504H977.559L978.135 235.768V238.072L988.215 236.848V242.464L978.135 241.96V265.648L981.519 269.464L990.519 267.808V271.768ZM1005.5 240.952L999.159 249.16L1000.53 263.344L1008.52 270.904L1013.92 270.832L1020.69 257.584L1017.66 245.128L1012.84 241.528L1005.5 240.952ZM1015.29 236.128L1022.92 243.184L1025.8 259.672L1015.65 275.584L1005.57 276.016L994.983 263.272L994.191 246.856L1003.19 236.128H1015.29ZM1056.4 244.336L1052.01 248.08L1048.19 242.536L1042.36 244.48L1040.63 248.296L1040.92 269.896L1045.17 271.264L1044.74 273.784H1031.99L1031.78 271.84L1035.16 270.472L1035.09 241.672L1031.56 239.656L1034.66 235.696L1039.91 239.08L1040.34 241.528L1044.02 240.088L1051.29 238.288L1056.4 244.336ZM1067.64 254.704L1084.48 252.04L1082.47 242.608L1077.64 240.808L1068.21 243.976L1067.56 254.992L1067.64 254.704ZM1082.25 237.784L1088.01 242.824L1090.1 255.208L1067.56 258.808L1071.45 270.256L1079.95 270.04L1090.03 267.016L1090.6 272.704L1070.3 275.584L1061.44 262.48L1062.45 243.976L1072.1 236.992L1082.25 237.784Z" fill="black"/>
<g id="undraw_web_shopping_dd4l 1">
<path id="Vector_69" d="M568.455 43.1749H250.136V240.76H568.455V43.1749Z" fill="#E6E6E6"/>
<path id="Vector_70" d="M559.353 67.957H259.238V229.071H559.353V67.957Z" fill="white"/>
<path id="Vector_71" d="M568.319 43H250V56.1067H568.319V43Z" fill="#A4BDA2"/>
<path id="Vector_72" d="M260.049 52.1301C261.434 52.1301 262.556 51.0425 262.556 49.7008C262.556 48.3592 261.434 47.2716 260.049 47.2716C258.665 47.2716 257.543 48.3592 257.543 49.7008C257.543 51.0425 258.665 52.1301 260.049 52.1301Z" fill="white"/>
<path id="Vector_73" d="M269.563 52.1301C270.948 52.1301 272.07 51.0425 272.07 49.7008C272.07 48.3592 270.948 47.2716 269.563 47.2716C268.179 47.2716 267.057 48.3592 267.057 49.7008C267.057 51.0425 268.179 52.1301 269.563 52.1301Z" fill="white"/>
<path id="Vector_74" d="M279.077 52.1301C280.462 52.1301 281.584 51.0425 281.584 49.7008C281.584 48.3592 280.462 47.2716 279.077 47.2716C277.693 47.2716 276.571 48.3592 276.571 49.7008C276.571 51.0425 277.693 52.1301 279.077 52.1301Z" fill="white"/>
<path id="Vector_75" d="M354.862 81.2085H296.164V142.929H354.862V81.2085Z" fill="#E6E6E6"/>
<path id="Vector_76" d="M438.644 81.2085H379.946V142.929H438.644V81.2085Z" fill="#E6E6E6"/>
<path id="Vector_77" d="M522.425 81.2085H463.728V142.929H522.425V81.2085Z" fill="#E6E6E6"/>
<path id="Vector_78" d="M354.862 154.1H296.164V215.821H354.862V154.1Z" fill="#E6E6E6"/>
<path id="Vector_79" d="M438.644 154.1H379.946V215.821H438.644V154.1Z" fill="#E6E6E6"/>
<path id="Vector_80" d="M522.425 154.1H463.728V215.821H522.425V154.1Z" fill="#E6E6E6"/>
<path id="Vector_81" d="M394.133 169.963L404.858 165.854L406.105 186.401C406.105 186.401 408.35 192.685 407.601 195.103C407.601 195.103 408.1 199.212 406.853 199.454C405.606 199.696 402.114 200.179 401.865 199.937C401.615 199.696 401.615 198.97 401.615 198.97C401.615 198.97 399.121 200.663 398.872 202.596C398.872 202.596 388.397 205.739 388.147 202.838C387.898 199.937 393.385 197.52 393.385 197.52L397.625 191.235L394.133 169.963Z" fill="white"/>
<path id="Vector_82" d="M416.83 169.963L427.554 165.854L428.801 186.401C428.801 186.401 431.046 192.685 430.298 195.103C430.298 195.103 430.797 199.212 429.55 199.454C428.303 199.696 424.811 200.179 424.561 199.937C424.312 199.696 424.312 198.97 424.312 198.97C424.312 198.97 421.818 200.663 421.568 202.596C421.568 202.596 411.093 205.739 410.844 202.838C410.594 199.937 416.081 197.52 416.081 197.52L420.321 191.235L416.83 169.963Z" fill="white"/>
<path id="Vector_83" d="M417.879 90.6173C417.879 90.6173 415.595 96.8015 418.241 99.5904L416.035 106.937C416.035 106.937 423.873 129.725 421.633 132.908C421.633 132.908 413.273 136.959 396.554 131.461L403.346 105.924L402.376 95.145L403.719 90.0811L406.705 89.7917C406.705 89.7917 404.914 96.3025 408.198 97.3153C411.482 98.3281 414.686 89.9542 414.686 89.9542L417.879 90.6173Z" fill="#3F3D56"/>
<path id="Vector_84" d="M312.418 130.541L315.3 131.683L329.054 114.163L333.377 134.73L336.258 134.222C338.107 116.491 339.614 98.4053 337.765 89.8514L327.089 89.407L322.242 104.388L319.884 114.544L312.418 130.541Z" fill="white"/>
<path id="Vector_85" d="M487.325 89.7093C487.325 89.7093 483.392 95.0086 483.583 97.1469C483.775 99.2852 486.269 134.149 486.269 134.149L492.121 134.428L490.394 109.326L491.833 102.539L495.382 134.149L502.577 134.335L496.15 93.3352L494.903 89.7093L487.325 89.7093Z" fill="white"/>
<path id="Vector_86" d="M509.553 175.079C508.509 173.865 506.714 173.208 504.99 172.853C505.042 172.702 499.747 171.642 499.659 171.86L497.663 170.32L491.534 173.405L488.089 171.132L486.489 171.682C486.554 171.409 481.521 172.254 481.521 172.254C480.56 172.287 479.332 172.345 477.958 172.448C473.144 172.807 472.774 184.888 472.774 184.888C474.989 184.01 477.35 183.531 479.742 183.474L481.043 197.926C487.734 197.37 494.752 198.018 502.024 199.601L505.435 188.241L513.379 185.247C513.379 185.247 512.021 177.95 509.553 175.079Z" fill="#3F3D56"/>
<path id="Vector_87" d="M339.089 168.199C338.229 167.198 336.75 166.657 335.329 166.365C335.372 166.239 331.009 165.366 330.936 165.546L329.292 164.277L324.242 166.819L321.403 164.946L320.085 165.4C320.139 165.174 315.992 165.87 315.992 165.87C315.2 165.898 314.188 165.946 313.056 166.03C309.089 166.326 308.784 176.281 308.784 176.281C310.609 175.557 312.555 175.162 314.526 175.116L315.598 204.264C321.111 203.806 326.894 204.339 332.886 205.644L335.696 179.043L342.242 176.576C342.242 176.576 341.123 170.564 339.089 168.199Z" fill="white"/>
<path id="Vector_88" d="M552.656 336.149L512.949 344.026L512.044 343.936L477.15 340.523V297.665L519.866 290.666L550.851 294.168L550.863 294.358V294.448L552.656 336.149Z" fill="#E6E6E6"/>
<path id="Vector_89" opacity="0.1" d="M552.656 336.149L512.949 344.026L512.044 343.936V300.001L550.863 294.358L552.656 336.149Z" fill="black"/>
<path id="Vector_90" opacity="0.05" d="M550.863 294.448L550.852 294.459L512.044 300.001L477.15 297.665L519.866 290.666L550.852 294.168L550.863 294.358V294.448Z" fill="black"/>
<path id="Vector_91" d="M506.095 314.15L481.954 312.623L481.215 323.605L505.356 325.132L506.095 314.15Z" fill="white"/>
<path id="Vector_92" d="M500.189 317.373L487.379 316.562L487.122 320.382L499.931 321.193L500.189 317.373Z" fill="#A4BDA2"/>
<path id="Vector_93" d="M606.472 336.149L566.765 344.026L565.86 343.936L530.967 340.523V297.665L573.682 290.666L604.668 294.168L604.679 294.358V294.448L606.472 336.149Z" fill="#A4BDA2"/>
<path id="Vector_94" opacity="0.1" d="M606.472 336.149L566.765 344.026L565.86 343.936V300.001L604.679 294.358L606.472 336.149Z" fill="black"/>
<path id="Vector_95" opacity="0.05" d="M604.679 294.448L604.668 294.459L565.86 300.001L530.967 297.665L573.682 290.666L604.668 294.168L604.679 294.358V294.448Z" fill="black"/>
<path id="Vector_96" d="M559.912 314.15L535.771 312.623L535.031 323.605L559.172 325.132L559.912 314.15Z" fill="white"/>
<path id="Vector_97" d="M554.005 317.373L541.195 316.562L540.938 320.382L553.748 321.193L554.005 317.373Z" fill="#A4BDA2"/>
<path id="Vector_98" d="M635.205 122.253C635.205 122.253 642.21 139.793 629.366 139.793C616.522 139.793 649.216 157.334 662.06 147.149C674.904 136.964 667.314 136.398 667.314 136.398C667.314 136.398 650.384 138.096 650.968 123.384L635.205 122.253Z" fill="#FFB8B8"/>
<path id="Vector_99" d="M644.331 127.532C655.734 127.532 664.978 118.573 664.978 107.521C664.978 96.4691 655.734 87.5096 644.331 87.5096C632.928 87.5096 623.683 96.4691 623.683 107.521C623.683 118.573 632.928 127.532 644.331 127.532Z" fill="#2F2E41"/>
<path id="Vector_100" d="M631.702 195.245L609.517 250.696C609.517 250.696 598.424 267.671 602.511 284.646C606.598 301.621 617.828 332.515 617.828 332.515C617.828 332.515 626.311 334.607 625.728 327.252C625.144 319.896 626.091 284.234 617.334 274.615L652.719 235.419L653.887 280.119C653.887 280.119 651.551 300.489 652.135 309.543C652.719 318.596 653.887 333.873 653.887 333.873L660.892 332.742C660.892 332.742 670.343 291.066 669.176 277.486C669.176 277.486 690.867 211.502 668.682 195.659L631.702 195.245Z" fill="#2F2E41"/>
<path id="Vector_101" d="M620.267 332.423C620.267 332.423 617.41 331.718 617.081 334.257C616.752 336.797 610.744 348.088 617.016 348.654C623.289 349.219 625.459 343.531 626.51 339.532C627.56 335.533 627.959 335.304 628.836 334.538C629.713 333.772 631.801 329.574 629.181 329.255C626.561 328.936 625.218 326.439 625.218 326.439C625.218 326.439 624.392 333.441 620.267 332.423Z" fill="#2F2E41"/>
<path id="Vector_102" d="M658.46 330.459C658.46 330.459 653.162 329.726 653.541 331.56C653.919 333.393 652.784 341.095 653.541 341.828C654.298 342.562 655.811 344.029 655.811 345.129C655.811 346.229 656.19 349.897 662.622 348.796C669.055 347.696 667.542 342.195 667.163 341.462C666.785 340.728 662.244 337.061 662.622 334.86C663.001 332.66 660.73 328.993 658.46 330.459Z" fill="#2F2E41"/>
<path id="Vector_103" d="M644.586 129.728C652.484 129.728 658.887 123.522 658.887 115.867C658.887 108.212 652.484 102.006 644.586 102.006C636.687 102.006 630.284 108.212 630.284 115.867C630.284 123.522 636.687 129.728 644.586 129.728Z" fill="#FFB8B8"/>
<path id="Vector_104" d="M658.265 134.984C658.265 134.984 663.253 144.549 648.218 144.82C643.596 144.903 638.099 141.639 635.83 137.735C634.493 135.435 634.155 138.612 631.994 138.379C627.9 137.938 623.526 139.584 619.613 141.601C619.107 141.861 618.711 142.283 618.491 142.795C618.271 143.307 618.241 143.877 618.407 144.408C621.375 153.951 629.85 199.859 631.158 202.358C634.499 208.741 670.657 198.052 670.657 198.052C671.152 180.684 664.648 156.387 676.088 138.715C673.571 136.883 670.675 135.6 667.599 134.956C664.522 134.312 661.338 134.321 658.265 134.984Z" fill="#A4BDA2"/>
<path id="Vector_105" d="M657.96 105.208L647.481 99.8891L633.012 102.065L630.018 114.88L637.47 114.602L639.552 109.894V114.525L642.991 114.396L644.986 106.901L646.234 114.88L658.458 114.638L657.96 105.208Z" fill="#2F2E41"/>
<path id="Vector_106" d="M645.418 92.7758C650.019 92.7758 653.749 89.1606 653.749 84.701C653.749 80.2414 650.019 76.6262 645.418 76.6262C640.816 76.6262 637.086 80.2414 637.086 84.701C637.086 89.1606 640.816 92.7758 645.418 92.7758Z" fill="#2F2E41"/>
<path id="Vector_107" d="M634.913 82.2435C634.913 80.3148 635.625 78.4498 636.921 76.9858C638.216 75.5218 640.009 74.5555 641.976 74.2616C640.789 74.0856 639.577 74.1603 638.423 74.4805C637.269 74.8008 636.2 75.3591 635.289 76.1171C634.378 76.8752 633.647 77.8151 633.145 78.8725C632.644 79.9299 632.385 81.0798 632.385 82.2435C632.385 83.4072 632.644 84.5571 633.145 85.6145C633.647 86.6719 634.378 87.6118 635.289 88.3699C636.2 89.1279 637.269 89.6862 638.423 90.0065C639.577 90.3267 640.789 90.4014 641.976 90.2254C640.009 89.9315 638.216 88.9652 636.921 87.5012C635.625 86.0372 634.913 84.1722 634.913 82.2435Z" fill="#2F2E41"/>
<path id="Vector_108" d="M683 274.42L643.293 282.297L642.388 282.207L607.495 278.794V235.937L650.21 228.937L681.196 232.44L681.207 232.63V232.719L683 274.42Z" fill="#E6E6E6"/>
<path id="Vector_109" opacity="0.1" d="M683 274.42L643.293 282.297L642.388 282.207V238.272L681.207 232.63L683 274.42Z" fill="black"/>
<path id="Vector_110" opacity="0.05" d="M681.207 232.719L681.196 232.73L642.388 238.272L607.495 235.937L650.21 228.937L681.196 232.44L681.207 232.63V232.719Z" fill="black"/>
<path id="Vector_111" d="M636.44 252.421L612.299 250.894L611.559 261.876L635.7 263.403L636.44 252.421Z" fill="white"/>
<path id="Vector_112" d="M630.533 255.644L617.723 254.833L617.466 258.653L630.276 259.464L630.533 255.644Z" fill="#A4BDA2"/>
<path id="Vector_113" d="M621.146 224.93C621.146 224.93 606.551 236.246 612.973 240.207C619.394 244.168 626.984 224.93 626.984 224.93H621.146Z" fill="#FFB8B8"/>
<path id="Vector_114" d="M621.778 141.108C621.022 140.282 611.475 145.001 612.891 151.157L613.557 193.809C613.557 193.809 610.054 228.891 618.811 228.891C627.568 228.891 626.535 230.07 627.702 227.241C628.87 224.412 629.184 200.444 629.184 200.444L621.778 141.108Z" fill="#A4BDA2"/>
<path id="Vector_115" d="M666.931 221.102C666.931 221.102 674.521 240.34 680.943 236.379C687.365 232.418 672.769 221.102 672.769 221.102H666.931Z" fill="#FFB8B8"/>
<path id="Vector_116" d="M668.682 197.095C668.682 197.095 665.046 220.584 666.213 223.413C667.381 226.242 666.348 225.063 675.105 225.063C683.862 225.063 680.359 189.981 680.359 189.981L681.025 147.329C682.441 141.173 672.894 136.454 672.138 137.28L663.745 165.034L668.682 197.095Z" fill="#A4BDA2"/>
</g>
</g>
<defs>
<linearGradient id="paint0_linear" x1="1487.08" y1="355.956" x2="1487.08" y2="198.524" gradientUnits="userSpaceOnUse">
<stop stop-color="#808080" stop-opacity="0.25"/>
<stop offset="0.54" stop-color="#808080" stop-opacity="0.12"/>
<stop offset="1" stop-color="#808080" stop-opacity="0.1"/>
</linearGradient>
</defs>
</svg>
