<svg width="612" height="934" viewBox="0 0 612 934" fill="none" xmlns="http://www.w3.org/2000/svg">
<g id="comtreesym">
<g id="comtreesymbolfinal 1">
<g id="Layer 1">
<g id="Group">
<path id="Vector" d="M104.7 424.707C103.34 423.338 102.9 421.501 102.14 419.855C95.5 405.46 90.63 390.52 87.49 375.092C86.05 368.048 85.07 360.937 84.33 353.788C83.3 343.71 83.19 333.613 83.61 323.526C83.98 314.759 85.11 306.04 86.69 297.369C88.8 285.817 91.87 274.524 95.89 263.46C101.18 248.884 108.1 235.044 116.55 221.894C122.46 212.687 129.05 203.94 136.36 195.718C143.67 187.497 151.58 179.841 160.11 172.739C176.02 159.484 193.53 148.63 212.62 140.112C229.05 132.781 246.18 127.47 263.99 124.149C271.12 122.818 278.31 121.88 285.52 121.096C288.45 120.78 291.41 120.627 294.36 120.55C298.11 120.454 301.85 120.091 305.61 120.091C312.97 120.091 320.31 120.416 327.62 121.096C343.07 122.522 358.24 125.364 373.08 129.795C385.16 133.403 396.86 137.921 408.13 143.414C422.5 150.411 435.9 158.833 448.4 168.585C456.72 175.084 464.43 182.195 471.73 189.708C478.04 196.206 483.79 203.174 489.16 210.419C496.17 219.856 502.33 229.78 507.62 240.184C513.99 252.731 519.08 265.738 522.81 279.242C525.24 288.047 527.1 296.948 528.36 305.963C529.22 312.089 529.76 318.262 530.03 324.454C530.21 328.655 530.48 332.867 530.32 337.059C530.03 344.763 529.58 352.458 528.6 360.133C526.63 375.676 522.84 390.788 517.44 405.556C514.74 412.925 511.55 420.104 508.05 427.157C505.54 424.487 502.99 421.855 500.51 419.156C491.8 409.671 483.11 400.168 474.4 390.683C466.96 382.577 459.49 374.49 452.05 366.383C443.4 356.956 434.77 347.5 426.11 338.073C418.46 329.737 410.77 321.43 403.11 313.103C394.13 303.331 385.18 293.55 376.2 283.778C369.97 276.993 363.72 270.236 357.49 263.45C347.41 252.473 337.34 241.485 327.27 230.498C322.05 224.804 316.88 219.071 311.6 213.415C309.44 211.098 307.48 208.581 304.88 206.399C301.57 209.979 298.33 213.453 295.12 216.965C285.43 227.56 275.76 238.164 266.06 248.759C258.79 256.703 251.49 264.627 244.22 272.571C235.37 282.238 226.53 291.923 217.68 301.589C211.78 308.04 205.87 314.481 199.97 320.932C191.44 330.263 182.92 339.604 174.39 348.926C168.23 355.664 162.03 362.373 155.87 369.111C147.18 378.605 138.49 388.118 129.81 397.622C123.55 404.475 117.33 411.365 111 418.17C108.96 420.381 107.17 422.85 104.7 424.707Z" fill="#A4BDA2"/>
<path id="Vector_2" d="M104.7 424.707C107.17 422.85 108.96 420.372 111.02 418.161C117.35 411.356 123.56 404.465 129.83 397.612C138.51 388.109 147.2 378.595 155.89 369.101C162.05 362.363 168.25 355.654 174.41 348.917C182.94 339.595 191.46 330.254 199.99 320.922C205.89 314.472 211.8 308.031 217.7 301.58C226.55 291.904 235.39 282.228 244.24 272.562C251.51 264.618 258.81 256.693 266.08 248.75C275.77 238.155 285.45 227.55 295.14 216.956C298.35 213.453 301.59 209.969 304.9 206.39C307.5 208.572 309.46 211.089 311.62 213.405C316.89 219.052 322.07 224.794 327.29 230.489C337.36 241.476 347.43 252.463 357.51 263.441C363.74 270.226 369.99 276.983 376.22 283.769C385.19 293.541 394.15 303.331 403.13 313.093C410.79 321.43 418.48 329.727 426.13 338.063C434.79 347.491 443.41 356.946 452.07 366.374C459.51 374.48 466.98 382.567 474.42 390.674C483.13 400.158 491.81 409.662 500.53 419.146C503.01 421.845 505.55 424.487 508.07 427.148C514.31 434.01 520.55 440.882 526.81 447.734C530.54 451.821 534.31 455.888 538.05 459.966C538.56 460.521 539.03 461.095 539.84 462.033C538.51 462.033 537.67 462.033 536.82 462.033C522.11 462.033 507.41 462.042 492.7 462.023C490.39 462.023 488.07 462.377 485.77 461.899C485.45 460.903 484.61 460.272 483.92 459.544C477.84 453.046 471.75 446.557 465.67 440.058C456.56 430.306 447.47 420.534 438.36 410.772C432.72 404.723 427.05 398.684 421.41 392.636C411.51 382.012 401.63 371.379 391.73 360.765C385.61 354.2 379.45 347.663 373.33 341.107C364.27 331.412 355.23 321.698 346.19 311.993C341.56 307.026 336.98 302.02 332.3 297.091C330.45 295.148 328.78 293.024 326.36 291.004C326.36 292.153 326.36 292.899 326.36 293.636C326.36 305.963 326.42 318.29 326.31 330.608C326.29 332.771 326.94 334.35 328.43 335.929C333.57 341.384 338.61 346.926 343.66 352.458C352.19 361.78 360.7 371.13 369.23 380.452C376.55 388.453 383.9 396.426 391.22 404.436C400.7 414.801 410.14 425.186 419.62 435.551C427.05 443.667 434.5 451.754 441.93 459.87C442.46 460.454 443.18 460.999 443.24 461.918C442.89 461.966 442.65 462.023 442.42 462.023C424.58 462.023 406.75 462.023 388.91 462.052C387.74 462.052 387.01 461.65 386.28 460.827C382.42 456.434 378.51 452.089 374.61 447.725C367.6 439.877 360.58 432.029 353.58 424.162C344.92 414.438 336.28 404.695 327.63 394.971C327.35 394.655 327.14 394.129 326.38 394.377C326.38 395.019 326.38 395.698 326.38 396.368C326.38 445.82 326.38 495.281 326.39 544.733C326.39 545.499 326.48 546.255 326.52 547.021C326.47 549.318 326.36 551.605 326.36 553.902C326.35 644.163 326.36 734.425 326.34 824.686C326.34 828.237 326.92 827.806 323.02 827.816C311.82 827.835 300.62 827.825 289.43 827.825C289.19 827.825 288.95 827.825 288.71 827.825C285.77 827.835 286.12 827.902 286.12 825.356C286.12 762.199 286.12 699.032 286.12 635.875C286.12 608.541 286.12 581.217 286.11 553.883C286.11 551.586 286.03 549.289 285.98 547.002C286.02 546.083 286.09 545.174 286.09 544.255C286.1 527.181 286.09 510.106 286.09 493.032C286.09 460.875 286.09 428.717 286.08 396.56C286.08 395.784 286.29 394.942 285.83 394.157C284.97 394.617 284.52 395.258 284 395.832C275.42 405.221 266.84 414.61 258.27 423.999C253.22 429.531 248.18 435.072 243.13 440.604C237.02 447.284 230.89 453.946 224.8 460.636C223.97 461.554 223.11 462.062 221.75 462.062C204.63 462.014 187.51 462.033 170.39 462.023C169.97 462.023 169.4 462.243 169.15 461.478C171.09 459.343 173.07 457.142 175.07 454.96C181.24 448.232 187.42 441.513 193.58 434.775C201.95 425.616 210.3 416.448 218.67 407.288C226.1 399.172 233.56 391.085 240.99 382.969C249.68 373.475 258.36 363.962 267.04 354.458C272.94 348.007 278.84 341.566 284.76 335.135C285.7 334.111 286.14 333.039 286.14 331.622C286.08 318.759 286.11 305.896 286.1 293.033C286.1 292.478 286.27 291.856 285.67 291.052C285.21 291.598 284.88 292.019 284.52 292.411C279.25 298.163 273.98 303.925 268.69 309.658C261.86 317.056 254.99 324.416 248.16 331.814C238.84 341.901 229.54 352.008 220.24 362.115C211.09 372.039 201.96 381.983 192.8 391.908C184.7 400.685 176.56 409.423 168.46 418.189C157.6 429.942 146.74 441.685 135.92 453.477C133.29 456.348 130.48 459.066 128.12 462.157C109.29 462.157 90.46 462.157 71.69 462.157C71.35 461.133 72.07 460.836 72.45 460.425C82.47 449.419 92.51 438.431 102.53 427.425C103.28 426.545 103.97 425.607 104.7 424.707Z" fill="#5C4138"/>
<path id="Vector_3" d="M326.5 547.002C326.45 546.236 326.37 545.48 326.37 544.714C326.36 495.262 326.36 445.801 326.36 396.349C326.36 395.669 326.36 395 326.36 394.358C327.12 394.119 327.34 394.645 327.61 394.952C336.27 404.676 344.91 414.419 353.56 424.142C360.56 432 367.58 439.848 374.59 447.705C378.48 452.07 382.4 456.415 386.26 460.808C386.99 461.631 387.72 462.033 388.89 462.033C406.73 462.004 424.56 462.014 442.4 462.004C442.64 462.004 442.87 461.947 443.22 461.899C443.16 460.97 442.45 460.434 441.91 459.851C434.49 451.735 427.03 443.647 419.6 435.531C410.12 425.166 400.67 414.782 391.2 404.417C383.88 396.416 376.53 388.434 369.21 380.433C360.68 371.111 352.17 361.76 343.64 352.439C338.58 346.916 333.55 341.365 328.41 335.91C326.93 334.34 326.27 332.752 326.29 330.589C326.4 318.262 326.34 305.935 326.34 293.617C326.34 292.88 326.34 292.134 326.34 290.985C328.76 293.014 330.44 295.129 332.28 297.072C336.96 302.001 341.54 307.006 346.17 311.974C355.21 321.678 364.26 331.393 373.31 341.088C379.44 347.653 385.59 354.181 391.71 360.746C401.61 371.36 411.49 382.003 421.39 392.616C427.03 398.665 432.69 404.704 438.34 410.753C447.44 420.515 456.54 430.287 465.65 440.039C471.72 446.547 477.82 453.027 483.9 459.525C484.59 460.262 485.43 460.884 485.75 461.88C483.97 464.894 481.53 467.431 479.25 470.082C473.76 476.465 467.95 482.572 461.7 488.276C449.68 499.234 436.61 508.853 422.4 517.083C406.87 526.08 390.44 533.124 373.13 538.302C363.14 541.288 352.98 543.585 342.63 545.135C337.28 545.958 331.94 546.82 326.5 547.002Z" fill="#A4BDA2"/>
<path id="Vector_4" d="M128.09 462.129C130.45 459.037 133.26 456.31 135.89 453.448C146.7 441.657 157.57 429.914 168.43 418.161C176.53 409.394 184.67 400.646 192.77 391.88C201.93 381.964 211.06 372.02 220.21 362.086C229.52 351.989 238.82 341.882 248.13 331.785C254.96 324.387 261.83 317.027 268.66 309.629C273.95 303.896 279.22 298.134 284.49 292.382C284.85 291.99 285.18 291.569 285.64 291.023C286.24 291.818 286.07 292.44 286.07 293.005C286.08 305.868 286.06 318.731 286.11 331.594C286.12 333.01 285.67 334.082 284.73 335.106C278.81 341.538 272.91 347.979 267.01 354.429C258.32 363.933 249.65 373.446 240.96 382.941C233.53 391.056 226.07 399.144 218.64 407.26C210.27 416.409 201.92 425.588 193.55 434.747C187.39 441.485 181.21 448.203 175.04 454.931C173.04 457.113 171.06 459.305 169.12 461.449C169.37 462.215 169.94 461.995 170.36 461.995C187.48 462.004 204.6 461.985 221.72 462.033C223.09 462.033 223.94 461.526 224.77 460.607C230.86 453.917 236.99 447.256 243.1 440.575C248.15 435.043 253.19 429.502 258.24 423.97C266.81 414.581 275.39 405.183 283.97 395.804C284.49 395.239 284.94 394.588 285.8 394.129C286.26 394.913 286.05 395.746 286.05 396.531C286.06 428.688 286.06 460.846 286.06 493.004C286.06 510.078 286.06 527.152 286.06 544.226C286.06 545.145 285.99 546.054 285.95 546.973C277.03 546.293 268.22 544.925 259.49 543.116C246.51 540.417 233.88 536.665 221.6 531.803C204.01 524.836 187.62 515.878 172.38 504.967C161.47 497.148 151.52 488.324 142.24 478.801C137.39 473.824 132.84 468.598 128.61 463.124C128.39 462.818 128.09 462.559 128.09 462.129Z" fill="#A4BDA2"/>
</g>
</g>
</g>
</g>
</svg>
